<?xml version="1.0" encoding="UTF-8" standalone="no" ?>
<!DOCTYPE svg PUBLIC "-//W3C//DTD SVG 1.1//EN" "http://www.w3.org/Graphics/SVG/1.1/DTD/svg11.dtd">
<svg xmlns="http://www.w3.org/2000/svg" xmlns:xlink="http://www.w3.org/1999/xlink" version="1.1" width="1080" height="1080" viewBox="0 0 1080 1080" xml:space="preserve">
<desc>Created with Fabric.js 5.2.4</desc>
<defs>
</defs>
<g transform="matrix(1 0 0 1 540 540)" id="85216a9b-5e02-401f-b377-b097d7028670"  >
<rect style="stroke: none; stroke-width: 1; stroke-dasharray: none; stroke-linecap: butt; stroke-dashoffset: 0; stroke-linejoin: miter; stroke-miterlimit: 4; fill: rgb(255,255,255); fill-rule: nonzero; opacity: 1; visibility: hidden;" vector-effect="non-scaling-stroke"  x="-540" y="-540" rx="0" ry="0" width="1080" height="1080" />
</g>
<g transform="matrix(1 0 0 1 540 540)" id="e1fc0891-656f-49bb-a8fb-51939d27c844"  >
</g>
<g transform="matrix(0.37 0 0 0.37 540 570)"  >
<g style="" vector-effect="non-scaling-stroke"   >
		<g transform="matrix(4.63 0 0 4.63 0 -35.77)"  >
<path style="stroke: none; stroke-width: 1; stroke-dasharray: none; stroke-linecap: butt; stroke-dashoffset: 0; stroke-linejoin: miter; stroke-miterlimit: 4; fill: rgb(219,147,58); fill-rule: nonzero; opacity: 1;" vector-effect="non-scaling-stroke"  transform=" translate(-270.13, -262.25)" d="M 9.875 428.336 C 6.961 428.379 5.854 428.479 5.034 428.6 C 4.215 428.72 3.6839999999999997 428.863 3.255 429.01300000000003 C 2.354 429.369 1.7679999999999998 429.57000000000005 1.02 430.66900000000004 C 0.41000000000000003 431.77700000000004 0.40800000000000003 432.54900000000004 0.43900000000000006 433.672 C 0.4670000000000001 434.17900000000003 0.54 434.76800000000003 0.686 435.502 C 0.8320000000000001 436.236 1.052 437.117 1.419 438.26300000000003 C 1.8530288267594004 439.5964600135171 2.336360977885457 440.91336500499096 2.868000000000005 442.211 C 6.238 449.378 10.495000000000001 456.134 15.41 462.04900000000004 C 20.325 467.96400000000006 25.898 473.03900000000004 31.897 477.68000000000006 C 37.896 482.32200000000006 44.321 486.5300000000001 51.227 490.35400000000004 C 58.132999999999996 494.178 65.52199999999999 497.62000000000006 73.42 500.74000000000007 C 81.54339292763117 503.9419408763241 89.83694926841235 506.6941076224257 98.26300000000006 508.98400000000004 C 125.45700000000001 516.173 153.31900000000002 520.558 194.51 522.802 C 235.7 525.046 290.219 525.149 335.358 522.573 C 380.497 519.997 416.256 514.745 451.331 506.40799999999996 C 461.913 503.621 472.276 499.97299999999996 481.36600000000004 495.92299999999994 C 490.45400000000006 491.87199999999996 498.26800000000003 487.41799999999995 505.24100000000004 482.4789999999999 C 512.214 477.5399999999999 518.346 472.11599999999993 523.897 465.53099999999995 C 529.4480000000001 458.94599999999997 534.4150000000001 451.20099999999996 538.3480000000001 442.97299999999996 C 540.0100000000001 439.18799999999993 541.4770000000001 435.25999999999993 538.6940000000001 431.61299999999994 C 538.4017414689539 431.27039497675037 538.0750226778684 430.95875551448427 537.719 430.68299999999994 C 537.2691613918798 430.33673191395235 536.786530010016 430.0352966303455 536.278 429.78299999999996 C 535.69 429.48199999999997 534.977 429.179 533.8820000000001 428.929 C 532.788 428.678 531.312 428.481 529.8330000000001 428.40599999999995 L 22.22 428.40599999999995 C 17.506 428.3109999999999 12.787999999999998 428.2939999999999 9.874999999999998 428.33599999999996 z M 523.963 130.6 C 527.004 130.454 530.0469999999999 130.166 531.977 129.876 C 533.905 129.58700000000002 534.721 129.297 535.385 129.019 C 536.053 128.741 536.569 128.476 537.006 128.189 C 539.346 126.50999999999999 539.5899999999999 124.984 539.9399999999999 123.33399999999999 C 540.04 122.72399999999999 540.102 122.02999999999999 540.108 121.20599999999999 C 540.1096908175888 120.2156326647575 540.0468912952429 119.22620614779737 539.92 118.24399999999999 C 539.775 117.05799999999999 539.5369999999999 115.63999999999999 539.127 113.84899999999999 C 538.647269492676 111.7999808737908 538.0935741185391 109.76898621528508 537.467 107.76000000000002 C 536.141 103.508 534.264 99.44299999999998 531.145 94.457 C 528.024 89.472 523.663 83.56599999999999 517.561 76.98499999999999 C 511.45900000000006 70.40399999999998 503.62000000000006 63.14799999999998 495.122 56.51999999999998 C 486.54324505977024 49.83999871287922 477.43595291588724 43.86802031197885 467.8899999999999 38.662999999999926 C 450.966 29.64199999999998 433.019 22.634999999999984 409.52299999999997 16.439999999999984 C 386.02699999999993 10.244999999999983 356.98 4.861 324.375 2.121 C 291.77 -0.6189999999999998 255.606 -0.7160000000000002 222.632 1.899 C 189.659 4.515000000000001 159.877 9.843 135.715 16.048 C 111.554 22.253 93.013 29.333 75.498 38.476 C 66.584 43.098 57.902 48.178 50.278000000000006 53.177 C 42.653000000000006 58.177 36.086000000000006 63.097 30.314000000000007 67.934 C 24.543000000000006 72.771 19.567000000000007 77.524 15.155000000000006 83.255 C 10.743000000000006 88.985 6.892000000000007 95.69399999999999 3.928000000000006 102.765 C 3.0316741365449973 104.77063850659047 2.244523606392694 106.82330543191128 1.5699999999999878 108.91400000000004 C 0.9670000000000061 110.806 0.5850000000000061 112.435 0.3420000000000061 113.874 C 0.12266331493130478 115.13100512562596 0.007936903915026383 116.40403346477451 -0.0009999999999938947 117.67999999999998 C -0.00783105552230487 118.68514012058957 0.08090138475734604 119.68865379424284 0.2640000000000066 120.677 C 0.7320000000000061 122.89899999999999 1.461000000000006 124.80999999999999 3.691000000000006 126.842 C 4.300000000000006 127.377 5.0010000000000066 127.874 5.829000000000006 128.331 C 6.657000000000006 128.78799999999998 7.612000000000005 129.20499999999998 8.755000000000006 129.569 C 9.898000000000007 129.934 11.227000000000006 130.24599999999998 12.847000000000005 130.462 C 14.467000000000006 130.679 16.378000000000004 130.795 18.286000000000005 130.79399999999998 L 523.9630000000001 130.6 z" stroke-linecap="round" />
</g>
		<g transform="matrix(4.63 0 0 4.63 33.09 65.4)"  >
<path style="stroke: none; stroke-width: 1; stroke-dasharray: none; stroke-linecap: butt; stroke-dashoffset: 0; stroke-linejoin: miter; stroke-miterlimit: 4; fill: rgb(202,49,50); fill-rule: nonzero; opacity: 1;" vector-effect="non-scaling-stroke"  transform=" translate(-277.28, -284.11)" d="M 177.466 242.515 C 184.204 236.617 185.83100000000002 230.719 185.941 224.67399999999998 L 185.985 164.81099999999998 C 185.94500000000002 162.408 185.354 159.99399999999997 182.699 157.59099999999998 C 182.18386722784106 157.14082431426928 181.6308116421829 156.73598628725995 181.04600000000002 156.38099999999997 C 180.36296467755253 155.96522785200492 179.6468830613885 155.60635089070456 178.90500000000003 155.30799999999996 C 176.22200000000004 154.22699999999998 173.17100000000002 153.79699999999997 170.06100000000004 154.01899999999998 C 169.04106270765564 154.09430243220632 168.02821700228478 154.24606215175695 167.03100000000003 154.47299999999998 C 166.07700000000003 154.69199999999998 165.19300000000004 154.97299999999998 164.39300000000003 155.29399999999998 C 163.59300000000002 155.61599999999999 162.87600000000003 155.98 162.24400000000003 156.36399999999998 C 161.61200000000002 156.74899999999997 161.06400000000002 157.15499999999997 160.58400000000003 157.57299999999998 C 157.94500000000002 159.94899999999998 157.31700000000004 162.337 157.26900000000003 164.79399999999998 L 157.37500000000003 220.599 C 157.28400000000002 222.72799999999998 156.98600000000002 224.94 153.94600000000003 227.152 C 150.58300000000003 229.19799999999998 146.50500000000002 229.765 142.06800000000004 227.128 C 139.15200000000004 225.009 138.72000000000003 222.826 138.64000000000004 220.54899999999998 L 138.58300000000006 165.039 C 138.53800000000007 162.59099999999998 137.93400000000005 160.136 135.22300000000004 157.68599999999998 C 134.69755173710564 157.22900069976401 134.1341882591747 156.81751787443437 133.53900000000004 156.456 C 132.84361124869292 156.0341276461689 132.1148424057491 155.66991045022314 131.36000000000004 155.367 C 128.64400000000003 154.27599999999998 125.54900000000004 153.84099999999998 122.40000000000003 154.07399999999998 C 121.37238179447569 154.15168826865076 120.35212771275378 154.30713327127222 119.34800000000001 154.539 C 118.39000000000003 154.762 117.50300000000003 155.047 116.70100000000002 155.374 C 115.95455337356569 155.6754826897181 115.23441512979817 156.0383949026711 114.54800000000002 156.459 C 113.96006998660646 156.818709782193 113.40433470122835 157.22856873739357 112.88700000000001 157.684 C 110.24500000000002 160.096 109.63300000000001 162.513 109.60700000000001 165.008 L 109.53300000000002 224.661 C 109.53360499180528 225.97515776228323 109.6433151408719 227.2869968008177 109.86100000000002 228.583 C 110.69600000000001 233.257 112.67200000000003 237.914 118.02400000000002 242.546 C 119.38733732856326 243.6972801235715 120.845525373501 244.73129233896552 122.383 245.637 C 124.20043960223641 246.70716502942474 126.10167068141631 247.62818356804593 128.068 248.39099999999996 C 130.36192790790255 249.28313515849618 132.72082954198697 249.99822736304642 135.12400000000002 250.53 C 140.25300000000001 251.691 146.27000000000004 252.156 152.01300000000003 251.731 C 154.78483865292287 251.53224168350064 157.53848186445444 251.13151122948605 160.25200000000004 250.53199999999998 C 162.6715621207551 249.99791790352168 165.04680228439784 249.27982981463998 167.35700000000003 248.384 C 169.33730073320604 247.61711999390013 171.25222910208106 246.691091937069 173.08300000000003 245.61499999999998 C 174.62858180524088 244.70676924720746 176.09478164880062 243.6697581782969 177.46600000000004 242.515 z M 208.946 272.793 C 208.1630671540828 272.11029029480187 207.3229844086614 271.49603624438623 206.435 270.957 C 205.478 270.372 204.395 269.819 203.184 269.33 C 201.97299999999998 268.84099999999995 200.636 268.413 199.192 268.08 C 196.312 267.40799999999996 192.96800000000002 267.142 189.77 267.387 C 188.2246989793359 267.5017926483584 186.69031098235638 267.7334551498632 185.17999999999998 268.08 C 183.73600000000002 268.413 182.399 268.84 181.18800000000002 269.33 C 180.06164609691996 269.7824776043084 178.97432943860179 270.3266376175608 177.937 270.957 C 176.98000000000002 271.541 176.15200000000002 272.157 175.42600000000002 272.793 C 171.43400000000003 276.404 170.49 280.03000000000003 170.425 283.764 L 170.425 396.647 C 170.425 397.47499999999997 170.48700000000002 398.304 170.613 399.106 C 171.111 402.005 172.237 404.84499999999997 175.455 407.741 C 176.18300000000002 408.381 177.012 409 177.97 409.58799999999997 C 179.00674506866895 410.22168237916514 180.09411706828806 410.768545873283 181.221 411.22299999999996 C 185.281 412.86299999999994 189.895 413.51499999999993 194.59300000000002 413.17099999999994 C 196.18300000000002 413.05099999999993 197.728 412.8109999999999 199.168 412.4769999999999 C 200.608 412.1429999999999 201.942 411.7149999999999 203.15200000000002 411.2229999999999 C 204.36200000000002 410.7319999999999 205.44600000000003 410.1759999999999 206.40300000000002 409.5879999999999 C 207.36 408.99999999999994 208.19000000000003 408.3809999999999 208.918 407.74099999999993 C 212.934 404.09099999999995 213.882 400.4239999999999 213.947 396.64699999999993 L 213.947 283.764 C 213.88400000000001 280.112 212.985 276.445 208.946 272.793 z M 150.705 379.986 L 113.19300000000001 338.947 L 151.04500000000002 298.045 C 156.33 290.855 157.16000000000003 283.671 151.829 276.26300000000003 C 150.8623276186309 275.0021049438508 149.7555674152409 273.8550867154815 148.53 272.84400000000005 C 145.811 270.58200000000005 142.457 268.94300000000004 139.206 268.10100000000006 C 137.54133721454832 267.66420237453286 135.83452015454787 267.40772721230536 134.11499999999998 267.33600000000007 C 132.51631636525332 267.26992311124843 130.91515680410873 267.37552722803247 129.33899999999997 267.65100000000007 C 127.8758441264182 267.9078463365578 126.44413449822062 268.3194921861075 125.06799999999996 268.8790000000001 C 123.7516291991905 269.4164840139644 122.4937389219124 270.08731415118086 121.31399999999996 270.8810000000001 C 120.1449715533099 271.66652271538754 119.05635767148613 272.5655503027152 118.06399999999995 273.5650000000001 C 101.70999999999997 291.24200000000013 85.35799999999996 308.9180000000001 69.00199999999997 326.5940000000001 L 69.11899999999997 283.5970000000001 C 69.06499999999997 280.0100000000001 68.19399999999997 276.4000000000001 64.19099999999997 272.8150000000001 C 63.4144528661514 272.1456656840863 62.581710051376284 271.54444477683404 61.70199999999997 271.0180000000001 C 60.75299999999998 270.44700000000006 59.677999999999976 269.9080000000001 58.47599999999998 269.4320000000001 C 57.27399999999998 268.9560000000001 55.94499999999998 268.54300000000006 54.50899999999998 268.22300000000007 C 51.63799999999998 267.57700000000006 48.30499999999998 267.3380000000001 45.113999999999976 267.6070000000001 C 43.5678741372446 267.73338924733554 42.03350715851173 267.9764142568211 40.52399999999998 268.33400000000006 C 39.15964441592293 268.656099081267 37.82256802789511 269.08440487098034 36.524999999999956 269.61500000000007 C 35.31199999999997 270.11500000000007 34.22399999999997 270.6770000000001 33.26399999999997 271.26900000000006 C 32.30399999999997 271.86100000000005 31.471999999999966 272.48600000000005 30.742999999999967 273.12800000000004 C 26.744999999999965 276.76400000000007 25.770999999999965 280.41800000000006 25.691999999999965 284.17100000000005 L 25.795999999999964 397.0450000000001 C 25.850999999999964 400.58600000000007 26.694999999999965 404.2010000000001 30.550999999999963 407.72600000000006 C 31.294672076034246 408.3805468800912 32.0929083226852 408.9703584906719 32.936999999999955 409.48900000000003 C 33.84299999999996 410.04900000000004 34.86799999999996 410.574 36.01599999999996 411.04200000000003 C 37.164999999999964 411.51000000000005 38.43799999999996 411.92100000000005 39.82799999999996 412.245 C 44.05699999999996 413.226 48.94399999999996 413.342 53.84599999999996 412.254 C 55.266931130436134 411.93815488943545 56.66139660943736 411.5132290625808 58.01699999999996 410.983 C 59.28699999999996 410.483 60.426999999999964 409.918 61.42899999999996 409.324 C 62.35497344952589 408.7782964133354 63.233700716017296 408.15612941079485 64.05599999999995 407.464 C 68.12399999999995 403.922 69.16299999999995 400.343 69.24699999999996 396.71 L 68.93799999999996 352.448 L 117.72299999999996 406.168 C 123.49899999999995 412.041 129.52299999999997 413.402 135.48899999999995 412.772 C 138.30399999999995 412.441 141.40399999999994 411.49399999999997 144.38099999999994 409.808 C 145.84343688298742 408.98041826266467 147.22075919796453 408.0107324402282 148.49299999999994 406.913 C 155.66999999999993 400.486 157.63499999999993 392.807 154.69499999999994 385.78200000000004 C 153.87299999999993 383.88100000000003 152.58299999999994 381.89400000000006 150.70499999999993 379.98600000000005 z M 29.396 248.622 C 29.815 248.97600000000003 30.287 249.311 30.847 249.63000000000002 C 31.408 249.949 32.059000000000005 250.25200000000004 32.858000000000004 250.544 C 33.657000000000004 250.835 34.602000000000004 251.115 36.126000000000005 251.324 C 37.64900000000001 251.532 39.752 251.67100000000002 41.848000000000006 251.67100000000002 L 70.98 251.67100000000002 C 72.95700000000001 251.67100000000002 74.934 251.54000000000002 76.781 251.29100000000003 C 80.617 250.71800000000002 83.63300000000001 249.98800000000003 86.96900000000001 248.14500000000004 C 88.69800000000001 247.17000000000004 90.566 245.81500000000003 92.269 244.28400000000005 C 96.427 240.45300000000006 98.665 236.61100000000005 100.03200000000001 232.77600000000004 C 100.44200000000001 231.60900000000004 100.784 230.37400000000005 101.04400000000001 229.05700000000004 C 101.31829819921921 227.6590929545778 101.48578209107957 226.2423330070645 101.54500000000002 224.81900000000005 C 101.61000000000001 223.29800000000006 101.56400000000002 221.66000000000005 101.34600000000002 219.91500000000005 C 101.12800000000001 218.17000000000004 100.73900000000002 216.31900000000005 100.22800000000002 214.70000000000005 C 99.76207632129149 213.19265763801317 99.11359814866732 211.74793827052008 98.29700000000003 210.39800000000005 C 96.72800000000002 208.09400000000005 94.98500000000003 205.89900000000006 93.56900000000003 204.38800000000006 C 92.15400000000002 202.87600000000006 91.06700000000004 202.04800000000006 89.91500000000003 201.29800000000006 C 88.75814907532109 200.54143498712713 87.54453213624623 199.87545015444474 86.28500000000005 199.30600000000007 C 88.06400000000004 198.11300000000006 89.75800000000004 196.78600000000006 91.05500000000004 195.59400000000008 C 93.47200000000004 193.34800000000007 94.73700000000004 191.4530000000001 95.79000000000003 189.51400000000007 C 96.65479565359831 187.8815947633889 97.26644758610027 186.12722596250265 97.60400000000004 184.31100000000006 C 98.20800000000004 180.76000000000008 98.08800000000004 175.60000000000005 96.54200000000004 171.05900000000005 C 95.80900000000004 168.89500000000007 94.77900000000004 166.88000000000005 93.22900000000004 164.82900000000006 C 92.32860853800337 163.6155830764295 91.27977850753626 162.51972030917014 90.10700000000004 161.56700000000006 C 88.67200000000004 160.38900000000007 86.71300000000004 159.08500000000006 84.65900000000005 157.97100000000006 C 83.48122760432204 157.35247843448857 82.2535778123137 156.83398874031613 80.98900000000003 156.42100000000005 C 79.34004221875752 155.8762141205656 77.6540223027077 155.4507823360004 75.94400000000005 155.14800000000005 C 73.69686648967865 154.74974928901835 71.42939027807557 154.47633011685951 69.15200000000004 154.32900000000006 L 41.74200000000005 154.32900000000006 C 39.95800000000005 154.32900000000006 38.17200000000005 154.47500000000005 36.62800000000005 154.75400000000008 C 35.08500000000005 155.03300000000007 33.78400000000005 155.43800000000007 32.66000000000005 155.93200000000007 C 31.536000000000055 156.42600000000007 30.589000000000052 157.00800000000007 29.771000000000054 157.68100000000007 C 28.96411426809499 158.34053573890432 28.26239956493304 159.11913220675675 27.690000000000055 159.99000000000007 C 26.419000000000054 161.87600000000006 25.835000000000054 164.37200000000007 25.833000000000055 166.86700000000008 L 25.833000000000055 239.35600000000008 C 25.833000000000055 240.06500000000008 25.859000000000055 240.7740000000001 25.927000000000056 241.43400000000008 C 26.234000000000055 243.85100000000008 26.763000000000055 246.30200000000008 29.396000000000058 248.62200000000007 z M 53.848 173.71800000000002 L 60.955999999999996 173.805 C 63.504 173.895 65.89399999999999 174.401 68.209 176.965 C 68.67474326484806 177.51232348671627 69.07355882090047 178.11323244743497 69.397 178.755 C 71.233 182.767 70.717 186.504 68.17200000000001 189.611 C 65.72600000000001 192.20499999999998 63.30300000000001 192.506 60.96500000000001 192.541 L 53.84600000000001 192.45 L 53.84600000000001 173.718 L 53.84800000000001 173.718 z M 53.848 210.49800000000002 L 62.373 210.48300000000003 C 65.206 210.70900000000003 67.849 211.29000000000002 70.382 214.38000000000002 C 70.851 214.99200000000002 71.262 215.68300000000002 71.59400000000001 216.45000000000002 C 71.927 217.21800000000002 72.183 218.06300000000002 72.33500000000001 218.959 C 72.799 221.77100000000002 72.25600000000001 224.592 70.831 226.948 C 70.40193215855916 227.65555698063815 69.88887452609238 228.30863099578733 69.303 228.893 C 66.389 231.651 63.501999999999995 231.954 60.709999999999994 231.802 L 53.84799999999999 231.74099999999999 L 53.84799999999999 210.498 z M 393.678 251.67 L 432.082 251.67 C 434.18399999999997 251.61999999999998 436.287 251.15699999999998 438.40999999999997 248.642 C 441.246 244.792 441.748 240.304 440.277 235.363 C 440.03499999999997 234.643 439.748 233.993 439.435 233.414 C 439.14406268554507 232.87321062853752 438.8053825097372 232.35950107333497 438.423 231.879 C 436.341 229.38 434.245 228.849 432.079 228.784 L 410.41700000000003 228.644 L 410.487 213.502 L 427.651 213.59 C 430.11400000000003 213.53 432.651 213.103 435.176 209.999 C 437.953 206.055 438.524 201.333 436.287 196.267 C 435.98227587682396 195.6436012432879 435.61790930765557 195.05117067264553 435.19899999999996 194.498 C 432.74199999999996 191.45399999999998 430.27099999999996 190.934 427.674 190.861 L 410.26399999999995 190.863 L 410.26399999999995 177.414 L 430.1039999999999 177.462 C 432.3189999999999 177.375 434.59599999999995 176.85299999999998 436.85599999999994 174.654 C 437.32499999999993 174.182 437.7699999999999 173.64 438.17799999999994 173.018 C 440.4339999999999 169.383 441.00399999999996 165.05 439.24799999999993 160.443 C 438.957569806605 159.74086405309106 438.5970797011839 159.0698030111221 438.1719999999999 158.44 C 435.6079999999999 154.925 432.9709999999999 154.42 430.2129999999999 154.326 L 393.67599999999993 154.326 C 391.6819999999999 154.325 389.5999999999999 154.709 387.6289999999999 155.69299999999998 C 386.69721065028784 156.15789781351634 385.8299202378733 156.74214228513512 385.0489999999999 157.43099999999998 C 382.3709999999999 159.83499999999998 381.1799999999999 162.87199999999999 381.1719999999999 165.75799999999998 L 381.2149999999999 239.51999999999998 C 381.2149999999999 240.43599999999998 381.33199999999994 241.35199999999998 381.5799999999999 242.28499999999997 C 381.8259999999999 243.21799999999996 382.2009999999999 244.16899999999995 382.6819999999999 245.05799999999996 C 383.1619999999999 245.94899999999996 383.7459999999999 246.77799999999996 384.3929999999999 247.50899999999996 C 387.3539999999999 250.73499999999996 390.50999999999993 251.62499999999994 393.67799999999994 251.66999999999996 z M 527.432 233.969 L 508.44800000000004 209.676 C 508.48900000000003 209.688 508.53200000000004 209.68699999999998 508.8 209.589 C 509.732 209.306 512.261 207.901 514.234 206.028 C 521.414 198.91 522.5640000000001 191.778 523.1460000000001 184.66299999999998 C 523.613 178.58599999999998 522.3280000000001 172.65099999999998 517.5970000000001 166.28499999999997 C 516.1948914689327 164.4495477225863 514.6004900587708 162.76932487403036 512.8410000000001 161.27299999999997 C 507.7040000000001 156.88799999999998 501.28000000000014 154.31199999999995 495.6850000000001 154.34599999999998 L 459.5850000000001 154.34599999999998 C 457.0050000000001 154.42099999999996 454.3940000000001 154.75799999999998 451.8820000000001 157.777 C 451.5320000000001 158.226 451.18900000000014 158.75199999999998 450.8530000000001 159.391 C 450.5150000000001 160.03199999999998 450.1830000000001 160.786 449.9140000000001 161.81799999999998 C 449.64600000000013 162.85099999999997 449.4370000000001 164.164 449.3480000000001 165.481 L 449.3480000000001 241.582 C 449.3480000000001 242.10399999999998 449.3870000000001 242.62699999999998 449.46500000000015 243.131 C 449.76800000000014 244.928 450.46500000000015 246.711 452.44000000000017 248.49 C 452.88700000000017 248.88500000000002 453.4010000000002 249.269 453.99300000000017 249.632 C 454.58300000000014 249.995 455.25100000000015 250.335 455.9970000000002 250.638 C 458.58700000000016 251.68 461.4950000000002 252.067 464.4850000000002 251.857 C 465.50376365567104 251.78283410093422 466.51557284731695 251.63275074214695 467.51200000000017 251.408 C 468.41991797556545 251.20372277101848 469.3105969037768 250.92923050372812 470.17600000000016 250.587 C 470.92952614112676 250.28972649686233 471.6578815948254 249.9322370661902 472.35400000000016 249.518 C 472.9437081813212 249.166278364296 473.5029881429889 248.76588475537483 474.0260000000002 248.321 C 476.6260000000002 246.033 477.2760000000002 243.724 477.3190000000002 241.374 L 477.3660000000002 214.20499999999998 L 502.45400000000024 247.577 C 503.23500000000024 248.669 504.62400000000025 249.935 505.8990000000002 250.591 C 510.72500000000025 252.931 515.4580000000002 252.086 520.8600000000002 249.08700000000002 C 521.7274497371044 248.57344123512564 522.5587262534422 248.00110334425483 523.3480000000003 247.37400000000002 C 528.4080000000002 243.14300000000003 530.4960000000003 238.39400000000003 527.4320000000002 233.96900000000002 z M 492.127 192.881 C 489.697 195.533 487.301 196.112 484.955 196.332 C 484.47499999999997 196.35999999999999 484.58 196.358 482.86899999999997 196.429 C 481.64799999999997 196.478 479.527 196.562 477.402 196.643 L 477.402 174 C 479.548 174.017 481.697 174.036 482.93899999999996 174.049 C 484.183 174.062 484.52099999999996 174.07 484.734 174.074 C 484.945 174.079 485.029 174.08100000000002 485.11499999999995 174.085 C 487.5679999999999 174.231 489.87699999999995 174.806 492.15799999999996 177.191 C 492.63773616305303 177.7165290547688 493.059499716766 178.2921793105122 493.41599999999994 178.90800000000002 C 496.06399999999996 184.066 495.3179999999999 188.889 492.12699999999995 192.88100000000003 z M 522.721 332.692 C 522.4575503020916 331.7842815419163 522.1138620184431 330.90180247280153 521.694 330.055 C 521.3656916730688 329.3975755060235 520.97168363834 328.77506961441964 520.5179999999999 328.197 C 519.5079999999999 326.94 518.5669999999999 326.259 517.4609999999999 325.662 C 516.7580844555563 325.2950407755816 516.0217448286515 324.9960179075388 515.262 324.769 C 514.4079999999999 324.509 513.42 324.288 512.141 324.132 C 510.6764932491635 323.9639579345301 509.20306567003206 323.8858115035426 507.729 323.898 L 474.061 324.10400000000004 C 470.125 323.90700000000004 466.043 324.48800000000006 462.03 327.72100000000006 C 461.16053801520144 328.44214221145035 460.3691995530429 329.25258541411847 459.669 330.13900000000007 C 458.8991339116487 331.11596328049023 458.2328883027888 332.17029360517483 457.681 333.2850000000001 C 455.82599999999996 337.0370000000001 455.12 341.4330000000001 455.763 345.8570000000001 C 455.9629311006819 347.21278880509226 456.3027439541211 348.5442251627986 456.777 349.8300000000001 C 457.20055432540164 350.98218145569507 457.7466892258185 352.0855147627987 458.406 353.1210000000001 C 461.556 357.7700000000001 464.885 358.9530000000001 468.301 359.58600000000007 C 469.40999999999997 359.7610000000001 470.522 359.90400000000005 471.416 359.9920000000001 C 473.117 360.1550000000001 474.195 360.15600000000006 475.496 360.13200000000006 C 476.2992130884722 360.03847181140753 477.10485263897453 359.9671113545336 477.912 359.91800000000006 C 479.068 359.86800000000005 479.236 359.9170000000001 479.79699999999997 360.22100000000006 C 481.09599999999995 361.46600000000007 480.902 362.3450000000001 481.13899999999995 363.94800000000004 C 481.16599999999994 364.336 481.162 364.66900000000004 481.11799999999994 365.10100000000006 C 480.98499999999996 366.5330000000001 480.13199999999995 369.3190000000001 478.65299999999996 371.6770000000001 C 477.9806308226123 372.39569406083666 477.21319691739984 373.0191289693674 476.37199999999996 373.5300000000001 C 474.395 374.7390000000001 471.98099999999994 375.5770000000001 469.63399999999996 376.0880000000001 C 467.056 376.65100000000007 464.26099999999997 376.9070000000001 461.48199999999997 376.89400000000006 C 459.1152038044854 376.9009273362454 456.75165214693754 376.7183439739051 454.414 376.34800000000007 C 452.3360827171333 376.0217035894471 450.29458371969616 375.4952540448324 448.318 374.77600000000007 C 444.572 373.36100000000005 441.347 371.51000000000005 437.953 368.10400000000004 C 436.258 366.384 434.52099999999996 364.22200000000004 433.01 361.91700000000003 C 430.317 357.71700000000004 428.47499999999997 352.978 427.59999999999997 347.737 C 426.72499999999997 342.49600000000004 426.81699999999995 336.75600000000003 427.91599999999994 331.149 C 429.01499999999993 325.542 431.12499999999994 320.07 434.08599999999996 315.115 C 435.12899999999996 313.349 436.48099999999994 311.69 438.46299999999997 309.995 C 439.5470739990693 309.07945990721606 440.7046464736112 308.25467697678545 441.924 307.529 C 443.4651737115155 306.6115328316998 445.0761447169215 305.8167470118886 446.74199999999996 305.152 C 448.62899999999996 304.39 450.82399999999996 303.671 453.42199999999997 303.066 C 458.717 301.813 465.26 301.231 471.33599999999996 301.82399999999996 C 472.4669999999999 301.95599999999996 473.58799999999997 302.14799999999997 474.90599999999995 302.43499999999995 C 476.22399999999993 302.7219999999999 477.73999999999995 303.10499999999996 481.16599999999994 304.32699999999994 C 484.5899999999999 305.5489999999999 489.9219999999999 307.6089999999999 495.20099999999996 309.78799999999995 C 500.41999999999996 311.65899999999993 505.60499999999996 311.26199999999994 511.025 307.54999999999995 C 512.1564677891123 306.744711064632 513.2064655612816 305.8306938651902 514.16 304.82099999999997 C 518.848 299.712 520.9879999999999 293.335 519.3589999999999 287.275 C 518.8458661532559 285.4678526790092 517.94264934162 283.7952289537577 516.713 282.375 C 516.1051062600907 281.6670430501745 515.4280856525182 281.02151177318683 514.692 280.448 C 510.087 276.794 505.106 273.592 500.671 271.39 C 496.239 269.188 492.355 267.98699999999997 488.337 267.00399999999996 C 484.19043369952914 265.98807859190765 479.9841537202145 265.233593402669 475.74300000000005 264.74499999999995 C 471.16153206725954 264.22314439504896 466.5530144972715 263.97503711626473 461.94199999999995 264.00199999999995 C 455.67955254939056 263.9571016182903 449.4302885254827 264.5826649823058 443.301 265.86799999999994 C 437.27 267.13999999999993 431.51 269.0489999999999 425.99399999999997 271.6479999999999 C 420.476 274.24799999999993 415.19899999999996 277.53899999999993 410.25199999999995 281.66399999999993 C 405.30499999999995 285.78899999999993 400.68799999999993 290.74799999999993 397.12899999999996 295.64899999999994 C 393.57199999999995 300.54999999999995 391.07399999999996 305.39399999999995 389.06699999999995 310.9309999999999 C 387.05699999999996 316.4669999999999 385.53999999999996 322.6979999999999 384.73099999999994 328.94499999999994 C 383.9219999999999 335.19199999999995 383.8229999999999 341.45599999999996 384.31499999999994 347.34899999999993 C 384.80699999999996 353.2419999999999 385.88899999999995 358.76399999999995 387.41099999999994 363.8829999999999 C 388.93299999999994 369.0019999999999 390.8949999999999 373.71899999999994 392.98099999999994 377.79099999999994 C 395.06499999999994 381.8639999999999 397.27399999999994 385.2939999999999 399.6739999999999 388.4239999999999 C 402.0207588367146 391.50219414347265 404.6414617078307 394.36153828497265 407.50399999999996 396.9669999999999 C 410.40178729494903 399.59797930523683 413.54593313227906 401.9441168849934 416.8929999999999 403.97299999999996 C 420.34399999999994 406.06899999999996 424.1489999999999 407.931 428.49799999999993 409.53999999999996 C 432.8499999999999 411.15 437.74799999999993 412.50899999999996 443.58599999999996 413.448 C 449.42599999999993 414.387 456.2049999999999 414.909 462.977 414.89099999999996 C 466.2504099690383 414.88421064054455 469.52216257918735 414.74309191370725 472.78400000000005 414.46799999999996 C 475.964 414.19699999999995 479.01099999999997 413.801 481.932 413.28099999999995 C 484.85300000000007 412.7609999999999 487.653 412.11799999999994 490.334 411.34999999999997 C 493.015 410.582 495.582 409.68999999999994 498.035 408.671 C 500.4557824385352 407.67049123376904 502.8078939636248 406.5113054658297 505.076 405.20099999999996 C 507.3308129327817 403.8992261006413 509.48455094340665 402.42975034482765 511.519 400.80499999999995 C 515.5600000000001 397.6209999999999 519.357 393.24399999999997 521.576 389.13499999999993 C 522.666 387.1189999999999 523.299 385.29299999999995 523.633 383.4069999999999 L 524.065 343.5949999999999 C 524.004 341.17799999999994 523.8230000000001 338.7609999999999 523.585 336.9069999999999 C 523.34 335.05299999999994 523.041 333.7609999999999 522.721 332.69199999999995 z M 369.348 198.442 C 369.1750789109252 197.8461650080287 368.9495242332141 197.26688437432261 368.67400000000004 196.711 C 368.11300000000006 195.51500000000001 366.949 194.33800000000002 365.89500000000004 193.82600000000002 C 365.43390540589667 193.58484316932154 364.9506793968848 193.38860585727653 364.45200000000006 193.24 C 363.21200000000005 192.839 361.37000000000006 192.672 359.50900000000007 192.668 L 337.41100000000006 192.53900000000002 C 334.3450000000001 192.448 331.1550000000001 192.77100000000002 327.98900000000003 196.52700000000002 C 325.62 199.67100000000002 324.90700000000004 203.15900000000002 325.403 207.00900000000001 C 325.54200000000003 207.954 325.774 208.846 326.07300000000004 209.657 C 326.37200000000007 210.46800000000002 326.73900000000003 211.198 327.14900000000006 211.84300000000002 C 329.2130000000001 214.91400000000002 331.39500000000004 215.693 333.6290000000001 216.108 C 334.35600000000005 216.222 335.08600000000007 216.316 335.6740000000001 216.374 C 336.7910000000001 216.481 337.5000000000001 216.482 338.3520000000001 216.466 C 338.9500000000001 216.398 339.5510000000001 216.346 339.9380000000001 216.32500000000002 C 340.7920000000001 216.29000000000002 340.9500000000001 216.329 341.3620000000001 216.68 C 341.9500000000001 217.436 341.9360000000001 217.988 342.05500000000006 218.972 C 342.09200000000004 219.698 342.02000000000004 220.06900000000002 341.82300000000004 220.834 C 341.571 221.742 341.08900000000006 222.997 340.425 224.048 C 337.245 227.02700000000002 333.075 227.4 329.154 227.474 C 327.60059532332326 227.478532159088 326.0493162836947 227.35881715667645 324.515 227.11599999999999 C 320.554 226.433 317.122 225.089 313.71 221.702 C 312.599 220.572 311.45799999999997 219.152 310.46599999999995 217.638 C 308.69599999999997 214.87900000000002 307.489 211.767 306.91499999999996 208.32500000000002 C 306.34099999999995 204.88400000000001 306.39899999999994 201.11200000000002 307.12199999999996 197.43 C 307.85811179691035 193.7132396112875 309.22844854875507 190.15090529045887 311.17299999999994 186.899 C 311.85699999999997 185.74 312.74499999999995 184.65 314.04599999999994 183.537 C 314.7572109934509 182.93552946961876 315.5167817961805 182.39369560769802 316.31699999999995 181.917 C 317.20799999999997 181.383 318.24299999999994 180.855 319.48099999999994 180.355 C 320.71899999999994 179.855 322.15899999999993 179.38299999999998 323.8639999999999 178.986 C 327.33899999999994 178.16299999999998 331.6339999999999 177.78 335.6199999999999 178.171 C 336.3619999999999 178.257 337.09699999999987 178.38299999999998 337.9639999999999 178.572 C 338.8289999999999 178.76 339.82299999999987 179.012 342.0709999999999 179.814 C 344.3189999999999 180.617 347.8189999999999 181.969 351.28399999999993 183.40099999999998 C 355.35999999999996 184.76999999999998 359.31499999999994 184.47899999999998 363.72299999999996 180.14 C 367.18399999999997 176.284 368.71899999999994 171.49399999999997 366.43399999999997 166.887 C 365.91299999999995 165.939 365.20199999999994 165.018 364.07699999999994 164.131 C 361.0539999999999 161.731 357.78399999999993 159.628 354.87399999999997 158.181 C 351.96399999999994 156.73600000000002 349.41499999999996 155.946 346.77599999999995 155.3 C 341.34599999999995 153.955 335.43199999999996 153.29700000000003 329.45399999999995 153.329 C 325.3452629143974 153.3000456804034 321.2452329731998 153.7110544054981 317.2239999999999 154.555 C 313.2629999999999 155.39000000000001 309.4839999999999 156.643 305.86299999999994 158.35 C 302.24199999999996 160.057 298.77899999999994 162.218 295.52899999999994 164.928 C 292.28299999999996 167.637 289.25199999999995 170.895 286.91799999999995 174.115 C 284.58199999999994 177.334 282.941 180.514 281.62499999999994 184.151 C 280.30699999999996 187.787 279.3109999999999 191.87900000000002 278.77899999999994 195.982 C 278.24699999999996 200.08499999999998 278.18299999999994 204.199 278.5059999999999 208.069 C 278.8289999999999 211.93899999999996 279.53899999999993 215.56699999999998 280.5369999999999 218.928 C 281.5369999999999 222.29 282.8239999999999 225.388 284.1929999999999 228.063 C 285.4408151092292 230.5211175893572 286.91200814350293 232.85929354940316 288.5879999999999 235.048 C 290.1288729627407 237.06960701558566 291.8495588769956 238.9476013094749 293.7289999999999 240.659 C 295.63070745680466 242.38671516760166 297.69421196699875 243.92747859691084 299.8909999999999 245.26 C 302.1569999999999 246.636 304.6529999999999 247.85899999999998 307.5079999999999 248.916 C 310.36299999999994 249.973 313.5799999999999 250.865 317.4099999999999 251.482 C 323.0719999999999 252.383 329.8889999999999 252.719 336.56999999999994 252.152 C 338.5821087605204 251.9834947336712 340.5855121972757 251.7235594776365 342.57399999999996 251.373 C 344.43255413732703 251.04529774418046 346.27299294559754 250.62207024891623 348.08799999999997 250.105 C 349.8054426665018 249.61681653552844 351.49325355447587 249.0298389804229 353.143 248.34699999999998 C 354.73192432051286 247.69049236953748 356.275634407173 246.92949440861736 357.76399999999995 246.069 C 359.24459442799173 245.21454099692576 360.65830875545754 244.24911016748115 361.99299999999994 243.18099999999998 C 364.64699999999993 241.08999999999997 367.13899999999995 238.21599999999998 368.5969999999999 235.516 C 369.3139999999999 234.191 369.7279999999999 232.99099999999999 369.9489999999999 231.753 L 370.2319999999999 205.605 C 370.19943481942994 204.1360069999221 370.093971718544 202.669535907224 369.91599999999994 201.21099999999996 C 369.75399999999996 199.993 369.5589999999999 199.14299999999997 369.34799999999996 198.44199999999998 z M 364.297 272.603 C 363.51152931290034 271.91219546956205 362.66733381459534 271.2911780914986 361.774 270.747 C 360.73332166405834 270.10970470722214 359.6415795489005 269.5598198918669 358.51 269.103 C 354.44 267.457 349.807 266.802 345.092 267.152 C 343.5496781325346 267.2689742291397 342.0185523509976 267.50365770045823 340.512 267.854 C 339.153302878493 268.1684130139552 337.8217698247219 268.59041068192585 336.53 269.116 C 335.40514380713927 269.57352235356535 334.32010342554065 270.123401017976 333.28599999999994 270.76 C 332.39922588190655 271.30563450037346 331.56082704045616 271.92623699474314 330.78 272.615 C 326.78 276.284 325.854 279.966 325.813 283.764 L 325.813 332.385 C 312.079 315.95099999999996 298.33799999999997 299.524 290.399 290.022 C 282.46000000000004 280.52 280.321 277.944 278.79200000000003 276.191 C 277.261 274.438 276.341 273.51 275.31300000000005 272.65799999999996 C 274.2850000000001 271.8059999999999 273.15100000000007 271.027 271.903 270.34099999999995 C 270.5963279176159 269.6231401133359 269.224519483601 269.0308215583512 267.80600000000004 268.57199999999995 C 263.06700000000006 267.04799999999994 257.773 266.8279999999999 252.34100000000004 268.20399999999995 C 250.65076668023642 268.6377240484791 249.00695681961153 269.2355644317748 247.43300000000002 269.989 C 246.03436642878742 270.656646044659 244.7091950530199 271.4683721630477 243.47900000000004 272.411 C 238.84200000000004 276.083 237.44700000000003 279.966 237.40900000000005 283.765 L 237.73900000000006 396.634 C 237.74100000000007 397.47200000000004 237.80600000000007 398.309 237.93500000000006 399.118 C 238.44300000000007 402.033 239.56000000000006 404.881 242.79300000000006 407.794 C 243.51800000000006 408.43199999999996 244.34200000000007 409.04699999999997 245.29100000000005 409.63 C 246.24000000000004 410.213 247.31500000000005 410.763 248.51200000000006 411.249 C 252.52200000000005 412.86600000000004 257.0690000000001 413.499 261.6960000000001 413.144 C 263.21703413996124 413.0249679802486 264.72675710603374 412.7899513183467 266.2120000000001 412.44100000000003 C 267.55896525686103 412.1249280527555 268.8787635213429 411.7026059833254 270.1590000000001 411.17800000000005 C 271.2788581473153 410.7192633385254 272.3588704672799 410.1687212887695 273.3880000000001 409.53200000000004 C 274.27401892495357 408.9850513906047 275.11172719851623 408.3634611460842 275.8920000000001 407.67400000000004 C 279.9130000000001 403.987 280.86700000000013 400.27700000000004 280.9310000000001 396.456 L 280.9310000000001 344.62600000000003 L 328.2960000000001 404.42600000000004 C 334.9420000000001 411.98 341.6010000000001 413.52500000000003 348.4070000000001 413.13300000000004 C 351.2080000000001 412.913 354.3030000000001 412.15700000000004 357.2940000000001 410.77500000000003 C 358.7562722054211 410.09926658548875 360.15460556405054 409.29299921810286 361.4720000000001 408.36600000000004 C 366.4190000000001 404.85200000000003 369.0210000000001 400.46500000000003 369.3370000000001 396.648 L 369.3230000000001 283.766 C 369.2700000000001 280.05100000000004 368.3790000000001 276.321 364.2970000000001 272.603 z M 254.65 250.555 C 259.475 252.895 264.208 252.05 269.611 249.05100000000002 C 270.4779616885674 248.5376736305533 271.3085886139333 247.96532289718576 272.097 247.33800000000002 C 277.161 243.10800000000003 279.24899999999997 238.35900000000004 276.183 233.93500000000003 L 257.2 209.641 C 257.24199999999996 209.653 257.284 209.65099999999998 257.55199999999996 209.554 C 258.484 209.27100000000002 261.01399999999995 207.866 262.98499999999996 205.993 C 270.16499999999996 198.874 271.316 191.743 271.89799999999997 184.628 C 272.36299999999994 178.551 271.078 172.61599999999999 266.349 166.25 C 264.94669983910956 164.41437500580338 263.3515787117911 162.7344355419545 261.591 161.23899999999998 C 256.455 156.854 250.032 154.27700000000002 244.437 154.312 L 208.336 154.312 C 205.757 154.387 203.145 154.72500000000002 200.633 157.74300000000002 C 200.28300000000002 158.19200000000004 199.94 158.71800000000002 199.602 159.35700000000003 C 199.19462216733692 160.12613527449423 198.8797629324857 160.9408083693598 198.66400000000002 161.78400000000002 C 198.395 162.817 198.187 164.13000000000002 198.098 165.44700000000003 L 198.098 241.54800000000003 C 198.098 242.07000000000002 198.137 242.59300000000002 198.216 243.09700000000004 C 198.518 244.89400000000003 199.217 246.67700000000005 201.191 248.45600000000005 C 201.639 248.85100000000006 202.153 249.23500000000004 202.743 249.59800000000004 C 203.334 249.96100000000004 204 250.30100000000004 204.74699999999999 250.60400000000004 C 207.337 251.64600000000004 210.24499999999998 252.03400000000005 213.23499999999999 251.82300000000004 C 214.25409352143618 251.74883176074673 215.2662349552778 251.5987487013693 216.26299999999998 251.37400000000002 C 217.17088908317078 251.17004431368647 218.06156714500887 250.8958866520096 218.92699999999996 250.55400000000003 C 219.68002679205654 250.25632297088117 220.40801816915635 249.89884810541508 221.10399999999996 249.48500000000004 C 221.69387008627993 249.13352578027775 222.25317017638622 248.73311776122438 222.77599999999995 248.28800000000004 C 225.37499999999994 246.00000000000003 226.02599999999995 243.69100000000003 226.06899999999996 241.34100000000004 L 226.11499999999995 214.17200000000003 L 251.20299999999995 247.54400000000004 C 251.98599999999993 248.63400000000004 253.37399999999994 249.89900000000003 254.64999999999995 250.55500000000004 z M 240.814 192.70600000000002 C 238.38299999999998 195.359 235.988 195.937 233.643 196.157 C 233.163 196.186 233.267 196.18300000000002 231.556 196.25500000000002 C 230.336 196.30500000000004 228.21300000000002 196.38800000000003 226.09 196.46900000000002 L 226.09 173.82500000000002 C 228.237 173.842 230.38400000000001 173.86100000000002 231.626 173.87400000000002 C 232.869 173.88700000000003 233.208 173.89400000000003 233.42000000000002 173.89900000000003 C 233.63100000000003 173.90300000000002 233.716 173.90600000000003 233.80200000000002 173.90900000000002 C 236.25500000000002 174.056 238.562 174.63000000000002 240.84400000000002 177.01500000000001 C 241.30400000000003 177.518 241.729 178.08900000000003 242.103 178.73200000000003 C 244.75 183.89000000000001 244.005 188.71300000000002 240.81400000000002 192.70600000000002 z" stroke-linecap="round" />
</g>
		<g transform="matrix(4.63 0 0 4.63 1057.27 1181.57)"  >
<path style="stroke: none; stroke-width: 1; stroke-dasharray: none; stroke-linecap: butt; stroke-dashoffset: 0; stroke-linejoin: miter; stroke-miterlimit: 4; fill: rgb(0,0,0); fill-rule: nonzero; opacity: 1;" vector-effect="non-scaling-stroke"  transform=" translate(-498.6, -525.32)" d="M 504.014 524.089 C 504.694 522.6700000000001 504.76800000000003 521.375 504.207 519.5680000000001 C 503.941 518.815 503.236 518.0420000000001 502.59999999999997 517.7040000000001 C 501.885 517.302 501.22299999999996 517.119 500.36199999999997 516.9910000000001 C 499.7851795920252 516.9144647292673 499.20387436369 516.876713297772 498.62199999999996 516.878 L 492.22399999999993 516.878 L 492.22399999999993 533.7560000000001 L 494.76699999999994 533.7560000000001 L 494.76699999999994 526.44 L 497.69699999999995 526.44 L 502.1329999999999 533.7560000000001 L 504.9849999999999 533.7560000000001 L 500.2039999999999 526.3230000000001 C 501.4299999999999 526.1650000000001 503.1369999999999 525.6990000000001 504.0139999999999 524.089 z M 497.812 524.2710000000001 L 494.765 524.2710000000001 L 494.765 519.0450000000001 C 496.86699999999996 519.1310000000001 499.324 518.7330000000001 500.81 519.542 C 502.398 520.551 502.031 522.27 501.419 523.264 C 500.82099999999997 523.943 500.423 524.042 499.464 524.192 C 499.037 524.242 498.424 524.271 497.812 524.271 z" stroke-linecap="round" />
</g>
		<g transform="matrix(4.63 0 0 4.63 1053.6 1181.57)"  >
<path style="stroke: none; stroke-width: 1; stroke-dasharray: none; stroke-linecap: butt; stroke-dashoffset: 0; stroke-linejoin: miter; stroke-miterlimit: 4; fill: rgb(0,0,0); fill-rule: nonzero; opacity: 1;" vector-effect="non-scaling-stroke"  transform=" translate(-497.81, -525.32)" d="M 511.92 520.883 C 511.00615519284867 517.9342461623378 509.1631009628375 515.3601441562811 506.666 513.5450000000001 C 502.635 510.6620000000001 497.883 509.96200000000005 493.187 511.4100000000001 C 491.68100000000004 511.8930000000001 490.248 512.619 488.976 513.5440000000001 C 487.704 514.4690000000002 486.597 515.5920000000001 485.708 516.8370000000001 C 482.976 520.7590000000001 482.39700000000005 525.2440000000001 483.706 529.7170000000001 C 484.149 531.1540000000001 484.821 532.5280000000001 485.708 533.7780000000001 C 486.595 535.0280000000001 487.70200000000006 536.1540000000001 488.97200000000004 537.0810000000001 C 492.96400000000006 539.9410000000001 497.79 540.6870000000001 502.47800000000007 539.2210000000001 C 503.9799567701358 538.7347226328039 505.3947312041473 538.0119757792562 506.66900000000004 537.0800000000002 C 507.9230320028747 536.1577991501972 509.02156200282576 535.0410390887841 509.92300000000006 533.7720000000002 C 512.619 529.8800000000001 513.234 525.3330000000002 511.9200000000001 520.8830000000002 z M 507.438 532.565 C 506.00196049328713 534.6336841673972 503.9240910044593 536.1713497651004 501.526 536.94 C 497.784 538.086 493.969 537.522 490.81100000000004 535.25 C 489.79918932276934 534.5050502762361 488.9158875491163 533.5997926267562 488.196 532.57 C 487.471 531.537 486.911 530.379 486.538 529.142 C 486.165 527.9050000000001 485.97700000000003 526.591 485.97700000000003 525.287 C 485.973 522.7810000000001 486.68 520.205 488.206 518.049 C 488.9323747758319 517.0211328269056 489.8201638937867 516.1174722412658 490.83500000000004 515.3729999999999 C 491.845615847381 514.6360054643994 492.9687865699374 514.0673285260997 494.16100000000006 513.689 C 497.8860000000001 512.5659999999999 501.61400000000003 513.0799999999999 504.80600000000004 515.3729999999999 C 505.81967658217917 516.1181557441953 506.7049746574964 517.0237200860212 507.427 518.054 C 508.15870240442746 519.09592077651 508.7191089938504 520.2481302281367 509.08700000000005 521.467 C 510.21500000000003 525.352 509.6580000000001 529.3149999999999 507.43800000000005 532.5649999999999 z" stroke-linecap="round" />
</g>
</g>
</g>
</svg>