<?xml version="1.0" encoding="UTF-8" standalone="no" ?>
<!DOCTYPE svg PUBLIC "-//W3C//DTD SVG 1.1//EN" "http://www.w3.org/Graphics/SVG/1.1/DTD/svg11.dtd">
<svg xmlns="http://www.w3.org/2000/svg" xmlns:xlink="http://www.w3.org/1999/xlink" version="1.1" width="1080" height="1080" viewBox="0 0 1080 1080" xml:space="preserve">
<desc>Created with Fabric.js 5.2.4</desc>
<defs>
</defs>
<g transform="matrix(1 0 0 1 540 540)" id="27859d02-3e31-428a-a38a-13651877ef56"  >
<rect style="stroke: none; stroke-width: 1; stroke-dasharray: none; stroke-linecap: butt; stroke-dashoffset: 0; stroke-linejoin: miter; stroke-miterlimit: 4; fill: rgb(255,255,255); fill-rule: nonzero; opacity: 1; visibility: hidden;" vector-effect="non-scaling-stroke"  x="-540" y="-540" rx="0" ry="0" width="1080" height="1080" />
</g>
<g transform="matrix(1 0 0 1 540 540)" id="caa04f25-8e2a-407c-84bb-9a55e5e5ad84"  >
</g>
<g transform="matrix(0.51 0 0 0.51 544.31 535.75)"  >
<g style="" vector-effect="non-scaling-stroke"   >
		<g transform="matrix(1 0 0 1 -16.92 157.49)"  >
<path style="stroke: none; stroke-width: 1; stroke-dasharray: none; stroke-linecap: butt; stroke-dashoffset: 0; stroke-linejoin: miter; stroke-miterlimit: 4; fill: rgb(254,254,254); fill-rule: nonzero; opacity: 1;" vector-effect="non-scaling-stroke"  transform=" translate(-864.26, -1025.44)" d="M 702 1198.2 C 703.7 1185.8 711.2 1179.7 717.3 1173.7 C 723.6999999999999 1167.4 730 1160.8 736.1999999999999 1154.2 C 737.9999999999999 1152.2 739.3 1150.7 741.1999999999999 1148.8 L 789.8 1091 C 807 1067.9 821.4 1047.1 837.3 1022.5 C 863.6999999999999 981.7 905.0999999999999 926.2 945.9 898.2 C 956.9 890.7 978.1999999999999 871.6 996 871.5 C 995.2 876.8 992.7 881.8 990 885.5 C 981.8 896.9 957.9 921.8 945.3 937.6 C 939.4 945 934.1999999999999 951.4 928.3 959 C 890.1999999999999 1008.6 861.5 1061.5 823.6999999999999 1107.3 L 805.6999999999999 1127.7 C 801.5999999999999 1131.4 799.4 1133.5 796.0999999999999 1137.3 C 792.5999999999999 1141.3999999999999 789.3 1143.3 785.6999999999999 1146.8999999999999 C 769.3 1163.1 722.4 1194.9 702 1198.2 L 702 1198.2 z M 1094.2 978.8 C 1101.3 869.5 1033 867.9 1015.9000000000001 851.9 C 999.5000000000001 836.5 998.2 826.3 973.0000000000001 806.6999999999999 C 930.8000000000001 773.9 880.3000000000001 783.8 834.7 801.3 C 783 821.0999999999999 739.8000000000001 866.1999999999999 707.4000000000001 909.3 C 676.3000000000001 950.5 645.9000000000001 1008.1999999999999 636.4000000000001 1073.5 C 631.3000000000001 1108.5 633.4000000000001 1146.3 645.4000000000001 1176.6 C 657.8000000000001 1208 674.3000000000001 1225.3999999999999 699.0000000000001 1240.6999999999998 C 753.1000000000001 1274.1 831.1000000000001 1272.1 891.2 1246.7999999999997 C 919.1 1235.0999999999997 945.4000000000001 1218.9999999999998 964.8000000000001 1202.7999999999997 C 967.9000000000001 1200.1999999999998 970.0000000000001 1198.0999999999997 973.0000000000001 1195.7999999999997 C 975.9000000000001 1193.5999999999997 978.0000000000001 1191.1999999999998 980.6000000000001 1188.9999999999998 C 983.7000000000002 1186.3999999999999 985.4000000000001 1184.4999999999998 988.3000000000002 1181.4999999999998 C 990.9000000000002 1178.7999999999997 993.0000000000002 1177.2999999999997 995.8000000000002 1174.5999999999997 C 1001.0000000000002 1169.5999999999997 1005.1000000000001 1164.2999999999997 1010.1000000000001 1159.1999999999996 C 1054.4 1114.2 1089.8 1046.2 1094.2 978.8 L 1094.2 978.8 z" stroke-linecap="round" />
</g>
		<g transform="matrix(1 0 0 1 13.05 -71.26)"  >
<path style="stroke: none; stroke-width: 1; stroke-dasharray: none; stroke-linecap: butt; stroke-dashoffset: 0; stroke-linejoin: miter; stroke-miterlimit: 4; fill: rgb(254,254,254); fill-rule: nonzero; opacity: 1;" vector-effect="non-scaling-stroke"  transform=" translate(-894.23, -796.69)" d="M 1194.4 981 C 1185.2 980.4 1180.8000000000002 968.5 1176.7 961.5 C 1172.1000000000001 953.6 1167.6000000000001 945.1 1163.5 937.1 C 1147.6 906 1125.2 873 1104.3 845.8000000000001 L 1054.1 782.3000000000001 C 1027 747.4000000000001 999.8999999999999 705.9000000000001 983.8 663.8000000000001 C 980.8 655.9000000000001 964.9 609.9000000000001 971.5 603.6 C 976.4 598.9 986.1 616.2 989.3 621.5 C 994 629.1 998.6999999999999 637.3 1003.3 645.1 C 1035.7 699.5 1076.3 747.6 1115.8999999999999 796.6 C 1121.3999999999999 803.4 1126.4999999999998 810.8000000000001 1131.8 818.3000000000001 C 1142.3999999999999 833.3000000000001 1151.5 848.0000000000001 1160.8999999999999 865.2 C 1173.8 888.6 1200.2 948.7 1194.4 981 L 1194.4 981 z M 1106.2 1030.3 C 1166.6000000000001 1041 1205 1025.5 1238 995.6999999999999 C 1264.8 971.4999999999999 1286.2 928.4 1290.1 876.5999999999999 C 1297.8 773.8 1249.3 678.8999999999999 1203 622.1999999999999 C 1196.4 614.0999999999999 1189.3 606.5999999999999 1182.4 599.5999999999999 C 1172.3000000000002 589.4999999999999 1159.8000000000002 578.8 1146.7 571.3 C 1141.7 568.4 1138.2 565.6999999999999 1133.5 562.9 C 1102.2 544 1075.1 533.3 1035.3 532.6999999999999 C 990.4 531.9999999999999 972.3 567.6999999999999 954.8 581.4 C 943.1999999999999 590.5 902.3 596.1 875.5999999999999 630.3 C 863.0999999999999 646.3 854.4999999999999 667.3 852.6999999999999 693.0999999999999 C 849.5999999999999 737.9999999999999 851.4999999999999 731.5999999999999 856.0999999999999 772.3999999999999 C 863.6999999999999 772.3999999999999 876.9999999999999 769.0999999999999 885.1999999999999 767.9999999999999 C 917.4999999999999 763.3999999999999 940.6999999999999 765.2999999999998 968.9 781.0999999999999 C 984.6999999999999 789.9999999999999 995.3 800.5999999999999 1005.6 811.6999999999999 C 1008.6 814.9 1010.9 817.1999999999999 1013.4 820.6999999999999 C 1034 848.4999999999999 1040.3 840.6999999999999 1062 855.3 C 1068.7 859.8 1083.9 873 1088.7 879 C 1097.2 889.5 1101.4 897.1 1106 911.3 C 1123.4 963.8 1105.6 1012.8 1106.2 1030.3 L 1106.2 1030.3 z M 616.8 1060.7 C 616.9 1060.5 617.0999999999999 1060.1000000000001 617.1999999999999 1060.2 L 619.5999999999999 1055.1000000000001 C 624.1999999999999 1041.6000000000001 625.5999999999999 1028.1000000000001 633.3 1007.2000000000002 C 639.9 989.3000000000002 646.3 974.8000000000002 654.5 958.8000000000002 C 657.7 952.6000000000001 664 942.5000000000002 666 935.9000000000002 C 669.7 923.7000000000002 667.2 847.8000000000002 666.5 833.8000000000002 C 664.1 789.1000000000001 661.8 744.2000000000002 667.9 700.0000000000002 C 670.8 679.2000000000003 674.8 662.3000000000002 680.6 643.1000000000003 C 684.1 631.5000000000002 693.7 602.1000000000003 705.3000000000001 597.9000000000002 C 707.6 621.6000000000003 703.7 643.9000000000002 702.1 667.1000000000003 C 699.3000000000001 706.3000000000003 701.4 768.4000000000002 704.3000000000001 808.1000000000003 C 705.1 819.5000000000002 705.9000000000001 831.0000000000002 706.2 842.5000000000002 C 706.5 853.9000000000002 705.3000000000001 867.7000000000003 706 878.3000000000002 C 715.4 870.0000000000002 730.2 853.1000000000001 741.4 842.3000000000002 C 747.9 836.0000000000002 747.9 835.1000000000001 756.3 828.4000000000002 L 764.4 821.3000000000002 C 782.8 806.6000000000001 796.1999999999999 798.3000000000002 818.4 788.0000000000002 C 822.1999999999999 786.2000000000003 836.1999999999999 780.3000000000002 838.1999999999999 778.5000000000002 C 830.9 732.8000000000002 827.5999999999999 686.9000000000002 845.4 645.3000000000002 C 852.1 629.6000000000001 852.8 629.1000000000001 835.1999999999999 608.0000000000002 C 812.3 580.6000000000003 785.1999999999999 561.3000000000002 744.9 566.5000000000002 C 734.9 567.8000000000002 721.6 572.3000000000002 712.8 572.4000000000002 C 696.5 572.7000000000002 681.9 561.5000000000002 647.1999999999999 561.5000000000002 C 597.4999999999999 561.6000000000003 569.5999999999999 591.9000000000002 550.0999999999999 618.0000000000002 C 523.5999999999999 653.4000000000002 512.8 678.9000000000002 504.0999999999999 724.9000000000002 C 488.5999999999999 807.3000000000002 500.4999999999999 910.0000000000002 541.3 981.9000000000002 C 551.8 1000.4000000000002 561.4 1012.8000000000002 573.1999999999999 1026.8000000000002 C 580.7 1035.8 602.3 1054.7 616.8 1060.7 L 616.8 1060.7 z" stroke-linecap="round" />
</g>
		<g transform="matrix(1 0 0 1 -0.9 -1.99)"  >
<path style="stroke: none; stroke-width: 1; stroke-dasharray: none; stroke-linecap: butt; stroke-dashoffset: 0; stroke-linejoin: miter; stroke-miterlimit: 4; fill: rgb(254,254,254); fill-rule: nonzero; opacity: 1;" vector-effect="non-scaling-stroke"  transform=" translate(-880.28, -865.96)" d="M 829.5 57.2 C 859.9 55.2 899.2 55.5 929.7 57.400000000000006 C 1069.3 65.9 1198.7 107.80000000000001 1314.7 180.9 C 1362.2 210.8 1396.7 238.5 1437.2 274.5 C 1439.5 276.6 1441.2 278.8 1443.5 280.9 C 1448.2 285.2 1452.1 288.79999999999995 1456.7 293.29999999999995 L 1487.6000000000001 325.59999999999997 C 1500.9 338.4 1539.9 389.79999999999995 1549.8000000000002 403.5 C 1573.2000000000003 435.8 1587.7000000000003 462.1 1607.3000000000002 498 C 1657.0000000000002 589.1 1688.7000000000003 710.4 1695.4 816.4 C 1703.2 940.6999999999999 1680.7 1061.1 1639 1164.5 C 1629.1 1189 1618.6 1211.3 1607 1234.1 C 1582.5 1282.1 1540.8 1345.6999999999998 1504.8 1386.3999999999999 C 1496.6 1395.6 1489 1404.3 1481.2 1413.1999999999998 C 1479.2 1415.4999999999998 1476.9 1417.2999999999997 1474.8 1419.6 L 1456 1439.3 C 1447.5 1447.6 1439 1455.7 1429.9 1463.7 C 1420.6000000000001 1472 1412.6000000000001 1479.6000000000001 1402.5 1487.5 C 1397.7 1491.3 1393.3 1495.2 1388.4 1499 C 1345.6000000000001 1532.7 1302.4 1561 1249.2 1587.9 C 992.7 1717.3000000000002 687.4000000000001 1702.2 445.9000000000001 1551.3000000000002 C 409.2000000000001 1528.4 361.4000000000001 1493.2000000000003 330.30000000000007 1463.6000000000001 L 316.9000000000001 1451.4 C 312.30000000000007 1447.1000000000001 308.1000000000001 1443.4 303.7000000000001 1439 L 254.9000000000001 1386.1 C 223.7000000000001 1349.8999999999999 195.2000000000001 1309.1 170.7000000000001 1267 C 111.10000000000011 1164.7 73.60000000000011 1047.9 65.0000000000001 915.7 C 50.1 686 134.3 475 277.9 318.1 L 303 292 C 307.6 287.7 311.5 283.8 316.3 279.6 C 318.7 277.5 320.3 275.3 322.7 273.20000000000005 L 356.59999999999997 243.90000000000003 C 365.79999999999995 236.10000000000002 375.2 228.80000000000004 384.7 221.60000000000002 C 420.8 194.3 463.6 166.10000000000002 509.7 143.3 C 606.3 95.9 706.2 65.4 829.5 57.2 L 829.5 57.2 z M 818 39 C 769.8 41 688.2 57 642 70.9 C 589 86.80000000000001 538.6 106.4 493.4 130.3 C 440.79999999999995 158.10000000000002 379.09999999999997 197.3 337.4 234.4 C 335.29999999999995 236.3 332.79999999999995 238.3 330.5 240.3 L 316.9 252.3 C 309.9 257.8 267.7 299.40000000000003 258 311 C 254.1 315.7 249.9 319.7 246 324.6 C 242.2 329.20000000000005 238.2 334.1 234.3 338.5 C 230.5 342.8 226.70000000000002 347.8 222.8 352.6 C 218.8 357.6 215.20000000000002 362.3 211.3 367.5 C 167.9 423.9 125.80000000000001 498.7 99.50000000000001 567.8 C 57.2 678.7 36.8 795.6 46.7 926.9 C 59.5 1096.4 123.9 1251.5 221.5 1375.6 C 229.5 1385.6999999999998 237.2 1394.5 245.1 1404 L 282.6 1444.1 C 286.90000000000003 1448.5 292 1452.8 295.90000000000003 1457.3 C 300.70000000000005 1462.8 304.50000000000006 1465.1 309.1 1469.7 C 311.90000000000003 1472.5 312.90000000000003 1473.6000000000001 315.70000000000005 1475.9 C 318.30000000000007 1478.1000000000001 320.20000000000005 1480.2 322.90000000000003 1482.3000000000002 L 351.1 1506.1000000000001 C 375.3 1526.2 415.5 1554.9 442.40000000000003 1570.9 C 473.20000000000005 1589.2 493.70000000000005 1601.1000000000001 527.2 1615.7 C 533.2 1618.3 539.1 1621.4 545.1 1624.2 C 602.6 1651.3 681.1 1672.7 746 1683.3 C 775.5 1688.1 809.6 1693.2 840.1 1693.3 C 873.1 1693.5 910.8000000000001 1695 943.2 1692.3 C 1092 1679.6 1216.9 1634.8999999999999 1332.6 1562.3 C 1352.3999999999999 1549.8999999999999 1402.6999999999998 1514 1422.3999999999999 1496.1 C 1430.6 1488.6999999999998 1457.8999999999999 1465.3999999999999 1463.1999999999998 1459.3 C 1467.6999999999998 1454.1 1471.6999999999998 1450.7 1476.2999999999997 1446 C 1522.0999999999997 1399.1 1554.3999999999996 1359.1 1590.9999999999998 1301.4 C 1604.5999999999997 1280 1616.3999999999999 1258.6000000000001 1628.5999999999997 1235 C 1652.6999999999996 1188.7 1672.3999999999996 1136.4 1686.6999999999996 1085.1 C 1711.4999999999995 996.4999999999999 1721.0999999999997 897.3999999999999 1714.0999999999997 804.8999999999999 C 1706.3999999999996 702.3999999999999 1680.4999999999998 608.3999999999999 1638.0999999999997 517.5999999999999 C 1610.7999999999997 459.0999999999999 1577.2999999999997 407.2999999999999 1538.2999999999997 357.2999999999999 C 1534.3999999999996 352.3999999999999 1501.6999999999998 312.8999999999999 1496.7999999999997 308.3999999999999 L 1451.3999999999996 262.5999999999999 L 1409.5999999999997 225.89999999999992 C 1390.6999999999996 210.0999999999999 1370.3999999999996 195.49999999999991 1349.9999999999998 181.49999999999991 C 1297.4999999999998 145.2999999999999 1238.3999999999999 116.49999999999991 1178.3999999999999 92.99999999999991 C 1127.1 72.79999999999991 1073.3999999999999 58.099999999999916 1014.8999999999999 48.499999999999915 C 985.1999999999998 43.599999999999916 951.5999999999999 38.69999999999992 920.8999999999999 38.39999999999991 C 886.4 38 852.4 37.6 818 39 L 818 39 z" stroke-linecap="round" />
</g>
		<g transform="matrix(1 0 0 1 -19.7 -2.57)"  >
<path style="stroke: none; stroke-width: 1; stroke-dasharray: none; stroke-linecap: butt; stroke-dashoffset: 0; stroke-linejoin: miter; stroke-miterlimit: 4; fill: rgb(254,254,254); fill-rule: nonzero; opacity: 1;" vector-effect="non-scaling-stroke"  transform=" translate(-861.48, -865.38)" d="M 622.7 221.5 C 640 218.4 656.9000000000001 224 667.9000000000001 232.1 C 677.4000000000001 239.1 686.1000000000001 250.9 688.8000000000001 268.1 C 694.2 302.3 670.3000000000001 329.70000000000005 642.1 334.20000000000005 C 608.3000000000001 339.6 580.7 316.1 576.1 287.80000000000007 C 570.7 253.6 594.9 226.6 622.7 221.5 L 622.7 221.5 z M 624.8 150.1 C 605.1999999999999 151.79999999999998 589.3 155.7 574 163.7 C 529.8 186.7 499.8 234.6 503.6 286.2 C 510.8 383.2 625.6 449.9 719.2 372.9 C 732.3000000000001 362.09999999999997 745.6 341.9 752.3000000000001 325.2 C 771.4000000000001 277.59999999999997 758.3000000000001 215.7 719.0000000000001 183.5 C 715.8000000000001 180.9 713.8000000000001 179.1 710.2000000000002 176.3 C 700.6000000000001 169 691.4000000000002 163.70000000000002 679.6000000000001 158.9 C 663.5 152.4 644 148.4 624.8 150.1 L 624.8 150.1 z M 483.6 1317.6 C 516.9 1313.8999999999999 543.7 1338 547.5 1366.5 C 552.1 1401 528.6 1427.1 499.1 1430.8 C 465 1435.1 438 1411.3999999999999 434.70000000000005 1381.7 C 431.4 1351.8 450.2 1321.3 483.6 1317.6 L 483.6 1317.6 z M 363.3 1378.1 C 365.5 1413.8999999999999 375.8 1432.6999999999998 395.6 1457.6 C 400.70000000000005 1464 413.20000000000005 1474.5 420.8 1479.6 C 473 1514.1 542.2 1506 583.3 1463 C 648.8 1394.5 617.4 1288.3 540.6999999999999 1257.2 C 489.19999999999993 1236.4 431.69999999999993 1248.6000000000001 398.19999999999993 1285.9 C 375.3 1311.6 361.1 1341.2 363.3 1378.1 L 363.3 1378.1 z M 1287.5 409 C 1294.7 401.6 1304.4 395.2 1313.8 388.9 C 1318.5 385.79999999999995 1323 382.7 1327.8 379.7 C 1332.3999999999999 376.7 1336.6 372.8 1341.1 370.4 C 1338.1999999999998 379.9 1330.8999999999999 392.7 1326.1 401.2 C 1323.3999999999999 406.09999999999997 1320.8999999999999 410.3 1318 415.5 C 1315.9 419.4 1312.6 426.2 1309.9 429.4 C 1305.1 426.9 1289.5 412.6 1287.5 409 L 1287.5 409 z M 1136.5 410.8 C 1141.9 419 1171.8 439.3 1181.8 447.3 L 1199.6 460 C 1202.3 461.4 1203.5 459.9 1206.3 458.4 C 1214.5 454 1225.3 447.59999999999997 1234.5 444.79999999999995 C 1237.8 446.59999999999997 1243 451.4 1246.1 454.19999999999993 C 1256.3 462.8999999999999 1270.6 475.5999999999999 1278.6 485.0999999999999 C 1276.8 494.9999999999999 1266.3 508.9999999999999 1263.6 519.4999999999999 L 1293 550.5999999999999 C 1302.9 560.6999999999999 1312.9 570.5999999999999 1323 580.0999999999999 C 1325.9 575.8 1329.1 567.9999999999999 1331.4 562.9999999999999 C 1334.2 557.0999999999999 1337 551.6999999999999 1339.7 545.6999999999999 C 1345.3 533.8 1350.7 522.1999999999999 1356.4 510.29999999999995 C 1367.7 486.49999999999994 1378 463.19999999999993 1389.5 439.29999999999995 C 1402.9 411.19999999999993 1416.5 378.59999999999997 1430.2 351.09999999999997 C 1436.2 339.09999999999997 1425.5 338.4 1410.1000000000001 322.9 L 1368.8000000000002 286.5 C 1364.2000000000003 282.1 1366.0000000000002 281.8 1352.1000000000001 289 C 1346.1000000000001 292.2 1341.1000000000001 295.5 1335.3000000000002 298.6 C 1312.6000000000001 311.1 1291.3000000000002 323.8 1268.8000000000002 336.20000000000005 L 1136.5 410.8 L 1136.5 410.8 z M 538.4 450.6 C 516.3 448.3 491.9 441.1 470.5 440.3 C 466.6 462.90000000000003 449.6 481.8 431.2 488.2 C 403.3 498 379.59999999999997 484.5 368 469.8 C 346.6 442.7 353.9 400.70000000000005 387.9 382.5 C 402.29999999999995 374.7 409.9 377.8 426.4 377.1 C 427.79999999999995 374.5 438.4 313.70000000000005 438.5 308.20000000000005 C 430 304.20000000000005 404 305.40000000000003 394 307.00000000000006 C 299.8 321.40000000000003 250.3 429.70000000000005 311 511.70000000000005 C 324.3 529.7 344.8 544.6 366.3 553.2 C 410.1 570.7 461.1 561.3000000000001 496.70000000000005 531.5 C 516.7 514.6 538.4 482.4 538.4 450.6 L 538.4 450.6 z M 1376.1 1157.6 C 1379.1999999999998 1144.3 1399.8999999999999 1113.1999999999998 1408.1999999999998 1099.5 C 1411.1 1094.8 1417.1999999999998 1085.5 1418.7999999999997 1080.2 C 1408.3999999999996 1075.3 1378.7999999999997 1055.3 1372.2999999999997 1053.3 C 1369.7999999999997 1056.6 1365.6999999999998 1068.1 1363.5999999999997 1072.5 C 1349.2999999999997 1103.3 1332.9999999999998 1135.1 1313.3999999999996 1162.3 C 1309.1999999999996 1168.2 1305.8999999999996 1172.8 1301.4999999999995 1178.3999999999999 C 1297.3999999999996 1183.6999999999998 1294.3999999999996 1187.6 1290.9999999999995 1194.4999999999998 C 1300.4999999999995 1201.1999999999998 1366.2999999999995 1239.2999999999997 1377.2999999999995 1245.6999999999998 C 1406.2999999999995 1262.4999999999998 1434.6999999999996 1279.4999999999998 1463.1999999999996 1296.6 C 1498.1999999999996 1317.6999999999998 1494.9999999999995 1319.8999999999999 1504.9999999999995 1305.8999999999999 C 1521.5999999999995 1282.6999999999998 1544.5999999999995 1247.4999999999998 1557.4999999999995 1221.4999999999998 C 1561.5999999999995 1213.2999999999997 1578.0999999999995 1182.1999999999998 1579.5999999999995 1175.4999999999998 C 1575.8999999999994 1171.9999999999998 1544.8999999999994 1153.2999999999997 1539.1999999999994 1151.3999999999999 C 1536.3999999999994 1156.8999999999999 1531.0999999999995 1164.3 1527.5999999999995 1169.9999999999998 L 1505.6999999999994 1207.2999999999997 C 1501.9999999999993 1213.7999999999997 1497.8999999999994 1219.7999999999997 1494.6999999999994 1225.7999999999997 C 1483.5999999999995 1221.6999999999998 1463.1999999999994 1208.7999999999997 1454.9999999999993 1202.2999999999997 C 1457.0999999999992 1197.5999999999997 1461.7999999999993 1190.0999999999997 1464.5999999999992 1185.3999999999996 C 1469.8999999999992 1176.2999999999997 1492.8999999999992 1138.8999999999996 1493.8999999999992 1133.7999999999997 C 1487.1999999999991 1128.7999999999997 1459.7999999999993 1111.5999999999997 1451.3999999999992 1109.7999999999997 C 1448.2999999999993 1113.2999999999997 1434.5999999999992 1137.9999999999998 1431.1999999999991 1143.9999999999998 C 1425.8999999999992 1153.2999999999997 1416.1999999999991 1169.7999999999997 1409.799999999999 1176.2999999999997 C 1403.6 1175.2 1382.9 1160.2 1376.1 1157.6 L 1376.1 1157.6 z M 323.5 1243.4 C 302 1236.3000000000002 283 1233.1000000000001 272.3 1206.5 C 267.7 1195.1 266.3 1181.3 269.7 1168.6 C 272.4 1158.5 278.9 1147.6999999999998 286.4 1141.3 C 319.59999999999997 1112.8999999999999 370.29999999999995 1126.7 380.9 1172.3 C 382.7 1179.8999999999999 381.7 1185.3 382.7 1192.1 C 405 1195.3999999999999 429.2 1198.3 452 1198.8999999999999 C 457 1135.1999999999998 423.4 1093.9999999999998 386.4 1072.3 C 337.4 1043.6 274.5 1056.3 240.09999999999997 1088 C 177.49999999999997 1145.6 186.49999999999997 1238.9 247.89999999999998 1285.2 C 262.4 1296.1000000000001 292.5 1313.1000000000001 317.7 1311.1000000000001 L 323.5 1243.4 L 323.5 1243.4 z M 1204.9 1335.6 C 1207.6000000000001 1334.1999999999998 1210.9 1330.8999999999999 1213.4 1328.8999999999999 C 1227.2 1317.8 1269.5 1290.8 1272.6000000000001 1286.8 C 1269.9 1280.1 1249.9 1249.3 1244.9 1243.3 C 1237.7 1246.6 1226.6000000000001 1259.2 1221.6000000000001 1263.5 C 1194.6000000000001 1287.1 1161.9 1309.4 1130.1000000000001 1326.4 C 1126.7 1328.2 1114.5000000000002 1334.2 1112.3000000000002 1336.4 C 1114.8000000000002 1344.9 1133.4 1370 1139.4 1378.7 C 1167.1000000000001 1419.5 1194.8000000000002 1462.2 1222.9 1502.5 C 1227.8000000000002 1509.6 1232.2 1516.2 1237.2 1523.4 C 1239.6000000000001 1527 1241.8 1532.4 1245.8 1532.5 C 1248.3999999999999 1532.6 1254.8999999999999 1528.5 1257.3 1527.1 C 1289.8 1508.3 1311.3 1495.3 1341 1472.3999999999999 L 1378.7 1441.3 C 1377.3 1435.1 1370 1425.1 1367 1420.8 L 1353.8 1402.1 C 1343.2 1406.3999999999999 1287.8999999999999 1447.8999999999999 1280.2 1450.6999999999998 C 1276.4 1443.9999999999998 1257.2 1419.4999999999998 1256.9 1413.1999999999998 C 1259.8000000000002 1408.4999999999998 1281.2 1394.4999999999998 1288 1389.8999999999999 C 1296.3 1384.3 1314.2 1372.6 1318.7 1366.8 C 1315.9 1360.1 1297 1332.1 1292.9 1328.3 C 1287.7 1330.3999999999999 1280.2 1335.5 1275.7 1338.3999999999999 C 1270.1000000000001 1341.9999999999998 1265 1345.6 1259.5 1349.3999999999999 C 1253 1353.8999999999999 1232.9 1367.8999999999999 1225.7 1369.8999999999999 C 1220.7 1364.6 1206.2 1343.5 1204.9 1335.6 L 1204.9 1335.6 z M 865 419.8 C 962 416.2 1050.8 444.2 1126.8 493.5 C 1138 500.8 1149.7 509.1 1159.3999999999999 516.9 C 1183.1 535.9 1197.1999999999998 548.1999999999999 1218.1 571 L 1242.5 602.6 C 1294.5 671.8000000000001 1327.1 758.5 1329.9 851.4000000000001 C 1332.2 926.7 1321.9 974.3000000000001 1294.4 1040.9 C 1271.3000000000002 1096.8000000000002 1238 1141.4 1205 1175.6000000000001 C 1174.3 1207.6000000000001 1126.9 1246.1000000000001 1075.3 1270.0000000000002 C 1022.5 1294.4000000000003 961.5 1313.1000000000001 894.3 1313.2000000000003 C 856.3 1313.2000000000003 825.6999999999999 1312.7000000000003 789.4 1305.2000000000003 C 714.8 1289.9000000000003 656.4 1261.0000000000002 597.9 1216.5000000000002 C 586.9 1208.1000000000001 577.6 1199.3000000000002 567.8 1190.5000000000002 C 554.5 1178.5000000000002 538.8 1160.8000000000002 527.1999999999999 1146.3000000000002 C 467.99999999999994 1072.3000000000002 431.49999999999994 981.8000000000002 428.3999999999999 881.0000000000002 C 425.0999999999999 774.4000000000002 461.5999999999999 665.6000000000003 527.3 586.9000000000002 C 536.6999999999999 575.7000000000002 556.6999999999999 553.2000000000002 567.6999999999999 543.3000000000002 C 570.4 540.8000000000002 572.8 539.1000000000001 575.3 536.5000000000002 L 597.8 517.4000000000002 C 671.7 458 765.6 423.5 865 419.8 L 865 419.8 z M 1340.5 881.9 C 1344.8 787.3 1314.8 688.3 1263.8 615 C 1242.8 584.7 1236.1 576.8 1212.5 551.9 C 1147.3 483 1036.7 414.9 895.1 410.09999999999997 C 637.3 401.29999999999995 425.3 603.4 418.3 850.8 C 416.3 922.8 430 985.3 454.5 1044.2 C 470 1081.3 504.6 1137.9 532.7 1167.7 C 546.6 1182.4 560.1 1197.4 575.6 1210.4 C 585.9 1219.1000000000001 596.1 1227.5 607.7 1236 C 678.6 1287.7 770.5 1321.1 864 1323.6 C 976.3 1326.6 1083.1 1291.8999999999999 1167.4 1224.6 L 1197.7 1198.1 C 1269.9 1130.2 1333.8 1028.9 1340.5 881.9 L 1340.5 881.9 z M 819.2 363.1 C 819.4000000000001 363.20000000000005 819.6 363.20000000000005 819.7 363.5 L 843.9000000000001 370.7 C 854.3000000000001 373.8 886.4000000000001 384.4 894.9000000000001 385.4 C 899.7 385.9 912.0000000000001 376.59999999999997 915.5000000000001 374 C 927.4000000000001 364.8 937.9000000000001 354 946.5000000000001 340.2 C 992.3000000000001 267.5 877.9000000000001 214.7 926.8000000000001 146.1 C 935.4000000000001 134 957.6 113.89999999999999 958.3000000000001 112.39999999999999 C 931.4000000000001 110.1 899.8000000000001 107.3 872.7 108.3 C 864.2 108.6 860.6 112.7 853.5 119.3 C 830.9 140.5 817.4 172.7 821.3 205.8 C 824.8 235.5 851.8 256.90000000000003 860 287.3 C 869 320 831.8 352.4 819.2 363.1 L 819.2 363.1 z M 820.9 1435.1 C 823.1999999999999 1430.6999999999998 832.3 1393.1999999999998 832.1999999999999 1387.1 C 793.9 1383.8999999999999 749.3 1374.6999999999998 713.1999999999999 1362.5 L 678.4 1350.1 C 675.1 1357.3 661.6 1413.3 658.5 1425.5 C 654.5 1441.4 622 1574 622.7 1578.7 C 623.3000000000001 1582.4 625.2 1582.3 629.6 1583.6000000000001 C 648.4 1589.4 676.9 1599.4 694.5 1601.6000000000001 C 695.7 1594.2 698.4 1585.2 700.2 1577.6000000000001 C 704.4000000000001 1559.6000000000001 711.9000000000001 1522.6000000000001 718.8000000000001 1509.0000000000002 C 727.1 1506.7000000000003 778.0000000000001 1523.7000000000003 794.1 1524.3000000000002 C 797.2 1512.7000000000003 804.6 1489.2000000000003 804 1477.2000000000003 C 798.9 1474.6000000000004 774.1 1470.0000000000002 766.5 1468.2000000000003 C 754.5 1465.4000000000003 741.7 1461.0000000000002 730.4 1458.6000000000004 C 730.5 1447.3000000000004 737.3 1428.5000000000005 740 1417.2000000000003 C 763.3 1419.3 802.3 1434.8 820.9 1435.1 L 820.9 1435.1 z M 897.9 1388.7 C 899.8 1412.1000000000001 911.6 1479.2 916 1506.3 C 920.1 1531.8 933.5 1603.1 935.2 1622.6 C 953.4000000000001 1623.1999999999998 996.3000000000001 1619.3 1011.1 1613.1999999999998 C 1010 1591.7999999999997 998.1 1556.1999999999998 996.6 1517.2999999999997 C 1008.3000000000001 1516.0999999999997 1021.7 1512.8999999999996 1033.7 1510.9999999999998 C 1045.7 1508.9999999999998 1058.8 1506.7999999999997 1071 1505.5999999999997 C 1070.3 1488.3999999999996 1065.9 1473.0999999999997 1064.4 1456.9999999999998 C 1038.5 1459.5999999999997 1013.7 1466.5999999999997 987.4000000000001 1468.4999999999998 C 977.1000000000001 1422.1999999999998 976.6000000000001 1425.1999999999998 998.9000000000001 1421.5999999999997 C 1014.4000000000001 1419.0999999999997 1031 1417.0999999999997 1046.4 1413.9999999999998 L 1061 1410.0999999999997 L 1052.9 1360.6999999999996 C 1041.8000000000002 1362.9999999999995 1028.5 1367.7999999999995 1016.9000000000001 1370.8999999999996 C 992.8000000000001 1377.2999999999997 965.4000000000001 1382.4999999999995 940.4000000000001 1385.4999999999995 C 925.8 1387.3 912.1 1387.3 897.9 1388.7 L 897.9 1388.7 z M 1038.1 186.2 C 1045.6999999999998 188.79999999999998 1053.1999999999998 190.79999999999998 1060.8 193.1 C 1068.7 195.5 1075.6 198.7 1082.8 200.9 C 1081.2 213 1073.6 232.5 1069.8 244.10000000000002 C 1061.7 268.70000000000005 1049.7 303.8 1040.6 327.70000000000005 C 1037.3 336.40000000000003 1027.1999999999998 362.40000000000003 1027.5 371.40000000000003 C 1032.8 373.8 1039.7 375.3 1045.5 377.3 C 1059.4 382.3 1089.5 393.40000000000003 1101.4 395.5 C 1106.3000000000002 375.6 1134.4 293.8 1142.7 269.7 C 1147.2 256.5 1153.5 241.29999999999998 1157.1000000000001 228 C 1175.7 230.1 1192.4 240.1 1211.0000000000002 242.4 L 1227.9000000000003 188.10000000000002 C 1214.3000000000004 184.40000000000003 1198.1000000000004 177.70000000000002 1184.9000000000003 173.00000000000003 C 1170.4000000000003 167.80000000000004 1155.8000000000004 163.50000000000003 1141.4000000000003 158.10000000000002 C 1127.1000000000004 152.70000000000002 1113.0000000000002 147.70000000000002 1098.7000000000003 142.40000000000003 C 1091.6000000000004 139.80000000000004 1084.9000000000003 137.20000000000005 1077.6000000000004 134.70000000000005 C 1071.5000000000005 132.60000000000005 1061.2000000000003 128.40000000000003 1055.4000000000003 127.30000000000004 C 1053 130.7 1038.8 179.7 1038.1 186.2 L 1038.1 186.2 z M 1481.6 796.1 L 1472 796.1 C 1471.6 787.8000000000001 1471.6 778.7 1471.7 770.6 C 1471.8 764.3000000000001 1470.3 751.3000000000001 1477.2 750.5 C 1484 749.7 1482.9 760.3 1482.9 770.6 C 1482.9 779.4 1482.1 787.5 1481.6 796.1 L 1481.6 796.1 z M 1481.4 809.6 C 1482.1000000000001 813.4 1483.1000000000001 826 1483 830 C 1482.8 837.4 1480.5 842 1474.6 843.6 C 1469.5 833 1471.6999999999998 829.7 1470.1999999999998 817.5 C 1455.6999999999998 814.3 1457.4999999999998 821.1 1457.1999999999998 824.4 C 1456.6 831.1999999999999 1456.4999999999998 838.1 1458.4999999999998 844.5 C 1461.7999999999997 855.1 1477.6999999999998 857.8 1488.6999999999998 852 C 1500.2999999999997 845.9 1497.1 832.3 1497.1999999999998 817.1 C 1497.2999999999997 802.7 1497.4999999999998 788.3000000000001 1497.3999999999999 773.9 C 1497.1999999999998 759.1999999999999 1499.4999999999998 746.6999999999999 1487.6 740.9 C 1478.5 736.4 1460.1999999999998 736.6999999999999 1458.1 750.1 C 1456 763.4 1455.6 777.4 1456.8 790.8000000000001 C 1458.8 811.1 1462.2 808.4 1481.4 809.6 L 1481.4 809.6 z M 229.4 765.7 C 232 770.8000000000001 239.5 838.3000000000001 241.1 850.4000000000001 C 245.5 851.7 252 850.7 257 850.7 L 257 738.5 L 248.4 738.5 L 247 816.6 C 245 812.1 237.7 748.2 236.9 738.4 L 218 739.1999999999999 L 218.1 851.1999999999999 L 229.2 851.0999999999999 L 229.4 765.7 L 229.4 765.7 z M 131.8 843.5 C 127.4 836 128.5 822.2 128.10000000000002 812.9 L 117.60000000000002 813.1 C 116.40000000000002 820.5 116.10000000000002 830.7 117.30000000000003 837.9 C 121.40000000000002 861.4 142.70000000000002 854.9 148.00000000000003 846.8 C 150.90000000000003 842.3 151.20000000000002 828.8 151.10000000000002 822.5999999999999 C 150.70000000000002 791.6999999999999 122.60000000000002 784.3 128.40000000000003 751.8999999999999 C 129.20000000000005 747.4999999999999 131.10000000000002 745.3999999999999 136.00000000000003 745.7999999999998 C 140.00000000000003 750.8999999999999 138.70000000000002 764.3999999999999 138.90000000000003 772.4999999999999 L 151.20000000000005 771.6999999999999 C 151.00000000000006 755.3 151.70000000000005 738.4999999999999 134.10000000000005 737.6999999999999 C 114.80000000000005 736.8 114.60000000000005 754.1999999999999 116.80000000000005 771.3 C 119.80000000000005 795.1999999999999 138.00000000000006 799.3 138.60000000000005 825 C 138.9 832.9 139.2 842.2 131.8 843.5 z M 307.1 820.3 L 306.20000000000005 843.1999999999999 L 298.30000000000007 844.4999999999999 C 297.9000000000001 828.4999999999999 295.70000000000005 758.2999999999998 299.50000000000006 747.8999999999999 L 306.20000000000005 747.1999999999998 L 307.20000000000005 774.2999999999998 L 318.40000000000003 774.5999999999998 C 318.70000000000005 765.7999999999998 319.90000000000003 750.3999999999997 315.6 743.5999999999998 C 310.20000000000005 734.9999999999998 286.1 732.6999999999998 285.8 751.3999999999997 L 285.5 800.9999999999998 C 285.6 811.9999999999998 285.8 822.7999999999997 286.1 833.7999999999997 C 286.3 841.6999999999997 285.3 852.2999999999997 299.90000000000003 853.7999999999997 C 305.1 854.3999999999997 309.90000000000003 853.3999999999997 313.6 850.6999999999997 C 320.40000000000003 845.7999999999997 319.3 830.5999999999997 318.90000000000003 822.3999999999997 C 318.70000000000005 818.4999999999998 318.6 818.5999999999998 314.40000000000003 818.6999999999997 C 311.9 819 309.3 819.3 307.1 820.3 L 307.1 820.3 z M 1523 751 L 1543.3 752.3 C 1541 786.8 1526.7 826.5999999999999 1525.7 853.9 L 1539.1000000000001 853.5 C 1544.4 836.6 1547.3000000000002 815.3 1551.1000000000001 797.4 C 1553.4 786.6999999999999 1563.0000000000002 748.8 1559.5000000000002 739.6 L 1558.3000000000002 739.1 C 1554.1000000000001 738 1525.0000000000002 738.7 1523.1000000000001 739.1 L 1523 751 L 1523 751 z M 1591.9 853.7 L 1607 853.7 L 1607.1 738.2 C 1596.6 738.6 1591.6999999999998 745.1 1586 754 C 1581.9 760.4 1585.6 762.1 1589.1 765.3 C 1593.1999999999998 769 1592 773.5 1592.1 780.4 C 1592.4 804.8 1592 829.2 1591.9 853.7 L 1591.9 853.7 z M 1425.8 738.4 C 1413.8 738.1 1415.8999999999999 739.1 1410.7 745.1 C 1407.6000000000001 748.7 1403.9 752.7 1403.6000000000001 759.7 C 1410.4 763.3000000000001 1411.1000000000001 765.8000000000001 1411.1000000000001 775.5 L 1410.8000000000002 853.2 L 1425.9 853.1 L 1425.8 738.4 L 1425.8 738.4 z M 360.4 782.2 C 358.7 775.7 359 761.3000000000001 359.59999999999997 754.5 C 360.29999999999995 747.2 360.79999999999995 748.6 368.2 747.8 C 375 747.0999999999999 373.3 745.9 373.4 738.5999999999999 L 347.79999999999995 738.5999999999999 C 347.59999999999997 778.0999999999999 347.29999999999995 808.6999999999999 348.19999999999993 847.6999999999999 C 348.3999999999999 854.1999999999999 348.99999999999994 852.9 355.79999999999995 852.9 L 372.4 852.1999999999999 L 372.9 841.8 L 360 840.3 L 359.1 817.3 C 358.5 787.1999999999999 360.5 797.1999999999999 373.1 791.4 L 373.3 783.6999999999999 L 360.4 782.2 z M 179.5 851.2 L 189.9 851 L 189.8 738.1 L 179.3 738.3000000000001 L 179.5 851.2 z M 1450.5 496.1 L 1455.4 496.1 L 1455.7 470.1 L 1464.3 496.1 L 1469.1 496.1 C 1470.1999999999998 494 1477.3 470.8 1477.3 470.3 L 1477.6 496.2 L 1482.3999999999999 496.09999999999997 L 1482.4999999999998 463.79999999999995 L 1474.7999999999997 463.69999999999993 L 1466.8999999999996 488.79999999999995 L 1458.4999999999995 463.79999999999995 L 1450.6999999999996 463.79999999999995 L 1450.5 496.1 L 1450.5 496.1 z M 1420.2 468.3 L 1430.5 468.5 L 1430.9 495.9 L 1436.2 496.09999999999997 L 1436.3 468.49999999999994 L 1446.8999999999999 468.49999999999994 L 1446.8999999999999 464.99999999999994 L 1446.6 463.49999999999994 L 1420.3999999999999 463.59999999999997 L 1420.2 468.3 z" stroke-linecap="round" />
</g>
		<g transform="matrix(1 0 0 1 -0.98 -2.19)"  >
<path style="stroke: none; stroke-width: 1; stroke-dasharray: none; stroke-linecap: butt; stroke-dashoffset: 0; stroke-linejoin: miter; stroke-miterlimit: 4; fill: rgb(132,14,39); fill-rule: nonzero; opacity: 1;" vector-effect="non-scaling-stroke"  transform=" translate(-880.2, -865.76)" d="M 820.9 1435.1 C 802.4 1434.8 763.3 1419.3999999999999 740.1999999999999 1417.3999999999999 C 737.4999999999999 1428.6999999999998 730.8 1447.3999999999999 730.5999999999999 1458.8 C 741.8999999999999 1461.2 754.6999999999999 1465.6 766.6999999999999 1468.3999999999999 C 774.1999999999999 1470.1999999999998 799.0999999999999 1474.8 804.1999999999999 1477.3999999999999 C 804.8 1489.3999999999999 797.4999999999999 1512.8 794.3 1524.4999999999998 C 778.1999999999999 1523.8999999999999 727.4 1506.9999999999998 719 1509.1999999999998 C 712 1522.7999999999997 704.6 1559.7999999999997 700.4 1577.7999999999997 C 698.6 1585.3999999999996 696 1594.2999999999997 694.6999999999999 1601.7999999999997 C 677.0999999999999 1599.5999999999997 648.5999999999999 1589.4999999999998 629.8 1583.7999999999997 C 625.4 1582.4999999999998 623.5 1582.5999999999997 622.9 1578.8999999999996 C 622.1 1574.0999999999997 654.6999999999999 1441.4999999999995 658.6999999999999 1425.6999999999996 C 661.8 1413.4999999999995 675.3 1357.4999999999995 678.5999999999999 1350.2999999999995 L 713.3999999999999 1362.6999999999996 C 749.4999999999999 1374.8999999999996 794.0999999999999 1384.0999999999997 832.3999999999999 1387.2999999999995 C 832.2 1393.2 823.2 1430.6 820.9 1435.1 L 820.9 1435.1 z M 897.9 1388.7 C 912.1999999999999 1387.3 925.9 1387.3 940.4 1385.6000000000001 C 965.4 1382.6000000000001 992.8 1377.4 1016.9 1371.0000000000002 C 1028.5 1367.9000000000003 1041.8 1363.1000000000001 1052.9 1360.8000000000002 L 1061 1410.2000000000003 L 1046.4 1414.1000000000004 C 1030.9 1417.2000000000003 1014.3000000000001 1419.2000000000003 998.9000000000001 1421.7000000000003 C 976.6000000000001 1425.3000000000002 977.1000000000001 1422.3000000000002 987.4000000000001 1468.6000000000004 C 1013.7 1466.7000000000003 1038.5 1459.7000000000003 1064.4 1457.1000000000004 C 1065.9 1473.2000000000003 1070.3000000000002 1488.4000000000003 1071 1505.7000000000003 C 1058.8 1506.9000000000003 1045.7 1509.1000000000004 1033.7 1511.1000000000004 C 1021.7 1513.1000000000004 1008.3000000000001 1516.2000000000003 996.6 1517.4000000000003 C 998 1556.3000000000004 1010 1591.9000000000003 1011.1 1613.3000000000004 C 996.4 1619.4000000000003 953.4 1623.4000000000003 935.2 1622.7000000000005 C 933.5 1603.2000000000005 920.1 1531.8000000000004 916 1506.4000000000005 C 911.6 1479.2 899.7 1412 897.9 1388.7 L 897.9 1388.7 z M 363.3 1378.1 C 361 1341.1999999999998 375.2 1311.6 398.2 1286 C 431.7 1248.7 489.2 1236.5 540.7 1257.3 C 617.4000000000001 1288.3 648.8000000000001 1394.5 583.3000000000001 1463.1 C 542.3000000000001 1506 473.00000000000006 1514.1999999999998 420.80000000000007 1479.6999999999998 C 413.1000000000001 1474.6 400.6000000000001 1464.1999999999998 395.6000000000001 1457.6999999999998 C 375.9 1432.8 365.5 1413.9 363.3 1378.1 L 363.3 1378.1 z M 1204.9 1335.6 C 1206.1000000000001 1343.3999999999999 1220.7 1364.6 1225.8000000000002 1370 C 1233.0000000000002 1368 1253.2000000000003 1354.1 1259.6000000000001 1349.5 C 1265.1000000000001 1345.7 1270.1000000000001 1342.1 1275.8000000000002 1338.5 C 1280.3000000000002 1335.6 1287.8000000000002 1330.6 1293.0000000000002 1328.4 C 1297.1000000000001 1332.2 1316.0000000000002 1360.2 1318.8000000000002 1366.9 C 1314.3000000000002 1372.7 1296.4 1384.4 1288.1000000000001 1390 C 1281.2 1394.6 1259.9 1408.6 1257.0000000000002 1413.3 C 1257.2000000000003 1419.6 1276.5000000000002 1444.1 1280.3000000000002 1450.8 C 1288.0000000000002 1448 1343.3000000000002 1406.5 1353.9 1402.2 L 1367.1000000000001 1420.9 C 1370.2 1425.2 1377.4 1435.2 1378.8000000000002 1441.4 L 1341.1000000000001 1472.5 C 1311.4 1495.4 1289.9 1508.5 1257.4 1527.2 C 1255 1528.6000000000001 1248.5 1532.7 1245.9 1532.6000000000001 C 1241.8000000000002 1532.5000000000002 1239.7 1527.1000000000001 1237.3000000000002 1523.5000000000002 C 1232.3000000000002 1516.3000000000002 1227.9 1509.6000000000001 1223.0000000000002 1502.6000000000001 C 1195.0000000000002 1462.3000000000002 1167.3000000000002 1419.6000000000001 1139.5000000000002 1378.8000000000002 C 1133.6000000000001 1370.1000000000001 1114.9000000000003 1345.0000000000002 1112.4000000000003 1336.5000000000002 C 1114.6000000000004 1334.3000000000002 1126.8000000000004 1328.3000000000002 1130.2000000000003 1326.5000000000002 C 1162.1000000000004 1309.5000000000002 1194.7000000000003 1287.2000000000003 1221.7000000000003 1263.6000000000001 C 1226.7000000000003 1259.3000000000002 1237.8000000000002 1246.7 1245.0000000000002 1243.4 C 1250.0000000000002 1249.4 1269.9000000000003 1280.1000000000001 1272.7000000000003 1286.9 C 1269.5000000000002 1290.9 1227.3000000000002 1317.9 1213.5000000000002 1329 C 1210.9 1331 1207.7 1334.2 1204.9 1335.6 L 1204.9 1335.6 z M 323.5 1243.4 L 317.8 1311 C 292.6 1313 262.5 1296 248 1285.1 C 186.6 1238.8 177.6 1145.5 240.2 1087.8999999999999 C 274.5 1056.3 337.4 1043.6 386.5 1072.1999999999998 C 423.5 1093.7999999999997 457.1 1135.1 452.1 1198.7999999999997 C 429.3 1198.1999999999998 405.1 1195.2999999999997 382.8 1191.9999999999998 C 381.8 1185.1999999999998 382.7 1179.7999999999997 381 1172.1999999999998 C 370.4 1126.6 319.7 1112.7999999999997 286.5 1141.1999999999998 C 279 1147.6 272.5 1158.3999999999999 269.8 1168.4999999999998 C 266.5 1181.1999999999998 267.90000000000003 1194.8999999999999 272.40000000000003 1206.3999999999999 C 282.9 1233.1 302 1236.3 323.5 1243.4 L 323.5 1243.4 z M 1376.1 1157.6 C 1382.8999999999999 1160.1999999999998 1403.6999999999998 1175.1999999999998 1409.8999999999999 1176.5 C 1416.3 1170 1425.9999999999998 1153.5 1431.3 1144.2 C 1434.7 1138.2 1448.3999999999999 1113.5 1451.5 1110 C 1459.8 1111.8 1487.3 1129.1 1494 1134 C 1493.1 1139.1 1470.1 1176.5 1464.7 1185.6 C 1461.9 1190.3 1457.2 1197.8 1455.1000000000001 1202.5 C 1463.3000000000002 1208.9 1483.6000000000001 1221.9 1494.8000000000002 1226 C 1498.0000000000002 1219.9 1502.1000000000001 1213.9 1505.8000000000002 1207.5 L 1527.7000000000003 1170.2 C 1531.2000000000003 1164.5 1536.5000000000002 1157 1539.3000000000002 1151.6000000000001 C 1545.0000000000002 1153.6000000000001 1576.0000000000002 1172.2 1579.7000000000003 1175.7 C 1578.2000000000003 1182.5 1561.7000000000003 1213.5 1557.6000000000004 1221.7 C 1544.7000000000003 1247.7 1521.8000000000004 1282.9 1505.1000000000004 1306.1000000000001 C 1495.1000000000004 1320.1000000000001 1498.3000000000004 1317.9 1463.3000000000004 1296.8000000000002 C 1434.8000000000004 1279.6000000000001 1406.4000000000003 1262.7000000000003 1377.4000000000003 1245.9 C 1366.3000000000004 1239.5 1300.5000000000002 1201.4 1291.1000000000004 1194.7 C 1294.5000000000005 1187.7 1297.5000000000005 1183.9 1301.6000000000004 1178.6000000000001 C 1306.0000000000005 1173.0000000000002 1309.3000000000004 1168.4 1313.5000000000005 1162.5000000000002 C 1333.1000000000004 1135.3000000000002 1349.4000000000005 1103.5000000000002 1363.7000000000005 1072.7000000000003 C 1365.7000000000005 1068.3000000000002 1369.9000000000005 1056.8000000000002 1372.4000000000005 1053.5000000000002 C 1378.9000000000005 1055.5000000000002 1408.5000000000005 1075.5000000000002 1418.9000000000005 1080.4000000000003 C 1417.3000000000006 1085.7000000000003 1411.2000000000005 1095.0000000000002 1408.3000000000006 1099.7000000000003 C 1399.8 1113.2 1379.2 1144.3 1376.1 1157.6 L 1376.1 1157.6 z M 1340.5 881.9 C 1333.8 1028.9 1269.9 1130.1 1197.8 1198 L 1167.5 1224.5 C 1083.1 1291.8 976.3 1326.5 864.1 1323.5 C 770.5 1321 678.7 1287.5 607.8 1235.9 C 596.1999999999999 1227.4 586.0999999999999 1219.1000000000001 575.6999999999999 1210.3000000000002 C 560.3 1197.3000000000002 546.6999999999999 1182.2000000000003 532.8 1167.6000000000001 C 504.69999999999993 1137.9 470.09999999999997 1081.2 454.59999999999997 1044.1000000000001 C 429.99999999999994 985.2000000000002 416.4 922.6000000000001 418.4 850.7000000000002 C 425.4 603.4000000000001 637.4 401.3000000000002 895.2 410.00000000000017 C 1036.9 414.8000000000002 1147.5 482.9000000000002 1212.6 551.8000000000002 C 1236.1999999999998 576.7000000000002 1242.8999999999999 584.7000000000002 1263.8999999999999 614.9000000000002 C 1314.8 688.3 1344.8 787.3 1340.5 881.9 L 1340.5 881.9 z M 179.3 738.3 L 189.8 738.0999999999999 L 189.9 850.9999999999999 L 179.5 851.1999999999999 L 179.3 738.3 z M 1481.4 809.6 C 1462.1000000000001 808.4 1458.7 811.1 1456.9 790.8000000000001 C 1455.7 777.3000000000001 1456.1000000000001 763.4000000000001 1458.2 750.1 C 1460.3 736.7 1478.6000000000001 736.5 1487.7 740.9 C 1499.6000000000001 746.6999999999999 1497.3 759.1999999999999 1497.5 773.9 C 1497.6 788.3 1497.4 802.6999999999999 1497.3 817.1 C 1497.2 832.3000000000001 1500.3999999999999 845.9 1488.8 852 C 1477.8 857.8 1461.8999999999999 855.1 1458.6 844.5 C 1456.6 838.2 1456.6 831.2 1457.3 824.4 C 1457.6 821.1 1455.8999999999999 814.3 1470.3 817.5 C 1471.8 829.6 1469.5 833 1474.7 843.6 C 1480.6000000000001 842 1482.9 837.4 1483.1000000000001 830 C 1483.1 825.9 1482.2 813.4 1481.4 809.6 L 1481.4 809.6 z M 229.1 851 L 218 851.1 L 217.9 739.1 L 236.8 738.3000000000001 C 237.60000000000002 748.0000000000001 245 811.9000000000001 246.9 816.5000000000001 L 248.3 738.4000000000001 L 256.90000000000003 738.4000000000001 L 256.90000000000003 850.6000000000001 C 252.00000000000003 850.7000000000002 245.50000000000003 851.6000000000001 241.00000000000003 850.3000000000002 C 239.40000000000003 838.2000000000002 232.00000000000003 770.7000000000002 229.30000000000004 765.6000000000001 L 229.1 851 L 229.1 851 z M 1591.9 853.7 C 1592 829.2 1592.4 804.8000000000001 1592 780.3000000000001 C 1591.9 773.4000000000001 1593.1 768.9000000000001 1589 765.2 C 1585.5 762 1581.8 760.3000000000001 1585.9 753.9000000000001 C 1591.6000000000001 745.0000000000001 1596.5 738.5000000000001 1607 738.1000000000001 L 1606.9 853.6000000000001 L 1591.9 853.7 L 1591.9 853.7 z M 1425.8 738.4 L 1425.8 853.1999999999999 L 1410.7 853.3 L 1411 775.5999999999999 C 1411 765.8999999999999 1410.2 763.3999999999999 1403.5 759.8 C 1403.8 752.8 1407.5 748.8 1410.6 745.1999999999999 C 1415.9 739.1 1413.8 738.1 1425.8 738.4 L 1425.8 738.4 z M 1523.2 739.2 C 1525.1000000000001 738.7 1554.2 738.1 1558.4 739.2 L 1559.6000000000001 739.7 C 1563.0000000000002 748.9000000000001 1553.4 786.7 1551.2 797.5 C 1547.4 815.4 1544.5 836.7 1539.2 853.6 L 1525.8 854 C 1526.8 826.7 1541.1 786.9 1543.3999999999999 752.4 L 1523 751 L 1523.2 739.2 L 1523.2 739.2 z M 307.1 820.3 C 309.3 819.3 311.90000000000003 819 314.40000000000003 818.9 C 318.6 818.8 318.8 818.6999999999999 318.90000000000003 822.6 C 319.3 830.8000000000001 320.40000000000003 846 313.6 850.9 C 309.8 853.6 305.1 854.6 299.90000000000003 854 C 285.3 852.4 286.40000000000003 841.8 286.1 834 C 285.8 823 285.6 812.2 285.5 801.2 L 285.8 751.6 C 286.1 732.9 310.3 735.3000000000001 315.6 743.8000000000001 C 319.8 750.6 318.6 766.0000000000001 318.40000000000003 774.8000000000001 L 307.20000000000005 774.5000000000001 L 306.20000000000005 747.4000000000001 L 299.50000000000006 748.1000000000001 C 295.70000000000005 758.5000000000001 297.90000000000003 828.7000000000002 298.30000000000007 844.7000000000002 L 306.20000000000005 843.4000000000002 L 307.1 820.3 L 307.1 820.3 z M 360.4 782.2 L 373.29999999999995 783.6 L 373.09999999999997 791.3000000000001 C 360.49999999999994 797.1 358.59999999999997 787.1 359.09999999999997 817.2 L 359.99999999999994 840.2 L 372.8999999999999 841.7 L 372.3999999999999 852.1 L 355.7999999999999 852.8000000000001 C 348.9999999999999 852.8000000000001 348.2999999999999 854.1 348.1999999999999 847.6 C 347.2999999999999 808.6 347.59999999999985 778 347.7999999999999 738.5 L 373.3999999999999 738.5 C 373.19999999999993 745.8 374.8999999999999 747 368.19999999999993 747.7 C 360.8999999999999 748.5 360.29999999999995 747.1 359.5999999999999 754.4000000000001 C 359 761.3 358.7 775.7 360.4 782.2 L 360.4 782.2 z M 131.8 843.5 C 139.20000000000002 842.2 138.9 832.8 138.70000000000002 825 C 138.10000000000002 799.3 119.90000000000002 795.2 116.90000000000002 771.3 C 114.70000000000002 754.1999999999999 114.90000000000002 736.6999999999999 134.20000000000002 737.6999999999999 C 151.70000000000002 738.4999999999999 151.10000000000002 755.4 151.3 771.6999999999999 L 139 772.4999999999999 C 138.9 764.3999999999999 140.1 750.7999999999998 136.1 745.7999999999998 C 131.2 745.3999999999999 129.29999999999998 747.4999999999999 128.5 751.8999999999999 C 122.7 784.2999999999998 150.8 791.6999999999998 151.2 822.5999999999999 C 151.29999999999998 828.8 151 842.3999999999999 148.1 846.8 C 142.79999999999998 854.8 121.5 861.4 117.39999999999999 837.9 C 116.19999999999999 830.6999999999999 116.49999999999999 820.6 117.69999999999999 813.1 L 128.2 812.9 C 128.5 822.2 127.4 836.1 131.8 843.5 z M 1450.8 463.5 L 1458.6 463.5 L 1467 488.5 L 1474.9 463.4 L 1482.6000000000001 463.5 L 1482.5000000000002 495.8 L 1477.7000000000003 495.90000000000003 L 1477.4000000000003 470.00000000000006 C 1477.4000000000003 470.50000000000006 1470.2000000000003 493.70000000000005 1469.2000000000003 495.80000000000007 L 1464.4000000000003 495.80000000000007 L 1455.8000000000004 469.80000000000007 L 1455.5000000000005 495.80000000000007 L 1450.6000000000004 495.80000000000007 L 1450.8 463.5 L 1450.8 463.5 z M 1436.4 468.5 L 1436.3000000000002 496.1 L 1431.0000000000002 495.90000000000003 L 1430.6000000000001 468.50000000000006 L 1420.3000000000002 468.30000000000007 L 1420.6000000000001 463.50000000000006 L 1446.8000000000002 463.40000000000003 L 1447.1000000000001 464.90000000000003 L 1447.1000000000001 468.40000000000003 L 1436.4 468.5 z M 1269.1 336.2 C 1291.6 323.9 1312.8999999999999 311.09999999999997 1335.6 298.59999999999997 C 1341.3999999999999 295.4 1346.3999999999999 292.09999999999997 1352.3999999999999 288.99999999999994 C 1366.3 281.69999999999993 1364.4999999999998 282.09999999999997 1369.1 286.49999999999994 L 1410.3999999999999 322.8999999999999 C 1425.8 338.3999999999999 1436.4999999999998 339.0999999999999 1430.4999999999998 351.0999999999999 C 1416.7999999999997 378.4999999999999 1403.2999999999997 411.19999999999993 1389.7999999999997 439.2999999999999 C 1378.3999999999996 463.1999999999999 1367.9999999999998 486.4999999999999 1356.6999999999998 510.2999999999999 C 1351.1 522.1999999999999 1345.6 533.8 1339.9999999999998 545.6999999999999 C 1337.1999999999998 551.6999999999999 1334.4999999999998 556.9999999999999 1331.6999999999998 562.9999999999999 C 1329.2999999999997 567.9999999999999 1326.1999999999998 575.7999999999998 1323.2999999999997 580.0999999999999 C 1313.0999999999997 570.5999999999999 1303.1999999999998 560.6999999999999 1293.2999999999997 550.5999999999999 L 1263.8999999999996 519.4999999999999 C 1266.6999999999996 508.9999999999999 1277.0999999999997 494.9999999999999 1278.8999999999996 485.0999999999999 C 1270.8999999999996 475.69999999999993 1256.4999999999995 462.8999999999999 1246.3999999999996 454.19999999999993 C 1243.1999999999996 451.49999999999994 1237.9999999999995 446.69999999999993 1234.7999999999997 444.79999999999995 C 1225.5999999999997 447.59999999999997 1214.6999999999998 453.99999999999994 1206.5999999999997 458.4 C 1203.7999999999997 459.9 1202.5999999999997 461.4 1199.8999999999996 460 L 1182.0999999999997 447.3 C 1171.9999999999998 439.40000000000003 1142.0999999999997 419 1136.7999999999997 410.8 L 1269.1 336.2 L 1269.1 336.2 z M 538.4 450.6 C 538.4 482.40000000000003 516.6999999999999 514.6 496.7 531.3000000000001 C 461.09999999999997 561.1 410.1 570.5000000000001 366.29999999999995 553.0000000000001 C 344.79999999999995 544.4000000000001 324.29999999999995 529.5000000000001 310.99999999999994 511.5000000000001 C 250.29999999999995 429.5000000000001 299.69999999999993 321.2000000000001 393.99999999999994 306.8000000000001 C 403.99999999999994 305.3000000000001 429.99999999999994 304.10000000000014 438.49999999999994 308.0000000000001 C 438.49999999999994 313.5000000000001 427.79999999999995 374.3000000000001 426.3999999999999 376.9000000000001 C 409.8999999999999 377.6000000000001 402.2999999999999 374.5000000000001 387.8999999999999 382.30000000000007 C 353.8999999999999 400.6000000000001 346.5999999999999 442.6000000000001 367.99999999999994 469.6000000000001 C 379.59999999999997 484.30000000000007 403.29999999999995 497.80000000000007 431.19999999999993 488.00000000000006 C 449.69999999999993 481.50000000000006 466.5999999999999 462.6000000000001 470.49999999999994 440.1000000000001 C 491.8 441.1 516.3 448.3 538.4 450.6 L 538.4 450.6 z M 624.8 150.1 C 644 148.4 663.5 152.29999999999998 679.5999999999999 158.79999999999998 C 691.3999999999999 163.6 700.5999999999999 168.89999999999998 710.1999999999999 176.2 C 713.8 179 715.8 180.79999999999998 718.9999999999999 183.39999999999998 C 758.2999999999998 215.59999999999997 771.3999999999999 277.59999999999997 752.2999999999998 325.09999999999997 C 745.5999999999998 341.79999999999995 732.2999999999998 361.99999999999994 719.1999999999998 372.79999999999995 C 625.6999999999998 449.79999999999995 510.79999999999984 383.09999999999997 503.5999999999998 286.09999999999997 C 499.7999999999998 234.49999999999997 529.7999999999998 186.69999999999996 573.9999999999998 163.59999999999997 C 589.4 155.7 605.3 151.8 624.8 150.1 L 624.8 150.1 z M 1038.1 186.2 C 1038.8 179.79999999999998 1053.1 130.7 1055.3999999999999 127.39999999999999 C 1061.1999999999998 128.39999999999998 1071.3999999999999 132.6 1077.6 134.79999999999998 C 1084.8 137.29999999999998 1091.6 139.89999999999998 1098.6999999999998 142.49999999999997 C 1112.9999999999998 147.79999999999998 1127.1 152.79999999999998 1141.3999999999999 158.19999999999996 C 1155.8 163.59999999999997 1170.3999999999999 167.99999999999997 1184.8999999999999 173.09999999999997 C 1198.1 177.79999999999995 1214.3 184.49999999999997 1227.8999999999999 188.19999999999996 L 1210.9999999999998 242.49999999999994 C 1192.3999999999999 240.19999999999993 1175.5999999999997 230.19999999999993 1157.0999999999997 228.09999999999994 C 1153.4999999999998 241.39999999999995 1147.2999999999997 256.5999999999999 1142.6999999999996 269.79999999999995 C 1134.3999999999996 293.9 1106.2999999999995 375.69999999999993 1101.3999999999996 395.59999999999997 C 1089.4999999999995 393.49999999999994 1059.2999999999997 382.29999999999995 1045.4999999999995 377.4 C 1039.6999999999996 375.29999999999995 1032.7999999999995 373.9 1027.4999999999995 371.5 C 1027.1999999999996 362.5 1037.2999999999995 336.6 1040.5999999999995 327.8 C 1049.6999999999994 303.90000000000003 1061.6999999999994 268.8 1069.7999999999995 244.20000000000002 C 1073.5999999999995 232.60000000000002 1081.1999999999996 213.10000000000002 1082.7999999999995 201 C 1075.5999999999995 198.8 1068.7999999999995 195.5 1060.7999999999995 193.2 C 1053.2 190.8 1045.7 188.8 1038.1 186.2 L 1038.1 186.2 z M 819.2 363.1 C 831.9000000000001 352.40000000000003 869 320 860.1 287.20000000000005 C 851.9 256.90000000000003 824.9 235.50000000000006 821.4 205.70000000000005 C 817.5 172.60000000000005 831.1 140.30000000000004 853.6 119.20000000000005 C 860.7 112.60000000000005 864.2 108.50000000000004 872.8000000000001 108.20000000000005 C 899.9000000000001 107.20000000000005 931.4000000000001 110.00000000000004 958.4000000000001 112.30000000000004 C 957.6000000000001 113.80000000000004 935.5000000000001 133.90000000000003 926.9000000000001 146.00000000000006 C 877.9000000000001 214.60000000000005 992.4000000000001 267.4000000000001 946.6000000000001 340.1 C 937.9000000000001 353.90000000000003 927.4000000000001 364.70000000000005 915.6000000000001 373.90000000000003 C 912.2000000000002 376.50000000000006 899.8000000000002 385.90000000000003 895.0000000000001 385.3 C 886.5000000000001 384.40000000000003 854.5000000000001 373.7 844.0000000000001 370.6 L 819.8000000000001 363.40000000000003 C 819.6 363.2 819.4 363.3 819.2 363.1 L 819.2 363.1 z M 829.5 57.2 C 706.2 65.4 606.3 95.9 509.7 143.4 C 463.5 166.1 420.79999999999995 194.3 384.7 221.7 C 375.2 228.89999999999998 365.8 236.2 356.59999999999997 244 L 322.7 273.3 C 320.3 275.40000000000003 318.7 277.6 316.3 279.7 C 311.5 283.9 307.6 287.7 303 292.09999999999997 L 277.9 318.2 C 134.3 475 50.1 686 65.1 915.8 C 73.69999999999999 1048 111.19999999999999 1164.8 170.8 1267.1 C 195.3 1309.1999999999998 223.8 1350 255 1386.1999999999998 L 303.8 1439.1 C 308.2 1443.5 312.40000000000003 1447.3 317 1451.5 L 330.4 1463.7 C 361.5 1493.2 409.29999999999995 1528.5 446 1551.4 C 687.5 1702.2 992.8 1717.4 1249.3 1588 C 1302.5 1561.2 1345.7 1532.8 1388.5 1499.1 C 1393.4 1495.1999999999998 1397.8 1491.3999999999999 1402.6 1487.6 C 1412.6 1479.6999999999998 1420.6999999999998 1472.1 1430 1463.8 C 1439 1455.8 1447.6 1447.7 1456.1 1439.3999999999999 L 1474.8999999999999 1419.6999999999998 C 1476.9999999999998 1417.3999999999999 1479.3 1415.6999999999998 1481.3 1413.2999999999997 C 1489 1404.3999999999996 1496.7 1395.6999999999998 1504.8999999999999 1386.4999999999998 C 1540.8999999999999 1345.7999999999997 1582.6 1282.1999999999998 1607.1 1234.1999999999998 C 1618.6999999999998 1211.3999999999999 1629.3 1189.1 1639.1 1164.6 C 1680.6999999999998 1061.1 1703.3 940.8 1695.5 816.4999999999999 C 1688.8 710.4999999999999 1657.2 589.1999999999998 1607.4 498.0999999999999 C 1587.8000000000002 462.19999999999993 1573.3000000000002 435.8999999999999 1549.9 403.5999999999999 C 1540 389.8999999999999 1501 338.4999999999999 1487.7 325.69999999999993 L 1456.8 293.3999999999999 C 1452.3 288.8999999999999 1448.3 285.2999999999999 1443.6 280.99999999999994 C 1441.3 278.8999999999999 1439.6 276.59999999999997 1437.3 274.59999999999997 C 1396.8999999999999 238.59999999999997 1362.3 210.89999999999998 1314.8 180.99999999999997 C 1198.8 107.99999999999997 1069.3999999999999 66.09999999999997 929.8 57.49999999999997 C 899.2 55.5 859.9 55.2 829.5 57.2 L 829.5 57.2 z" stroke-linecap="round" />
</g>
		<g transform="matrix(1 0 0 1 -1.67 -1.55)"  >
<path style="stroke: none; stroke-width: 1; stroke-dasharray: none; stroke-linecap: butt; stroke-dashoffset: 0; stroke-linejoin: miter; stroke-miterlimit: 4; fill: rgb(132,14,39); fill-rule: nonzero; opacity: 1;" vector-effect="non-scaling-stroke"  transform=" translate(-879.51, -866.4)" d="M 1094.2 978.8 C 1089.8 1046.2 1054.5 1114.2 1010.2 1159.3 C 1005.2 1164.3 1001.1 1169.7 995.9000000000001 1174.7 C 993.1000000000001 1177.4 991.0000000000001 1179 988.4000000000001 1181.6000000000001 C 985.5000000000001 1184.6000000000001 983.9000000000001 1186.5000000000002 980.7 1189.1000000000001 C 978 1191.3000000000002 976 1193.7 973.1 1195.9 C 970.1 1198.2 968 1200.2 964.9 1202.9 C 945.5 1219.1000000000001 919.1999999999999 1235.2 891.3 1246.9 C 831.1999999999999 1272.1000000000001 753.1999999999999 1274.2 699.0999999999999 1240.8000000000002 C 674.3999999999999 1225.5000000000002 657.8999999999999 1208.2000000000003 645.4999999999999 1176.7000000000003 C 633.4999999999999 1146.3000000000002 631.3999999999999 1108.5000000000002 636.4999999999999 1073.6000000000004 C 645.8999999999999 1008.3000000000004 676.3999999999999 950.7000000000004 707.4999999999999 909.4000000000003 C 739.8999999999999 866.3000000000003 783.0999999999999 821.3000000000003 834.7999999999998 801.4000000000003 C 880.3999999999999 783.9000000000003 930.8999999999999 774.0000000000003 973.0999999999999 806.8000000000003 C 998.3 826.3000000000003 999.4999999999999 836.5000000000003 1015.9999999999999 852.0000000000003 C 1032.9 867.9 1101.3 869.4 1094.2 978.8 z M 1106.2 1030.3 C 1105.6000000000001 1012.8 1123.4 963.8 1106.2 911.0999999999999 C 1101.6000000000001 896.8999999999999 1097.4 889.3 1088.9 878.8 C 1084 872.8 1068.9 859.6999999999999 1062.2 855.0999999999999 C 1040.4 840.4999999999999 1034.2 848.3 1013.6 820.4999999999999 C 1011 816.9999999999999 1008.7 814.7999999999998 1005.8000000000001 811.4999999999999 C 995.6 800.4999999999999 984.9000000000001 789.7999999999998 969.1 780.8999999999999 C 941 765.0999999999999 917.7 763.1999999999998 885.4 767.7999999999998 C 877.1 768.9999999999999 863.8 772.1999999999998 856.3 772.1999999999998 C 851.6999999999999 731.3999999999999 849.8 737.7999999999998 852.9 692.8999999999999 C 854.6999999999999 667.0999999999999 863.3 646.0999999999999 875.8 630.0999999999999 C 902.5 595.8999999999999 943.4 590.3 955 581.1999999999999 C 972.5 567.4999999999999 990.7 531.9 1035.5 532.4999999999999 C 1075.3 533.0999999999999 1102.4 543.7999999999998 1133.7 562.6999999999999 C 1138.4 565.4999999999999 1141.8 568.3 1146.9 571.0999999999999 C 1160 578.5999999999999 1172.5 589.3999999999999 1182.6000000000001 599.3999999999999 C 1189.6000000000001 606.3999999999999 1196.6000000000001 613.8999999999999 1203.2 621.9999999999999 C 1249.5 678.6999999999999 1298 773.5999999999999 1290.3 876.3999999999999 C 1286.3999999999999 928.1999999999998 1265 971.2999999999998 1238.2 995.4999999999999 C 1205 1025.5 1166.6 1041.1 1106.2 1030.3 L 1106.2 1030.3 z M 616.8 1060.7 C 602.3 1054.7 580.6999999999999 1035.8 573.3 1027.1000000000001 C 561.4 1013.2000000000002 551.8 1000.7000000000002 541.4 982.2000000000002 C 500.59999999999997 910.3000000000002 488.7 807.6000000000001 504.2 725.2000000000002 C 512.8 679.2000000000002 523.7 653.7000000000002 550.2 618.3000000000002 C 569.7 592.2000000000002 597.6 562.0000000000002 647.3000000000001 561.8000000000002 C 682.0000000000001 561.7000000000002 696.7 572.9000000000002 712.9000000000001 572.7000000000002 C 721.7 572.6000000000001 735.0000000000001 568.1000000000001 745.0000000000001 566.8000000000002 C 785.3000000000001 561.6000000000001 812.3000000000001 580.9000000000002 835.3000000000001 608.3000000000002 C 852.9000000000001 629.3000000000002 852.2 629.8000000000002 845.5000000000001 645.6000000000001 C 827.7000000000002 687.2000000000002 830.9000000000001 733.0000000000001 838.3000000000001 778.8000000000002 C 836.3000000000001 780.6000000000001 822.3000000000001 786.5000000000002 818.5000000000001 788.3000000000002 C 796.4000000000001 798.5000000000002 783.0000000000001 806.9000000000002 764.5000000000001 821.6000000000001 L 756.4000000000001 828.7000000000002 C 747.9000000000001 835.4000000000002 748.0000000000001 836.3000000000002 741.5000000000001 842.6000000000001 C 730.3000000000001 853.4000000000001 715.4000000000001 870.3000000000002 706.1000000000001 878.6000000000001 C 705.4000000000001 868.1000000000001 706.6000000000001 854.2000000000002 706.3000000000002 842.8000000000002 C 706.0000000000002 831.3000000000002 705.3000000000002 819.8000000000002 704.4000000000002 808.4000000000002 C 701.5000000000002 768.7000000000002 699.4000000000002 706.6000000000003 702.2000000000002 667.4000000000002 C 703.9000000000002 644.2000000000002 707.7000000000002 621.8000000000002 705.4000000000002 598.2000000000002 C 693.8000000000002 602.4000000000002 684.3000000000002 631.8000000000002 680.7000000000002 643.4000000000002 C 674.9000000000002 662.5000000000002 670.8000000000002 679.5000000000002 668.0000000000001 700.3000000000002 C 661.9000000000001 744.5000000000002 664.2000000000002 789.4000000000002 666.6000000000001 834.1000000000001 C 667.3000000000002 848.0000000000001 669.9000000000001 924.0000000000001 666.1000000000001 936.2000000000002 C 664.1000000000001 942.8000000000002 657.8000000000002 953.0000000000001 654.6000000000001 959.1000000000001 C 646.4000000000001 975.1000000000001 640.0000000000001 989.6000000000001 633.4000000000001 1007.5000000000001 C 625.7 1028.4 624.3000000000001 1041.9 619.7 1055.4 L 617.3000000000001 1060.5 C 617.1 1060.1 616.9 1060.5 616.8 1060.7 L 616.8 1060.7 z M 865 419.8 C 765.5 423.5 671.7 457.90000000000003 598.1 517.5 L 575.6 536.6 C 573.1 539.2 570.7 540.9 568 543.4 C 557.1 553.3 537 575.8 527.6 587 C 462 665.7 425.5 774.5 428.70000000000005 881.1 C 431.80000000000007 981.9 468.30000000000007 1072.4 527.5 1146.4 C 539.1 1160.9 554.8 1178.7 568.1 1190.6000000000001 C 577.8000000000001 1199.3000000000002 587.1 1208.2 598.2 1216.6000000000001 C 656.6 1261.1000000000001 715.1 1290.0000000000002 789.7 1305.3000000000002 C 826 1312.7000000000003 856.6 1313.3000000000002 894.6 1313.3000000000002 C 961.8000000000001 1313.3000000000002 1022.8 1294.6000000000001 1075.6 1270.1000000000001 C 1127.1 1246.2 1174.5 1207.7 1205.3 1175.7 C 1238.2 1141.4 1271.6 1096.9 1294.7 1041 C 1322.2 974.4 1332.5 926.8 1330.2 851.5 C 1327.4 758.5 1294.8 671.9 1242.8 602.7 L 1218.3999999999999 571.1 C 1197.3999999999999 548.3000000000001 1183.3 536 1159.6999999999998 517 C 1149.9999999999998 509.2 1138.2999999999997 500.9 1127.1 493.6 C 1050.8 444.3 962 416.3 865 419.8 L 865 419.8 z" stroke-linecap="round" />
</g>
		<g transform="matrix(1 0 0 1 0 0)"  >
<path style="stroke: none; stroke-width: 1; stroke-dasharray: none; stroke-linecap: butt; stroke-dashoffset: 0; stroke-linejoin: miter; stroke-miterlimit: 4; fill: rgb(132,14,39); fill-rule: nonzero; opacity: 1;" vector-effect="non-scaling-stroke"  transform=" translate(-881.18, -867.95)" d="M 818 39 C 852.4 37.6 886.4 38 920.9 38.3 C 951.6999999999999 38.599999999999994 985.1999999999999 43.5 1014.9 48.4 C 1073.4 58 1127.1 72.8 1178.4 92.9 C 1238.3000000000002 116.5 1297.5 145.2 1350 181.4 C 1370.3 195.4 1390.7 210.1 1409.6 225.8 L 1451.3999999999999 262.5 L 1496.8 308.3 C 1501.7 312.8 1534.5 352.3 1538.3 357.2 C 1577.3 407.2 1610.8 459 1638.1 517.5 C 1680.6 608.3 1706.3999999999999 702.4 1714.1 804.8 C 1721.1 897.3 1711.5 996.4 1686.6999999999998 1085 C 1672.2999999999997 1136.3 1652.6 1188.6 1628.6 1234.9 C 1616.3 1258.5 1604.5 1280 1591 1301.3000000000002 C 1554.4 1359.0000000000002 1522.1 1399.1000000000001 1476.3 1445.9 C 1471.7 1450.6000000000001 1467.7 1453.9 1463.2 1459.2 C 1457.9 1465.3 1430.6000000000001 1488.6000000000001 1422.4 1496 C 1402.6000000000001 1514 1352.4 1549.8 1332.6000000000001 1562.2 C 1217.0000000000002 1634.8 1092.0000000000002 1679.5 943.2000000000002 1692.2 C 910.8000000000002 1695 873.2000000000002 1693.4 840.1000000000001 1693.2 C 809.7000000000002 1693.1000000000001 775.5000000000001 1688 746.0000000000001 1683.2 C 681.1000000000001 1672.6000000000001 602.6000000000001 1651.2 545.1000000000001 1624.1000000000001 C 539.1000000000001 1621.3000000000002 533.2000000000002 1618.2 527.2000000000002 1615.6000000000001 C 493.60000000000014 1601.0000000000002 473.20000000000016 1589.1000000000001 442.40000000000015 1570.8000000000002 C 415.50000000000017 1554.8000000000002 375.3000000000002 1526.1000000000001 351.10000000000014 1506.0000000000002 L 322.90000000000015 1482.2000000000003 C 320.3000000000001 1480.1000000000004 318.40000000000015 1477.9000000000003 315.70000000000016 1475.8000000000002 C 312.90000000000015 1473.5000000000002 311.90000000000015 1472.4 309.10000000000014 1469.6000000000001 C 304.5000000000001 1465.0000000000002 300.70000000000016 1462.7 295.90000000000015 1457.2 C 292.00000000000017 1452.7 287.00000000000017 1448.4 282.60000000000014 1444 L 245.10000000000014 1403.9 C 237.20000000000013 1394.4 229.50000000000014 1385.6000000000001 221.50000000000014 1375.5 C 123.90000000000015 1251.4 59.50000000000014 1096.3 46.70000000000013 926.8 C 36.80000000000013 795.5 57.20000000000013 678.5999999999999 99.40000000000013 567.6999999999999 C 125.70000000000013 498.5999999999999 167.80000000000013 423.79999999999995 211.20000000000013 367.3999999999999 C 215.20000000000013 362.2999999999999 218.80000000000013 357.49999999999994 222.70000000000013 352.49999999999994 C 226.60000000000014 347.59999999999997 230.30000000000013 342.69999999999993 234.20000000000013 338.3999999999999 C 238.10000000000014 333.99999999999994 242.10000000000014 329.0999999999999 245.90000000000012 324.49999999999994 C 249.90000000000012 319.69999999999993 254.1000000000001 315.59999999999997 257.9000000000001 310.8999999999999 C 267.6000000000001 299.2999999999999 309.80000000000007 257.5999999999999 316.80000000000007 252.19999999999993 L 330.4000000000001 240.19999999999993 C 332.80000000000007 238.29999999999993 335.30000000000007 236.19999999999993 337.30000000000007 234.29999999999993 C 379.00000000000006 197.19999999999993 440.6000000000001 157.99999999999994 493.30000000000007 130.19999999999993 C 538.5000000000001 106.29999999999993 589.0000000000001 86.69999999999993 641.9000000000001 70.79999999999993 C 688.2 57 769.8 41 818 39 L 818 39 z M 878.5 1735.9 C 924.4 1735.9 966.2 1732.7 1008.6 1726.8000000000002 C 1081.9 1716.5000000000002 1152.9 1695.8000000000002 1221.6 1668.5000000000002 C 1240.6 1660.9000000000003 1258.8999999999999 1652.2000000000003 1277.3 1643.4000000000003 L 1312.8 1624.5000000000002 C 1338.5 1610.2000000000003 1363 1594.5000000000002 1387.3 1578.2000000000003 L 1456.5 1525.0000000000002 C 1458.1 1523.6000000000001 1458.4 1523.7000000000003 1460.1 1522.2000000000003 L 1478.1999999999998 1505.9000000000003 C 1487.6 1498.7000000000003 1519.1999999999998 1467.1000000000004 1526.1 1459.3000000000004 L 1548.5 1434.5000000000005 C 1550.2 1432.7000000000005 1550.2 1432.3000000000004 1551.7 1430.5000000000005 C 1564.1000000000001 1415.8000000000004 1576.4 1401.3000000000004 1587.9 1385.9000000000005 C 1612.7 1352.7000000000005 1643.1000000000001 1308.1000000000006 1661.9 1270.2000000000005 C 1665 1264.0000000000005 1668 1258.8000000000004 1671.2 1252.3000000000004 C 1674.4 1246.0000000000005 1676.8 1240.2000000000005 1680 1233.9000000000003 C 1719.6 1155.2000000000003 1749 1044.5000000000002 1757.2 959.7000000000003 C 1757.9 952.3000000000003 1759.4 942.5000000000002 1759.5 934.8000000000003 C 1759.7 922.8000000000003 1761.6 908.3000000000003 1761.9 896.4000000000003 C 1762.3000000000002 883.6000000000004 1762.7 845.7000000000003 1761.3000000000002 835.3000000000003 L 1760.3000000000002 815.5000000000003 C 1756.3000000000002 736.2000000000004 1738.6000000000001 650.5000000000003 1711.6000000000001 578.5000000000003 C 1710.7 576.0000000000003 1710.0000000000002 573.6000000000004 1709.2 571.3000000000003 C 1702.2 551.8000000000003 1694.3 532.0000000000003 1685.4 513.5000000000003 C 1677.7 497.4000000000003 1670.6000000000001 480.60000000000036 1661.5 465.4000000000003 C 1658.9 461.1000000000003 1657 456.8000000000003 1654.5 452.4000000000003 C 1651.8 447.6000000000003 1649.7 443.9000000000003 1647 439.1000000000003 C 1644.4 434.5000000000003 1642.1 430.9000000000003 1639.5 426.6000000000003 C 1619.2 392.70000000000033 1603.7 371.9000000000003 1580.9 341.1000000000003 C 1572.3000000000002 329.4000000000003 1562.5 319.0000000000003 1553.6000000000001 307.6000000000003 C 1547.6000000000001 300.0000000000003 1540.7 293.3000000000003 1534.5000000000002 285.9000000000003 L 1483.3000000000002 234.6000000000003 C 1481.2000000000003 232.7000000000003 1480.2000000000003 232.3000000000003 1478.1000000000001 230.2000000000003 C 1476.2 228.3000000000003 1475.0000000000002 226.9000000000003 1472.8000000000002 225.1000000000003 L 1411.1000000000001 174.8000000000003 C 1357.2 133.9000000000003 1297.4 100.60000000000029 1235.5000000000002 73.5000000000003 C 1198.3000000000002 57.2000000000003 1156.8000000000002 42.300000000000296 1114.6000000000001 31.1000000000003 C 1048.1 13.6 968.4 0.4 900.1 0.8 C 893.4 0.8 888.4 0 880.9 0 C 864.1999999999999 0 847.8 1.4 831.1999999999999 1.6 C 826.6999999999999 1.6 826.0999999999999 2.4000000000000004 821.5999999999999 2.5 C 798.8 2.6 770.1999999999999 7.2 747.8 10.3 C 723.5 13.700000000000001 701.3 18.6 678.5 23.4 C 668 25.6 657 29 646.1 31.7 C 640.3000000000001 33.1 635.8000000000001 34.5 630.5 36.1 L 599.3 45.7 C 565.3 57 529.2 70.9 497.3 87 L 457 107.5 C 430.1 121.1 392.5 144.6 368.6 162.3 L 311.3 206.60000000000002 C 309.5 208.20000000000002 307.5 209.8 305.6 211.3 C 292.5 221.9 279.6 233.5 267.70000000000005 245.4 C 255.90000000000003 257.2 243.10000000000005 268.6 232.50000000000006 281.4 L 208 308.3 C 193.3 324.1 175.5 348.3 162.9 365.6 C 151.20000000000002 381.5 140.6 397.6 130.10000000000002 414.40000000000003 L 100.30000000000003 466.20000000000005 C 92.60000000000002 479.00000000000006 86.90000000000002 493.50000000000006 80.10000000000002 506.80000000000007 L 70.50000000000003 527.6 C 55.70000000000003 559.2 40.10000000000003 607.5 30.60000000000003 641.3000000000001 C 27.50000000000003 652.2 24.50000000000003 663.3000000000001 22.20000000000003 674.5000000000001 C 12.700000000000031 720.3000000000001 4.000000000000032 769.3000000000001 1.500000000000032 817.0000000000001 C -5.2 938 11.8 1057 54.6 1168.8 C 56.6 1174.1 58 1178.1 60.1 1183.3 C 69.9 1207.7 80.7 1231 92.30000000000001 1254.3 C 103.4 1276.6 115.20000000000002 1298.6 128.70000000000002 1319.5 L 153.20000000000002 1356.6 C 166.00000000000003 1375.5 190.8 1409.1999999999998 206.40000000000003 1425.8999999999999 C 216.20000000000005 1436.4999999999998 225.00000000000003 1447.6999999999998 235.20000000000005 1457.8999999999999 C 237.10000000000005 1459.8 238.50000000000006 1461.1999999999998 240.40000000000003 1463.1 C 246.80000000000004 1469.6 253.20000000000005 1477.6 260.40000000000003 1483.8999999999999 C 262.70000000000005 1485.8999999999999 263.70000000000005 1486.3999999999999 266.00000000000006 1488.6999999999998 L 281.6000000000001 1503.4999999999998 C 283.50000000000006 1505.3999999999999 284.9000000000001 1506.9999999999998 286.9000000000001 1508.5999999999997 L 378.9000000000001 1580.6999999999996 L 428.7000000000001 1612.4999999999995 C 450.6000000000001 1625.5999999999995 483.8000000000001 1644.1999999999996 509.0000000000001 1654.5999999999995 L 537.4000000000001 1667.0999999999995 C 542.0000000000001 1668.8999999999994 546.8000000000001 1670.6999999999994 551.7 1672.8999999999994 C 554.4000000000001 1674.0999999999995 556.6 1674.7999999999995 559.2 1675.7999999999995 C 658.9 1715.5 769.4 1735.9 878.5 1735.9 L 878.5 1735.9 z" stroke-linecap="round" />
</g>
		<g transform="matrix(1 0 0 1 77.47 -41.99)"  >
<path style="stroke: none; stroke-width: 1; stroke-dasharray: none; stroke-linecap: butt; stroke-dashoffset: 0; stroke-linejoin: miter; stroke-miterlimit: 4; fill: rgb(132,14,39); fill-rule: nonzero; opacity: 1;" vector-effect="non-scaling-stroke"  transform=" translate(-958.65, -825.96)" d="M 971.5 603.6 C 964.9 609.9 980.8 655.9 983.8 663.8000000000001 C 1000 706.0000000000001 1027 747.4000000000001 1054.1 782.3000000000001 L 1104.3 845.8000000000001 C 1125.2 873.0000000000001 1147.6 905.9000000000001 1163.5 937.1 C 1167.6 945.2 1172.2 953.7 1176.7 961.5 C 1180.8 968.6 1185.2 980.4 1194.4 981 C 1200.3000000000002 948.7 1173.8000000000002 888.7 1161 865.1 C 1151.6 847.9 1142.5 833.2 1131.9 818.2 C 1126.6000000000001 810.7 1121.5 803.4000000000001 1116 796.5 C 1076.3 747.5 1035.8 699.4 1003.4 645 C 998.6999999999999 637.2 994 629 989.4 621.4 C 986.1 616.2 976.4 598.9 971.5 603.6 L 971.5 603.6 z M 702 1198.2 C 722.3 1194.9 769.3 1163 785.6 1146.8 C 789.2 1143.2 792.5 1141.3 796 1137.2 C 799.3 1133.4 801.5 1131.4 805.6 1127.6000000000001 L 823.6 1107.2 C 861.4 1061.4 890 1008.5 928.2 958.9000000000001 C 934 951.3000000000001 939.3000000000001 944.8000000000001 945.2 937.5000000000001 C 957.8000000000001 921.7000000000002 981.8000000000001 896.8000000000001 989.9000000000001 885.4000000000001 C 992.6000000000001 881.7 995.1000000000001 876.7 995.9000000000001 871.4000000000001 C 978.0000000000001 871.5000000000001 956.7 890.6000000000001 945.8000000000001 898.1000000000001 C 905.0000000000001 926.1000000000001 863.6 981.6000000000001 837.2 1022.4000000000001 C 821.2 1047 806.9000000000001 1067.8000000000002 789.7 1090.9 L 741.1 1148.7 C 739.2 1150.6000000000001 738 1152.2 736.1 1154.1000000000001 C 730 1160.7 723.6 1167.3000000000002 717.2 1173.6000000000001 C 711.2 1179.7 703.7 1185.9 702 1198.2 L 702 1198.2 z M 622.7 221.5 C 594.9000000000001 226.5 570.7 253.5 576.2 287.8 C 580.7 316.1 608.3000000000001 339.7 642.2 334.2 C 670.4000000000001 329.7 694.3000000000001 302.3 688.9000000000001 268.1 C 686.2 250.90000000000003 677.6000000000001 239.10000000000002 668.0000000000001 232.10000000000002 C 656.9 224 640 218.4 622.7 221.5 L 622.7 221.5 z M 483.6 1317.6 C 450.20000000000005 1321.3 431.40000000000003 1351.8 434.70000000000005 1381.6999999999998 C 438.00000000000006 1411.3999999999999 465.00000000000006 1434.9999999999998 499.1 1430.7999999999997 C 528.6 1427.0999999999997 552.1 1401.0999999999997 547.5 1366.4999999999998 C 543.7 1338 516.9 1313.8 483.6 1317.6 L 483.6 1317.6 z M 1287.5 409 C 1289.5 412.7 1305.2 427 1309.9 429.4 C 1312.6000000000001 426.09999999999997 1315.9 419.29999999999995 1318 415.5 C 1320.8 410.3 1323.3 406.1 1326.1 401.2 C 1330.8999999999999 392.7 1338.1999999999998 379.9 1341.1 370.4 C 1336.6 372.79999999999995 1332.3999999999999 376.79999999999995 1327.8 379.7 C 1323 382.8 1318.5 385.8 1313.8 388.9 C 1304.3 395.2 1294.6 401.6 1287.5 409 L 1287.5 409 z M 1481.6 796.1 C 1482.1999999999998 787.5 1482.8999999999999 779.4 1482.8999999999999 770.7 C 1482.8999999999999 760.4000000000001 1483.9999999999998 749.8000000000001 1477.1999999999998 750.6 C 1470.2999999999997 751.4 1471.7999999999997 764.4 1471.6999999999998 770.7 C 1471.6 778.8000000000001 1471.6 787.8000000000001 1471.9999999999998 796.2 L 1481.6 796.1 L 1481.6 796.1 z" stroke-linecap="round" />
</g>
</g>
</g>
</svg>