<?xml version="1.0" encoding="UTF-8" standalone="no" ?>
<!DOCTYPE svg PUBLIC "-//W3C//DTD SVG 1.1//EN" "http://www.w3.org/Graphics/SVG/1.1/DTD/svg11.dtd">
<svg xmlns="http://www.w3.org/2000/svg" xmlns:xlink="http://www.w3.org/1999/xlink" version="1.1" width="1080" height="1080" viewBox="0 0 1080 1080" xml:space="preserve">
<desc>Created with Fabric.js 5.2.4</desc>
<defs>
</defs>
<g transform="matrix(1 0 0 1 540 540)" id="764deab8-a113-4f88-ac45-6604845b4eb6"  >
</g>
<g transform="matrix(1 0 0 1 540 540)" id="fd51b577-91b5-4c31-aecf-bc56a2617b27"  >
<rect style="stroke: none; stroke-width: 1; stroke-dasharray: none; stroke-linecap: butt; stroke-dashoffset: 0; stroke-linejoin: miter; stroke-miterlimit: 4; fill: rgb(255,255,255); fill-rule: nonzero; opacity: 1; visibility: hidden;" vector-effect="non-scaling-stroke"  x="-540" y="-540" rx="0" ry="0" width="1080" height="1080" />
</g>
<g transform="matrix(0.36 0 0 0.36 540 540)"  >
<g style="" vector-effect="non-scaling-stroke"   >
		<g transform="matrix(71.69 0 0 71.69 0.06 0.06)"  >
<path style="stroke: none; stroke-width: 1; stroke-dasharray: none; stroke-linecap: butt; stroke-dashoffset: 0; stroke-linejoin: miter; stroke-miterlimit: 4; fill: rgb(35,96,165); fill-rule: nonzero; opacity: 1;" vector-effect="non-scaling-stroke"  transform=" translate(-17.44, -17.44)" d="M 17.438 0 C 17.114640641033017 -0.0012814504023616335 16.80422147820193 0.1269195031566486 16.576 0.35599999999999965 L 0.356 16.575 C -0.11899657897780302 17.051513353133917 -0.11899657897780319 17.822486646866082 0.35599999999999987 18.299 L 16.575000000000003 34.519 C 16.804000000000002 34.748 17.111000000000004 34.873999999999995 17.437 34.873999999999995 C 17.762999999999998 34.873999999999995 18.07 34.748 18.299 34.519 L 34.518 18.299 C 34.7464668064918 18.070857921984867 34.87427881889782 17.76086878767055 34.873 17.438 C 34.87454615624008 17.114785050854866 34.746713739591335 16.80438633775284 34.518 16.576 L 18.299 0.356 C 18.071276354451797 0.1267875082191288 17.761101050922523 -0.0014615139137643118 17.438 1.1102230246251565e-16 z" stroke-linecap="round" />
</g>
		<g transform="matrix(71.69 0 0 71.69 0.16 0.1)"  >
<path style="stroke: none; stroke-width: 1; stroke-dasharray: none; stroke-linecap: butt; stroke-dashoffset: 0; stroke-linejoin: miter; stroke-miterlimit: 4; fill: rgb(255,255,255); fill-rule: nonzero; opacity: 1;" vector-effect="non-scaling-stroke"  transform=" translate(-17.44, -17.44)" d="M 34.386 16.708 C 34.788043122104476 17.11085253496321 34.788043122104476 17.763147465036784 34.386 18.165999999999997 L 18.167 34.385999999999996 C 17.973000000000003 34.57899999999999 17.714000000000002 34.687 17.438000000000002 34.687 C 17.162000000000003 34.687 16.903000000000002 34.58 16.709000000000003 34.385999999999996 L 0.489 18.166 C 0.295 17.973 0.188 17.714 0.188 17.437 C 0.188 17.160000000000004 0.294 16.901 0.489 16.708000000000002 L 16.708 0.488 C 16.901999999999997 0.295 17.160999999999998 0.188 17.436999999999998 0.188 C 17.712999999999997 0.188 17.971999999999998 0.295 18.165999999999997 0.488 L 34.385999999999996 16.708 z" stroke-linecap="round" />
</g>
		<g transform="matrix(71.69 0 0 71.69 -308.8 -312.06)"  >
<path style="stroke: none; stroke-width: 1; stroke-dasharray: none; stroke-linecap: butt; stroke-dashoffset: 0; stroke-linejoin: miter; stroke-miterlimit: 4; fill: rgb(207,64,55); fill-rule: nonzero; opacity: 1;" vector-effect="non-scaling-stroke"  transform=" translate(-13.13, -13.08)" d="M 9.041 8.907 L 1.218 16.73 C 0.8532576977531516 17.09636273437516 0.8532576977531516 17.68863726562484 1.218 18.055 L 8.155999999999999 24.993 C 8.522705119185229 25.35785798508531 9.11529488081477 25.35785798508531 9.482 24.993 L 17.304 17.171 L 9.040999999999999 8.907 z M 16.774 1.173 L 9.527 8.421 L 17.790999999999997 16.685 L 25.038999999999998 9.436999999999998 C 25.40276684661463 9.069845202882323 25.40276684661463 8.478154797117671 25.038999999999998 8.110999999999997 L 18.101 1.1729999999999974 C 17.733503581425904 0.8091161616018856 17.141496418574096 0.8091161616018856 16.774 1.1729999999999974 z" stroke-linecap="round" />
</g>
		<g transform="matrix(71.69 0 0 71.69 -830 3.17)"  >
<circle style="stroke: none; stroke-width: 1; stroke-dasharray: none; stroke-linecap: butt; stroke-dashoffset: 0; stroke-linejoin: miter; stroke-miterlimit: 4; fill: rgb(255,255,255); fill-rule: nonzero; opacity: 1;" vector-effect="non-scaling-stroke"  cx="0" cy="0" r="2.033" />
</g>
		<g transform="matrix(71.69 0 0 71.69 -405.4 9.47)"  >
<circle style="stroke: none; stroke-width: 1; stroke-dasharray: none; stroke-linecap: butt; stroke-dashoffset: 0; stroke-linejoin: miter; stroke-miterlimit: 4; fill: rgb(255,255,255); fill-rule: nonzero; opacity: 1;" vector-effect="non-scaling-stroke"  cx="0" cy="0" r="2.033" />
</g>
		<g transform="matrix(71.69 0 0 71.69 12.74 -624.16)"  >
<circle style="stroke: none; stroke-width: 1; stroke-dasharray: none; stroke-linecap: butt; stroke-dashoffset: 0; stroke-linejoin: miter; stroke-miterlimit: 4; fill: rgb(255,255,255); fill-rule: nonzero; opacity: 1;" vector-effect="non-scaling-stroke"  cx="0" cy="0" r="2.033" />
</g>
		<g transform="matrix(71.69 0 0 71.69 312.15 308.91)"  >
<path style="stroke: none; stroke-width: 1; stroke-dasharray: none; stroke-linecap: butt; stroke-dashoffset: 0; stroke-linejoin: miter; stroke-miterlimit: 4; fill: rgb(35,96,165); fill-rule: nonzero; opacity: 1;" vector-effect="non-scaling-stroke"  transform=" translate(-21.79, -21.75)" d="M 25.437 9.835 L 9.88 25.392 C 9.515142014914689 25.75870511918523 9.515142014914689 26.35129488081477 9.88 26.718 L 16.818 33.656 C 17.18470511918523 34.02085798508531 17.77729488081477 34.02085798508531 18.144000000000002 33.656 L 33.701 18.098999999999997 C 34.065195173840294 17.73241151709667 34.065195173840294 17.140588482903325 33.701 16.773999999999997 L 26.763 9.835999999999999 C 26.396797081719647 9.470316955001138 25.803754059556443 9.469869712902977 25.437 9.834999999999999 z" stroke-linecap="round" />
</g>
		<g transform="matrix(71.69 0 0 71.69 -321.91 676.31)"  >
<path style="stroke: none; stroke-width: 1; stroke-dasharray: none; stroke-linecap: butt; stroke-dashoffset: 0; stroke-linejoin: miter; stroke-miterlimit: 4; fill: rgb(255,255,255); fill-rule: nonzero; opacity: 1;" vector-effect="non-scaling-stroke"  transform=" translate(-12.95, -26.87)" d="M 13.781 28.974 L 10.854000000000001 26.047 L 11.672 25.229 C 12.537 24.364 13.933 24.724 14.775 26.249 C 15.166 26.956 15.123000000000001 27.633 14.627 28.128999999999998 L 13.781 28.973999999999997 z" stroke-linecap="round" />
</g>
		<g transform="matrix(71.69 0 0 71.69 -309.21 665.8)"  >
<path style="stroke: none; stroke-width: 1; stroke-dasharray: none; stroke-linecap: butt; stroke-dashoffset: 0; stroke-linejoin: miter; stroke-miterlimit: 4; fill: rgb(35,96,165); fill-rule: nonzero; opacity: 1;" vector-effect="non-scaling-stroke"  transform=" translate(-13.12, -26.72)" d="M 13.554 26.478 C 12.813 25.649 12.346 26.05 12.346 26.05 L 13.793 27.496000000000002 C 13.793 27.497000000000003 14.152 27.149 13.553999999999998 26.478 z" stroke-linecap="round" />
</g>
		<g transform="matrix(71.69 0 0 71.69 -114.14 534.9)"  >
<path style="stroke: none; stroke-width: 1; stroke-dasharray: none; stroke-linecap: butt; stroke-dashoffset: 0; stroke-linejoin: miter; stroke-miterlimit: 4; fill: rgb(255,255,255); fill-rule: nonzero; opacity: 1;" vector-effect="non-scaling-stroke"  transform=" translate(-15.84, -24.9)" d="M 14.868 25.868 C 14.293000000000001 25.293 14.209 24.549 14.623000000000001 23.99 C 15.184000000000001 23.244 16.119 23.233999999999998 16.811 23.926 C 17.454 24.561999999999998 17.495 25.398 16.919 25.973 C 16.34 26.551 15.507000000000001 26.506999999999998 14.868 25.868 z" stroke-linecap="round" />
</g>
		<g transform="matrix(71.69 0 0 71.69 -114.59 534.07)"  >
<path style="stroke: none; stroke-width: 1; stroke-dasharray: none; stroke-linecap: butt; stroke-dashoffset: 0; stroke-linejoin: miter; stroke-miterlimit: 4; fill: rgb(35,96,165); fill-rule: nonzero; opacity: 1;" vector-effect="non-scaling-stroke"  transform=" translate(-15.84, -24.89)" d="M 16.147 25.434 C 16.319999999999997 25.449 16.398999999999997 25.37 16.384999999999998 25.197000000000003 C 16.377999999999997 25.038000000000004 16.223999999999997 24.782000000000004 15.952999999999998 24.555000000000003 C 15.784999999999998 24.413000000000004 15.641999999999998 24.346000000000004 15.526999999999997 24.339000000000002 C 15.359999999999998 24.330000000000002 15.279999999999998 24.409000000000002 15.289999999999997 24.577 C 15.297999999999996 24.712000000000003 15.402999999999997 24.906000000000002 15.606999999999998 25.110000000000003 C 15.817999999999998 25.321 16.011999999999997 25.426000000000002 16.147 25.434000000000005 z" stroke-linecap="round" />
</g>
		<g transform="matrix(71.69 0 0 71.69 483.01 -62.31)"  >
<path style="stroke: none; stroke-width: 1; stroke-dasharray: none; stroke-linecap: butt; stroke-dashoffset: 0; stroke-linejoin: miter; stroke-miterlimit: 4; fill: rgb(255,255,255); fill-rule: nonzero; opacity: 1;" vector-effect="non-scaling-stroke"  transform=" translate(-24.17, -16.57)" d="M 23.198 17.538 C 22.623 16.963 22.539 16.218 22.953 15.659 C 23.514 14.913 24.448999999999998 14.903 25.141 15.595 C 25.784 16.231 25.825 17.068 25.249 17.643 C 24.669999999999998 18.221 23.837999999999997 18.176000000000002 23.198 17.538 z" stroke-linecap="round" />
</g>
		<g transform="matrix(71.69 0 0 71.69 482.63 -63.08)"  >
<path style="stroke: none; stroke-width: 1; stroke-dasharray: none; stroke-linecap: butt; stroke-dashoffset: 0; stroke-linejoin: miter; stroke-miterlimit: 4; fill: rgb(35,96,165); fill-rule: nonzero; opacity: 1;" vector-effect="non-scaling-stroke"  transform=" translate(-24.17, -16.56)" d="M 24.478 17.104 C 24.651 17.119 24.73 17.04 24.716 16.866 C 24.709 16.707 24.555 16.451999999999998 24.284000000000002 16.225 C 24.117 16.082 23.973000000000003 16.016000000000002 23.859 16.009 C 23.691000000000003 16 23.612000000000002 16.079 23.621000000000002 16.247 C 23.630000000000003 16.383 23.734 16.576 23.939000000000004 16.78 C 24.148000000000003 16.991 24.342000000000002 17.095000000000002 24.478000000000005 17.104000000000003 z" stroke-linecap="round" />
</g>
		<g transform="matrix(71.69 0 0 71.69 330.67 78.95)"  >
<path style="stroke: none; stroke-width: 1; stroke-dasharray: none; stroke-linecap: butt; stroke-dashoffset: 0; stroke-linejoin: miter; stroke-miterlimit: 4; fill: rgb(255,255,255); fill-rule: nonzero; opacity: 1;" vector-effect="non-scaling-stroke"  transform=" translate(-22.05, -18.54)" d="M 17.988 24.768 L 15.939 22.718 L 16.681 21.976 L 16.941000000000003 22.236 C 16.931585431530827 22.20751643432429 16.925871930855727 22.177940666123764 16.924000000000003 22.148 C 16.88743310270899 21.948485088540426 16.923246477372732 21.742469537256913 17.025000000000002 21.567 C 17.246000000000002 21.183 17.679000000000002 21.052 18.002000000000002 21.176000000000002 C 18.000000000000004 21.146 17.899 20.748 18.071 20.496000000000002 C 18.35 20.088 18.758000000000003 19.988000000000003 19.111 20.172 C 19.166 20.198 19.221 20.233 19.269000000000002 20.274 L 19.281000000000002 20.287000000000003 L 19.578000000000003 20.583000000000002 L 20.875000000000004 21.880000000000003 L 20.108000000000004 22.647000000000002 L 18.921000000000003 21.467000000000002 C 18.844 21.398000000000003 18.775000000000002 21.378000000000004 18.707000000000004 21.388 C 18.609000000000005 21.405 18.508000000000003 21.531000000000002 18.528000000000006 21.664 C 18.54435519256175 21.73091593678956 18.580201974656404 21.791472636638783 18.631000000000007 21.838 L 19.770000000000007 22.984 L 19.046000000000006 23.708000000000002 L 17.961000000000006 22.623 C 17.733000000000004 22.394000000000002 17.519000000000005 22.43 17.459000000000007 22.597 C 17.430000000000007 22.674000000000003 17.451000000000008 22.767000000000003 17.537000000000006 22.860000000000003 L 18.713000000000005 24.043000000000003 L 17.988000000000003 24.768000000000004 z M 19.865 18.792 L 21.912999999999997 20.841 L 21.122999999999998 21.631 L 19.073999999999998 19.583 z M 22.213 20.542 L 20.164 18.492 L 20.932000000000002 17.725 L 21.216 18.009 L 21.216 18.002 L 21.194000000000003 17.901 C 21.135 17.643 21.158 17.482 21.317000000000004 17.25 C 21.657000000000004 16.731 22.141000000000005 16.775 22.731000000000005 17.364 L 24.060000000000006 18.694000000000003 L 23.293000000000006 19.461000000000002 L 22.211000000000006 18.380000000000003 C 21.967000000000006 18.136000000000003 21.795000000000005 18.12 21.723000000000006 18.290000000000003 C 21.674000000000007 18.396000000000004 21.720000000000006 18.514000000000003 21.955000000000005 18.749000000000002 L 22.979000000000006 19.773000000000003 L 22.213000000000008 20.542 z M 26.807 15.599 L 26.528 14.823 C 26.602999999999998 14.805 26.621 14.802 26.747 14.765 C 27.081 14.659 27.178 14.521 27.159 14.41 C 27.145999999999997 14.326 27.07 14.271 26.973 14.303 C 26.941744162192578 14.311618467657535 26.91204514980713 14.325118018741827 26.884999999999998 14.343 L 26.83 14.373 L 26.752999999999997 14.417 L 26.687999999999995 14.458 L 26.614999999999995 14.499 C 26.223999999999997 14.711 25.688999999999997 14.481 25.475999999999996 13.963000000000001 C 25.271999999999995 13.468000000000002 25.432999999999996 12.933000000000002 26.108999999999995 12.509 C 26.206999999999994 12.444 26.305999999999994 12.393 26.420999999999996 12.344000000000001 L 26.464999999999996 12.324000000000002 L 26.512999999999995 12.308000000000002 L 26.838999999999995 13.089000000000002 C 26.725999999999996 13.104000000000003 26.737999999999996 13.108000000000002 26.634999999999994 13.153000000000002 C 26.565232358374658 13.183513791543767 26.500229968979152 13.223929784950299 26.441999999999993 13.273000000000001 C 26.41104721344957 13.306713991363708 26.384193741651316 13.343973183483792 26.361999999999995 13.384000000000002 C 26.321999999999996 13.465000000000002 26.364999999999995 13.544000000000002 26.437999999999995 13.560000000000002 C 26.47858950400206 13.567502939288913 26.520506281176804 13.562263342142069 26.557999999999996 13.545000000000002 C 26.572934575794115 13.538939187994051 26.587613639747328 13.532266886197139 26.601999999999997 13.525000000000002 L 26.644999999999996 13.498000000000003 L 26.886999999999997 13.371000000000002 C 27.240999999999996 13.163000000000002 27.676 13.265000000000002 27.978999999999996 13.717000000000002 C 28.290999999999997 14.178000000000003 28.214999999999996 14.791000000000002 27.602999999999994 15.265000000000002 C 27.39428324419656 15.425169225843446 27.151239764269572 15.534709949190821 26.892999999999994 15.585000000000003 C 26.862999999999992 15.591000000000003 26.832999999999995 15.597000000000003 26.806999999999995 15.599000000000002 z" stroke-linecap="round" />
</g>
		<g transform="matrix(71.69 0 0 71.69 100.7 78.43)"  >
<circle style="stroke: none; stroke-width: 1; stroke-dasharray: none; stroke-linecap: butt; stroke-dashoffset: 0; stroke-linejoin: miter; stroke-miterlimit: 4; fill: rgb(255,255,255); fill-rule: nonzero; opacity: 1;" vector-effect="non-scaling-stroke"  cx="0" cy="0" r="0.619" />
</g>
		<g transform="matrix(71.69 0 0 71.69 108.23 842.07)"  >
<path style="stroke: none; stroke-width: 1; stroke-dasharray: none; stroke-linecap: butt; stroke-dashoffset: 0; stroke-linejoin: miter; stroke-miterlimit: 4; fill: rgb(255,255,255); fill-rule: nonzero; opacity: 1;" vector-effect="non-scaling-stroke"  transform=" translate(-18.95, -29.18)" d="M 18.317 27.764 L 20.365000000000002 29.814 L 19.575000000000003 30.603 L 17.527 28.553 z" stroke-linecap="round" />
</g>
		<g transform="matrix(71.69 0 0 71.69 -10.2 721.46)"  >
<circle style="stroke: none; stroke-width: 1; stroke-dasharray: none; stroke-linecap: butt; stroke-dashoffset: 0; stroke-linejoin: miter; stroke-miterlimit: 4; fill: rgb(255,255,255); fill-rule: nonzero; opacity: 1;" vector-effect="non-scaling-stroke"  cx="0" cy="0" r="0.619" />
</g>
		<g transform="matrix(71.69 0 0 71.69 176.94 370.34)"  >
<path style="stroke: none; stroke-width: 1; stroke-dasharray: none; stroke-linecap: butt; stroke-dashoffset: 0; stroke-linejoin: miter; stroke-miterlimit: 4; fill: rgb(255,255,255); fill-rule: nonzero; opacity: 1;" vector-effect="non-scaling-stroke"  transform=" translate(-19.9, -22.6)" d="M 24.7 14.961 L 25.288999999999998 14.373000000000001 L 24.464 12.531 L 23.727999999999998 13.268 z M 17.447 32.674 L 14.52 29.747 L 15.376999999999999 28.89 C 16.023999999999997 28.243000000000002 16.765 28.184 17.442999999999998 28.872 C 18.357 29.799 17.584999999999997 30.634 17.541999999999998 30.677 L 17.243 30.976 L 18.194 31.927 L 17.447 32.674 z" stroke-linecap="round" />
</g>
		<g transform="matrix(71.69 0 0 71.69 -78.16 892.08)"  >
<path style="stroke: none; stroke-width: 1; stroke-dasharray: none; stroke-linecap: butt; stroke-dashoffset: 0; stroke-linejoin: miter; stroke-miterlimit: 4; fill: rgb(35,96,165); fill-rule: nonzero; opacity: 1;" vector-effect="non-scaling-stroke"  transform=" translate(-16.35, -29.88)" d="M 16.673 30.171 C 16.784 30.06 16.784999999999997 29.936999999999998 16.697999999999997 29.796 C 16.536999999999995 29.526 16.217999999999996 29.38 16.054999999999996 29.541999999999998 L 15.931999999999997 29.665 L 16.554999999999996 30.288 L 16.672999999999995 30.171 z" stroke-linecap="round" />
</g>
		<g transform="matrix(71.69 0 0 71.69 500.96 449.15)"  >
<path style="stroke: none; stroke-width: 1; stroke-dasharray: none; stroke-linecap: butt; stroke-dashoffset: 0; stroke-linejoin: miter; stroke-miterlimit: 4; fill: rgb(255,255,255); fill-rule: nonzero; opacity: 1;" vector-effect="non-scaling-stroke"  transform=" translate(-24.42, -23.7)" d="M 23.64 22.917 L 23.417 22.694000000000003 L 24.155 21.956000000000003 L 26.16 23.960000000000004 L 25.422 24.698000000000004 L 25.172 24.448000000000004 C 25.323 24.742000000000004 25.248 25.104000000000003 24.875 25.334000000000003 C 24.556 25.541000000000004 24.055 25.478 23.512999999999998 25.065000000000005 C 22.770999999999997 24.494000000000003 22.543 23.705000000000005 22.776999999999997 23.262000000000004 C 22.988999999999997 22.868000000000006 23.360999999999997 22.775000000000006 23.639999999999997 22.917000000000005 z" stroke-linecap="round" />
</g>
		<g transform="matrix(71.69 0 0 71.69 488.85 460.57)"  >
<path style="stroke: none; stroke-width: 1; stroke-dasharray: none; stroke-linecap: butt; stroke-dashoffset: 0; stroke-linejoin: miter; stroke-miterlimit: 4; fill: rgb(35,96,165); fill-rule: nonzero; opacity: 1;" vector-effect="non-scaling-stroke"  transform=" translate(-24.26, -23.86)" d="M 24.598 24.343 C 24.811 24.323 24.781 24.093 24.523999999999997 23.799 C 24.235999999999997 23.468 23.985999999999997 23.341 23.849999999999998 23.39 C 23.799999999999997 23.411 23.773999999999997 23.456 23.772 23.517 C 23.766 23.639 23.860999999999997 23.814999999999998 24.075999999999997 24.035 C 24.298 24.257 24.473999999999997 24.352 24.597999999999995 24.343 z" stroke-linecap="round" />
</g>
		<g transform="matrix(71.69 0 0 71.69 281.14 669.28)"  >
<path style="stroke: none; stroke-width: 1; stroke-dasharray: none; stroke-linecap: butt; stroke-dashoffset: 0; stroke-linejoin: miter; stroke-miterlimit: 4; fill: rgb(255,255,255); fill-rule: nonzero; opacity: 1;" vector-effect="non-scaling-stroke"  transform=" translate(-21.36, -26.77)" d="M 18.642 27.443 L 20.281 25.804000000000002 L 21.017999999999997 27.925 L 21.569999999999997 27.373 L 22.195999999999998 28 L 20.575 29.62 L 19.81 27.439 L 19.224 28.025 z M 20.52 25.565 L 22.159 23.926000000000002 L 22.895999999999997 26.047 L 23.447999999999997 25.495 L 24.073999999999998 26.121000000000002 L 22.453999999999997 27.742 L 21.687999999999995 25.561 L 21.101999999999997 26.147 z" stroke-linecap="round" />
</g>
		<g transform="matrix(71.69 0 0 71.69 210.2 1196.69)"  >
<path style="stroke: none; stroke-width: 1; stroke-dasharray: none; stroke-linecap: butt; stroke-dashoffset: 0; stroke-linejoin: miter; stroke-miterlimit: 4; fill: rgb(35,96,165); fill-rule: nonzero; opacity: 1;" vector-effect="non-scaling-stroke"  transform=" translate(-20.37, -34.13)" d="M 19.702 34.113 C 19.706676084494127 33.93597093591037 19.78208610180822 33.768195761415406 19.91137416214911 33.64717612353818 C 20.040662222490003 33.52615648566095 20.213048262624234 33.46198302498626 20.39 33.469 C 20.75533636201307 33.47811269837221 21.04411269837221 33.78166363798693 21.035 34.147 C 21.02588730162779 34.51233636201307 20.72233636201307 34.80111269837221 20.357 34.792 C 20.17957120161923 34.79045537450894 20.010213307887824 34.71764186493782 19.887024639139277 34.58993941290688 C 19.763835970390733 34.46223696087595 19.697161447037736 34.29036953731682 19.701999999999998 34.113 z" stroke-linecap="round" />
</g>
		<g transform="matrix(71.69 0 0 71.69 210.45 1196.74)"  >
<path style="stroke: none; stroke-width: 1; stroke-dasharray: none; stroke-linecap: butt; stroke-dashoffset: 0; stroke-linejoin: miter; stroke-miterlimit: 4; fill: rgb(255,255,255); fill-rule: nonzero; opacity: 1;" vector-effect="non-scaling-stroke"  transform=" translate(-20.37, -34.13)" d="M 20.361 34.682 C 20.506082486790245 34.685814708929755 20.646468207290653 34.6304125877995 20.749844269049678 34.528545665628194 C 20.853220330808703 34.42667874345689 20.910680845826285 34.2871228952811 20.909 34.142 C 20.91689234341189 33.99774661429348 20.86588937735353 33.85646861017201 20.767672004231784 33.75052203878157 C 20.66945463111004 33.64457546739113 20.532437204096478 33.583036847891826 20.387999999999998 33.580000000000005 C 20.242921905771993 33.57539630807409 20.102179607943015 33.62982862129858 19.997952730335207 33.73085141767794 C 19.8937258527274 33.831874214057294 19.834926975030875 33.970848899172175 19.834999999999997 34.11600000000001 C 19.826818990636703 34.26155763763606 19.878281777614575 34.40416789965263 19.977526361629717 34.51095960032292 C 20.07677094564486 34.617751300993206 20.215233907425564 34.67950981045449 20.360999999999997 34.68200000000001 z" stroke-linecap="round" />
</g>
		<g transform="matrix(71.69 0 0 71.69 212.45 1196.81)"  >
<path style="stroke: none; stroke-width: 1; stroke-dasharray: none; stroke-linecap: butt; stroke-dashoffset: 0; stroke-linejoin: miter; stroke-miterlimit: 4; fill: rgb(35,96,165); fill-rule: nonzero; opacity: 1;" vector-effect="non-scaling-stroke"  transform=" translate(-20.4, -34.13)" d="M 20.225 34.508 L 20.110000000000003 34.506 L 20.129 33.743 L 20.419 33.751000000000005 C 20.6 33.755 20.687 33.82300000000001 20.684 33.974000000000004 C 20.681 34.11000000000001 20.593 34.168000000000006 20.481 34.18000000000001 L 20.69 34.52100000000001 L 20.561 34.51800000000001 L 20.368 34.18200000000001 L 20.235 34.17900000000001 L 20.224999999999998 34.50800000000001 z" stroke-linecap="round" />
</g>
		<g transform="matrix(71.69 0 0 71.69 212.34 1184.74)"  >
<path style="stroke: none; stroke-width: 1; stroke-dasharray: none; stroke-linecap: butt; stroke-dashoffset: 0; stroke-linejoin: miter; stroke-miterlimit: 4; fill: rgb(255,255,255); fill-rule: nonzero; opacity: 1;" vector-effect="non-scaling-stroke"  transform=" translate(-20.4, -33.96)" d="M 20.374 34.083 C 20.471999999999998 34.085 20.56 34.08 20.561999999999998 33.963 C 20.563999999999997 33.869 20.479 33.849000000000004 20.397999999999996 33.847 L 20.240999999999996 33.844 L 20.234999999999996 34.08 L 20.373999999999995 34.083 z" stroke-linecap="round" />
</g>
</g>
</g>
</svg>