<?xml version="1.0" encoding="UTF-8" standalone="no" ?>
<!DOCTYPE svg PUBLIC "-//W3C//DTD SVG 1.1//EN" "http://www.w3.org/Graphics/SVG/1.1/DTD/svg11.dtd">
<svg xmlns="http://www.w3.org/2000/svg" xmlns:xlink="http://www.w3.org/1999/xlink" version="1.1" width="1080" height="1080" viewBox="0 0 1080 1080" xml:space="preserve">
<desc>Created with Fabric.js 5.2.4</desc>
<defs>
</defs>
<rect x="0" y="0" width="100%" height="100%" fill="transparent"></rect>
<g transform="matrix(1 0 0 1 540 540)" id="971e4c46-380e-462c-8558-7d5949930790"  >
<rect style="stroke: none; stroke-width: 1; stroke-dasharray: none; stroke-linecap: butt; stroke-dashoffset: 0; stroke-linejoin: miter; stroke-miterlimit: 4; fill: rgb(255,255,255); fill-rule: nonzero; opacity: 1; visibility: hidden;" vector-effect="non-scaling-stroke"  x="-540" y="-540" rx="0" ry="0" width="1080" height="1080" />
</g>
<g transform="matrix(1 0 0 1 540 540)" id="ba9c960c-c001-455e-b7b0-a242ccdf246c"  >
</g>
<g transform="matrix(0.32 0 0 0.32 560.24 540)"  >
<g style="" vector-effect="non-scaling-stroke"   >
		<g transform="matrix(7.07 0 0 7.07 -880.29 -322.76)"  >
<path style="stroke: none; stroke-width: 1; stroke-dasharray: none; stroke-linecap: butt; stroke-dashoffset: 0; stroke-linejoin: miter; stroke-miterlimit: 4; fill: rgb(229,49,49); fill-rule: nonzero; opacity: 1;" vector-effect="non-scaling-stroke"  transform=" translate(-51.61, -130.7)" d="M 20.36 13.28 L 89.87 13.28 L 89.87 248.121 L 31.319 248.121 L 13.39 20.092 C 13.39 20.092 12.463000000000001 13.279999999999998 20.36 13.279999999999998 z" stroke-linecap="round" />
</g>
		<g transform="matrix(7.07 0 0 7.07 0 0)"  >
<path style="stroke: none; stroke-width: 1; stroke-dasharray: none; stroke-linecap: butt; stroke-dashoffset: 0; stroke-linejoin: miter; stroke-miterlimit: 4; fill: rgb(0,0,0); fill-rule: nonzero; opacity: 1;" vector-effect="non-scaling-stroke"  transform=" translate(-176.09, -176.34)" d="M 40.659 352.676 C 36.244 352.673 32.448 350.553 29.764 347.657 C 27.072 344.746 25.363999999999997 341.041 25.064 337.365 L 0.062 19.289 C 0.01994960551717527 18.787774576825754 -0.0007358026270694318 18.284985704674458 2.3869795029440866e-15 17.782 C -0.003 12.861 1.938 8.39 5.157 5.179 C 8.368 1.961 12.869 -0.004 17.884 0 L 334.291 0 C 339.306 -0.004 343.803 1.961 347.016 5.177 C 350.231 8.39 352.175 12.861 352.171 17.782 C 352.171 18.274 352.153 18.77 352.113 19.274 L 327.11 337.366 C 326.808 341.042 325.10200000000003 344.74699999999996 322.41 347.65799999999996 C 319.72400000000005 350.554 315.93100000000004 352.674 311.51500000000004 352.67699999999996 L 311.51500000000004 348.376 C 314.50700000000006 348.37899999999996 317.19300000000004 346.94399999999996 319.26000000000005 344.72999999999996 C 321.32000000000005 342.53 322.63400000000007 339.57099999999997 322.82200000000006 337.03099999999995 L 347.828 18.94 C 347.856 18.549 347.87199999999996 18.163 347.87199999999996 17.782 C 347.84299999999996 10.222999999999999 342.044 4.327 334.29099999999994 4.301 L 17.884 4.301 C 10.127 4.327 4.327 10.224 4.2989999999999995 17.782 C 4.2989999999999995 18.168 4.313999999999999 18.545 4.3469999999999995 18.936 L 29.35 337.03 C 29.538 339.57 30.853 342.529 32.912 344.729 C 34.98 346.943 37.668 348.377 40.66 348.375 L 311.51599999999996 348.375 L 311.51599999999996 352.676 z" stroke-linecap="round" />
</g>
		<g transform="matrix(7.07 0 0 7.07 878.77 -322.76)"  >
<path style="stroke: none; stroke-width: 1; stroke-dasharray: none; stroke-linecap: butt; stroke-dashoffset: 0; stroke-linejoin: miter; stroke-miterlimit: 4; fill: rgb(229,49,49); fill-rule: nonzero; opacity: 1;" vector-effect="non-scaling-stroke"  transform=" translate(-300.34, -130.7)" d="M 331.815 13.28 L 261.866 13.28 L 261.866 248.121 L 320.856 248.121 L 338.786 20.093000000000018 C 338.786 20.092000000000017 339.714 13.280000000000019 331.815 13.280000000000019 z" stroke-linecap="round" />
</g>
		<g transform="matrix(7.07 0 0 7.07 1183.35 1117.17)"  >
<path style="stroke: none; stroke-width: 1; stroke-dasharray: none; stroke-linecap: butt; stroke-dashoffset: 0; stroke-linejoin: miter; stroke-miterlimit: 4; fill: rgb(0,0,0); fill-rule: nonzero; opacity: 1;" vector-effect="non-scaling-stroke"  transform=" translate(-343.41, -334.31)" d="M 349.226 329.333 C 348.794 329.46500000000003 348.499 330.16400000000004 348.499 330.16400000000004 L 346.64500000000004 334.12200000000007 L 344.672 330.16400000000004 C 344.672 330.16400000000004 344.27700000000004 329.37100000000004 343.94500000000005 329.333 L 342.9270000000001 329.333 L 342.9270000000001 339.278 L 344.25500000000005 339.278 L 344.25500000000005 332.24 L 345.93100000000004 335.695 C 346.26700000000005 336.399 346.833 336.409 347.19300000000004 335.717 L 348.824 332.572 L 348.824 339.277 L 350.279 339.277 L 350.279 329.332 L 349.226 329.332 z M 336.54 339.278 L 338.038 339.278 L 338.038 329.808 L 336.54 329.808 z" stroke-linecap="round" />
</g>
		<g transform="matrix(7.07 0 0 7.07 210.62 864.56)"  >
<path style="stroke: none; stroke-width: 1; stroke-dasharray: none; stroke-linecap: butt; stroke-dashoffset: 0; stroke-linejoin: miter; stroke-miterlimit: 4; fill: rgb(0,0,0); fill-rule: nonzero; opacity: 1;" vector-effect="non-scaling-stroke"  transform=" translate(-205.87, -298.59)" d="M 333.89 330.416 C 333.89 330.57099999999997 334.017 330.699 334.173 330.699 L 340.261 330.699 C 340.41684292104617 330.6979101494832 340.54291014948325 330.57184292104614 340.54400000000004 330.416 L 340.54400000000004 329.324 L 333.89000000000004 329.324 z M 181.472 330.061 C 171.59300000000002 330.981 156.26500000000001 330.13 156.26500000000001 330.13 C 154.568 330.084 155.27900000000002 327.939 155.27900000000002 327.939 L 165.75000000000003 279.673 C 166.71100000000004 275.378 162.24400000000003 273.868 162.24400000000003 273.868 C 160.95300000000003 273.433 161.22400000000002 272.192 161.22400000000002 272.192 C 162.22400000000002 266.249 163.23000000000002 266.473 163.23000000000002 266.473 L 217.947 266.473 C 219.875 266.473 219.441 267.994 219.441 267.994 C 219.441 267.994 217.345 278.172 215.755 283.935 C 215.427 285.404 213.829 285.306 213.829 285.306 L 209.411 285.306 C 207.45 285.347 207.557 283.339 207.557 283.339 L 207.557 281.278 C 207.557 276.716 202.176 276.93800000000005 202.176 276.93800000000005 L 188.176 276.93800000000005 L 184.48299999999998 293.59400000000005 C 184.48299999999998 293.59400000000005 184.22299999999998 294.0880000000001 184.87899999999996 294.0880000000001 L 204.16999999999996 294.0880000000001 C 206.39999999999995 294.0350000000001 205.85199999999995 296.13700000000006 205.85199999999995 296.13700000000006 C 204.51199999999994 301.9510000000001 203.79499999999996 304.38900000000007 203.50399999999993 305.24800000000005 C 203.50399999999993 305.24800000000005 203.46299999999994 305.73900000000003 202.51999999999992 305.744 C 200.02999999999992 305.80300000000005 192.01399999999992 305.95300000000003 181.78799999999993 305.74800000000005 L 179.84299999999993 314.51900000000006 C 179.84299999999993 314.51900000000006 179.41099999999994 316.1670000000001 179.41299999999993 318.28900000000004 C 179.41299999999993 318.28900000000004 179.34099999999992 320.83400000000006 181.7199999999999 322.20300000000003 C 181.8429999999999 322.285 182.8719999999999 322.90400000000005 183.1399999999999 323.15000000000003 C 183.4559999999999 323.406 183.4269999999999 323.66400000000004 183.4269999999999 323.66400000000004 C 183.51299999999992 326.12500000000006 182.49499999999992 328.68500000000006 182.0729999999999 329.63400000000007 C 181.9798570617999 329.88662602292004 181.7412068154645 330.0561828535111 181.4719999999999 330.0610000000001 z M 114.786 266.671 C 114.786 266.671 112.673 266.474 110.638 266.474 L 87.005 266.474 C 85.36399999999999 266.474 85.06 267.183 85.06 267.183 C 84.568 267.953 84.206 269.329 83.724 272.193 C 83.724 272.193 83.50500000000001 273.437 84.744 273.86899999999997 C 84.744 273.86899999999997 89.211 275.37899999999996 88.25 279.674 L 81.646 311.149 C 79.55 322.743 74.203 322.915 74.203 322.915 C 72.521 323.095 72.23400000000001 324.497 72.23400000000001 324.497 L 71.33600000000001 327.91900000000004 C 70.85000000000001 329.54800000000006 71.72500000000001 329.78200000000004 71.72500000000001 329.78200000000004 C 71.72500000000001 329.78200000000004 73.00500000000001 330.40100000000007 79.551 330.40100000000007 L 88.87700000000001 330.4440000000001 C 96.58600000000001 330.4440000000001 102.31800000000001 330.23500000000007 102.31800000000001 330.23500000000007 C 104.47000000000001 330.1840000000001 104.89600000000002 329.0610000000001 104.89600000000002 329.0610000000001 C 105.31800000000001 328.2970000000001 105.78700000000002 325.0630000000001 105.74400000000001 323.5940000000001 C 105.74400000000001 323.5940000000001 105.77500000000002 323.3320000000001 105.45700000000001 323.0800000000001 C 105.18900000000001 322.8340000000001 104.16000000000001 322.2150000000001 104.03500000000001 322.1310000000001 C 101.67000000000002 320.89400000000006 101.76700000000001 319.4650000000001 101.76700000000001 319.4650000000001 C 101.74700000000001 317.74000000000007 102.19900000000001 315.6950000000001 102.19900000000001 315.6950000000001 L 110.44500000000001 278.0990000000001 C 110.97000000000001 275.21800000000013 113.85700000000001 274.1600000000001 113.85700000000001 274.1600000000001 C 115.72400000000002 273.62500000000006 116.08300000000001 271.90600000000006 116.08300000000001 271.90600000000006 L 116.88200000000002 268.3400000000001 C 116.88100000000001 268.3390000000001 117.42700000000002 266.8900000000001 114.78600000000002 266.6710000000001 z" stroke-linecap="round" />
</g>
		<g transform="matrix(7.07 0 0 7.07 115.9 -19.85)"  >
<path style="stroke: none; stroke-width: 1; stroke-dasharray: none; stroke-linecap: butt; stroke-dashoffset: 0; stroke-linejoin: miter; stroke-miterlimit: 4; fill: rgb(0,0,0); fill-rule: nonzero; opacity: 1;" vector-effect="non-scaling-stroke"  transform=" translate(-192.47, -173.53)" d="M 157.638 268.835 L 156.88400000000001 272.007 C 156.58300000000003 273.624 154.59300000000002 273.769 154.59300000000002 273.769 C 149.781 274.61400000000003 147.876 276.232 147.876 276.232 C 147.876 276.232 128.962 291.377 125.521 294.54600000000005 C 125.521 294.54600000000005 124.88 295.01500000000004 125.318 295.624 C 125.318 295.624 139.269 315.327 143.94299999999998 320.42900000000003 C 143.94299999999998 320.42900000000003 145.802 322.67100000000005 148.927 323.062 C 148.927 323.062 151.94299999999998 323.265 151.404 325.27500000000003 C 151.404 325.27500000000003 150.901 327.689 150.289 329.34900000000005 C 150.012 330.10300000000007 149.511 330.11100000000005 149.511 330.11100000000005 C 146.725 330.43700000000007 133.096 330.19300000000004 133.096 330.19300000000004 C 122.504 330.19300000000004 116.244 320.47200000000004 116.244 320.47200000000004 C 116.244 320.47200000000004 110.197 312.79600000000005 104.537 300.105 L 105.988 296.06 C 105.988 296.06 123.372 281.982 129.088 276.658 C 129.088 276.658 131.23999999999998 275.094 128.583 273.994 C 126.789 273.096 127.405 271.357 127.405 271.357 C 127.685 269.591 128.24 267.625 128.24 267.625 C 128.443 266.641 129.984 266.703 129.984 266.703 C 129.984 266.703 135.062 266.474 137.892 266.474 L 145.744 266.474 C 150.994 266.474 155.851 266.771 155.851 266.771 C 155.851 266.771 158.192 266.70300000000003 157.638 268.83500000000004 z M 273.454 326.782 C 274.65500000000003 322.48499999999996 274.89300000000003 318.772 274.89300000000003 318.772 C 275.153 316.543 272.463 317.46 272.463 317.46 C 272.463 317.46 264.66 319.45799999999997 259.713 319.45799999999997 C 234.68800000000002 319.45799999999997 237.35200000000003 298.61999999999995 237.35200000000003 298.61999999999995 C 238.58800000000002 286.05999999999995 246.10600000000002 275.97399999999993 259.903 275.68899999999996 C 265.571 275.57199999999995 268.99100000000004 279.061 269.38 284.65599999999995 C 269.38 284.65599999999995 269.34499999999997 286.4789999999999 271.31 286.4789999999999 L 274.933 286.4789999999999 C 277.04 286.4789999999999 277.378 284.16099999999994 277.378 284.16099999999994 C 278.515 279.43999999999994 280.327 270.42199999999997 280.327 270.42199999999997 C 280.84499999999997 268.092 278.798 267.61199999999997 278.798 267.61199999999997 C 274.978 266.29299999999995 268.44100000000003 265.508 260.857 265.508 C 230.88400000000001 265.508 217.46800000000002 280.73199999999997 215.38400000000001 298.614 C 213.288 316.58 224.98600000000002 331.16099999999994 250.77100000000002 331.16099999999994 C 259.433 331.16099999999994 266.12600000000003 330.27299999999997 271.339 328.66799999999995 C 271.339 328.66799999999995 273.028 328.30799999999994 273.454 326.7819999999999 z M 235.282 95.35 C 235.282 95.35 234.42000000000002 95.04299999999999 234.89100000000002 93.88499999999999 L 237.48100000000002 85.38199999999999 C 239.63700000000003 79.20799999999998 239.04200000000003 76.14999999999999 239.04200000000003 76.14999999999999 C 239.04200000000003 76.14999999999999 235.52000000000004 74.255 235.27100000000004 69.255 C 235.27100000000004 69.255 231.07700000000006 15.901999999999994 174.57700000000006 15.901999999999994 C 159.07400000000007 15.901999999999994 140.71000000000006 24.702999999999996 140.71000000000006 24.702999999999996 C 140.71000000000006 24.702999999999996 139.29800000000006 25.344999999999995 138.93900000000008 27.407999999999994 C 138.93900000000008 27.407999999999994 138.62800000000007 29.160999999999994 136.9830000000001 31.112999999999992 C 136.0630000000001 32.26199999999999 134.3700000000001 33.55499999999999 134.3700000000001 33.55499999999999 C 132.63500000000008 34.79299999999999 129.1200000000001 36.614999999999995 123.1210000000001 37.01599999999999 C 123.1210000000001 37.01599999999999 121.36100000000009 37.01099999999999 122.5350000000001 38.85999999999999 C 122.5350000000001 38.85999999999999 124.5000000000001 42.33099999999999 128.4150000000001 44.49999999999999 C 128.4150000000001 44.49999999999999 130.0430000000001 45.291999999999994 127.4260000000001 45.49799999999999 C 127.4260000000001 45.49799999999999 124.7730000000001 45.75399999999999 121.8630000000001 45.87399999999999 C 116.9380000000001 46.07699999999999 115.6430000000001 48.63199999999999 115.3030000000001 50.03699999999999 C 115.3030000000001 50.03699999999999 115.0620000000001 50.992999999999995 115.4530000000001 51.88499999999999 C 116.0730000000001 53.30199999999999 117.57900000000011 55.343999999999994 117.57900000000011 55.343999999999994 C 117.57900000000011 55.343999999999994 119.1560000000001 57.54299999999999 119.0450000000001 60.163 C 118.9550000000001 62.275 116.5930000000001 64.222 116.5930000000001 64.222 C 116.5930000000001 64.222 112.5630000000001 67.124 112.5630000000001 69.91499999999999 C 112.5630000000001 69.91499999999999 112.5010000000001 71.449 112.82900000000011 73.15199999999999 C 112.82900000000011 73.15199999999999 114.82900000000011 83.44399999999999 117.87100000000011 93.94399999999999 C 117.87100000000011 93.94399999999999 118.2510000000001 94.93299999999999 117.4240000000001 94.93399999999998 C 117.4240000000001 94.93399999999998 113.6550000000001 95.25299999999999 113.6550000000001 101.32099999999998 C 113.6550000000001 105.31199999999998 115.1240000000001 110.87099999999998 115.1240000000001 110.87099999999998 C 115.1240000000001 110.87099999999998 119.1720000000001 124.07399999999998 119.8130000000001 127.08599999999998 C 120.0000000000001 127.76099999999998 120.0380000000001 128.37099999999998 120.1130000000001 128.873 C 120.5240000000001 132.069 122.3520000000001 142.41299999999998 128.7460000000001 142.081 C 128.7460000000001 142.081 130.7060000000001 141.91799999999998 130.7060000000001 143.131 C 130.7060000000001 143.131 131.2300000000001 151.876 134.3610000000001 158.281 C 134.3610000000001 158.281 135.21500000000012 159.63400000000001 135.4280000000001 162.69400000000002 C 135.4280000000001 162.69400000000002 136.2970000000001 173.71300000000002 151.5830000000001 186.108 L 162.18700000000013 194.15 C 162.18700000000013 194.15 154.07400000000013 194.578 150.51600000000013 194.933 C 150.51600000000013 194.933 148.77000000000012 194.921 148.66600000000014 197.423 C 148.66600000000014 197.423 148.09700000000015 202.476 148.59500000000014 207.671 C 148.59500000000014 207.671 148.62600000000015 210.16 151.58400000000015 210.162 C 151.58400000000015 210.162 161.33400000000015 210.02 169.87400000000014 209.735 C 169.87400000000014 209.735 171.06200000000013 209.58900000000003 170.44300000000013 211.08700000000002 C 170.44300000000013 211.08700000000002 164.18000000000012 228.454 155.85400000000013 244.82000000000002 C 155.85400000000013 244.82000000000002 154.57800000000012 246.85500000000002 156.24600000000012 246.98600000000002 C 156.24600000000012 246.98600000000002 159.9460000000001 247.36700000000002 163.96900000000014 249.76600000000002 C 163.96900000000014 249.76600000000002 165.16600000000014 250.317 165.74500000000015 249.07100000000003 C 165.74500000000015 249.07100000000003 172.23100000000014 235.247 175.93800000000016 223.50900000000001 C 175.93800000000016 223.50900000000001 176.71000000000015 227.05900000000003 175.86100000000016 251.92800000000003 C 175.86100000000016 251.92800000000003 175.64000000000016 254.08900000000003 177.65600000000015 253.51100000000002 C 177.65600000000015 253.51100000000002 180.88300000000015 252.50900000000001 184.58800000000014 252.62300000000002 C 186.51600000000013 252.68300000000002 186.51900000000015 250.769 186.51900000000015 250.769 C 188.14100000000016 226.984 182.58100000000016 210.226 182.58100000000016 210.226 C 182.58100000000016 210.226 182.14500000000015 209.439 183.49400000000017 209.37199999999999 C 190.70200000000017 209.01799999999997 200.52100000000019 209.94899999999998 200.52100000000019 209.94899999999998 C 202.7490000000002 210.237 202.6010000000002 208.06099999999998 202.6010000000002 208.06099999999998 C 202.9040000000002 204.49299999999997 202.6780000000002 196.51299999999998 202.6780000000002 196.51299999999998 C 202.9540000000002 193.24499999999998 190.6970000000002 193.99999999999997 190.6970000000002 193.99999999999997 C 189.6900000000002 194.02199999999996 190.6250000000002 193.46699999999998 190.6250000000002 193.46699999999998 C 190.6250000000002 193.46699999999998 199.3090000000002 188.38899999999998 207.4120000000002 180.053 C 207.4120000000002 180.053 214.00400000000022 174.974 217.8420000000002 163.421 C 217.8420000000002 163.421 221.5790000000002 153.488 221.5790000000002 143.447 C 221.5790000000002 143.447 221.5010000000002 141.728 223.8600000000002 141.869 C 223.8600000000002 141.869 228.64100000000022 142.51 230.5010000000002 136.041 C 230.5010000000002 136.041 234.0610000000002 126.01299999999999 237.32500000000022 111.976 C 237.32500000000022 111.976 238.87900000000022 105.463 238.95000000000022 101.505 C 239.02900000000022 96.949 235.2820000000002 95.35 235.2820000000002 95.35 z M 126.70100000000001 125.687 C 124.623 125.93299999999999 123.757 122.48 123.757 122.48 L 120.754 111.43100000000001 C 120.754 111.43100000000001 119.718 107.543 119.53 105.22200000000001 C 119.134 100.325 122.546 100.35600000000001 122.546 100.35600000000001 C 125.753 100.35600000000001 125.885 103.97000000000001 125.885 103.97000000000001 C 125.885 103.97000000000001 125.921 104.87200000000001 125.506 105.69000000000001 C 125.506 105.69000000000001 125.077 106.43500000000002 125.098 107.96400000000001 C 125.122 109.71300000000001 126.556 117.40900000000002 126.556 117.40900000000002 C 127.343 120.96600000000002 127.431 123.47200000000002 127.431 123.47200000000002 C 127.482 125.76100000000002 126.701 125.68700000000003 126.701 125.68700000000003 z M 127.38900000000001 87.14 C 127.38900000000001 87.14 127.28000000000002 91.167 126.46300000000001 92.04 C 126.46300000000001 92.04 125.325 93.343 124.281 93.343 C 123.733 93.343 123.632 92.85600000000001 123.632 92.85600000000001 C 123.632 92.85600000000001 119.385 78.64500000000001 119.385 73.96200000000002 C 119.385 70.47800000000002 123.305 65.35900000000002 123.305 65.35900000000002 C 123.305 65.35900000000002 126.48100000000001 62.74300000000002 123.686 56.321000000000026 L 122.706 54.03400000000003 C 122.706 54.03400000000003 121.958 52.74900000000003 123.686 52.67300000000003 C 123.686 52.67300000000003 133.43200000000002 51.63900000000003 140.565 48.04500000000003 C 140.565 48.04500000000003 145.356 45.26800000000003 150.529 45.26800000000003 C 150.529 45.26800000000003 153.623 45.18200000000003 153.539 46.17100000000003 C 153.505 46.571000000000026 152.707 46.79300000000003 152.707 46.79300000000003 C 152.707 46.79300000000003 143.069 50.06000000000003 138.387 59.861000000000026 C 138.387 59.861000000000026 137.34 61.98700000000002 135.729 63.648000000000025 C 135.436 63.93300000000002 134.70100000000002 64.49300000000002 134.70100000000002 64.49300000000002 C 133.69200000000004 65.25000000000003 132.997 66.10300000000002 132.997 66.10300000000002 C 132.126 67.15700000000002 130.93 68.97800000000002 130.16600000000003 71.67600000000002 C 130.16600000000003 71.67700000000002 127.38900000000002 80.55200000000002 127.38900000000002 87.14000000000001 z M 134.92000000000002 94.894 C 134.92000000000002 95.61500000000001 134.27 96.19900000000001 133.467 96.19900000000001 C 133.155 96.19900000000001 132.936 96.12100000000001 132.936 96.12100000000001 C 132.936 96.12100000000001 131.92000000000002 95.73 131.327 95.683 C 131.327 95.683 129.999 95.46400000000001 129.999 94.88600000000001 L 129.999 94.855 C 129.999 94.277 131.327 94.058 131.327 94.058 C 131.921 94.01100000000001 132.936 93.62 132.936 93.62 C 132.936 93.62 133.155 93.542 133.467 93.542 C 134.27 93.542 134.92000000000002 94.126 134.92000000000002 94.84700000000001 z M 135.252 119.74000000000001 C 135.252 119.74000000000001 134.57600000000002 116.99600000000001 136.095 117.24400000000001 C 136.095 117.24400000000001 137.06 117.32400000000001 138.073 117.79500000000002 C 138.073 117.79500000000002 141.185 119.28700000000002 142.223 119.28700000000002 C 142.40400000000002 119.32500000000002 143.584 119.15700000000002 143.876 117.18000000000002 C 143.876 117.18000000000002 144.029 116.38800000000002 142.741 115.78600000000002 C 142.741 115.78600000000002 136.87300000000002 113.22400000000002 136.87300000000002 109.56000000000002 C 136.87300000000002 109.56000000000002 136.90500000000003 108.19800000000002 138.04000000000002 108.19800000000002 C 138.04000000000002 108.19800000000002 138.62300000000002 108.10100000000003 139.27200000000002 108.71700000000003 C 139.27200000000002 108.71700000000003 141.15200000000002 110.50000000000003 142.287 110.50000000000003 C 142.747 110.54300000000003 143.544 110.40200000000003 144.589 109.07300000000002 C 144.589 109.07300000000002 147.028 105.83100000000002 151.43 105.83100000000002 C 152.76000000000002 105.83100000000002 156.131 106.47900000000001 156.131 106.47900000000001 C 156.131 106.47900000000001 158.92 106.77100000000002 161.935 106.28400000000002 C 161.935 106.28400000000002 164.917 105.57100000000003 163.199 107.32200000000002 C 163.199 107.32200000000002 162.19400000000002 108.26200000000001 162.19400000000002 108.71600000000002 C 162.19400000000002 109.52700000000003 162.77700000000002 110.20800000000003 162.77700000000002 110.20800000000003 C 162.77700000000002 110.20800000000003 165.014 113.90400000000002 158.43300000000002 116.23800000000003 C 158.43300000000002 116.23800000000003 155.85600000000002 117.21100000000003 153.05100000000002 117.21100000000003 C 153.05100000000002 117.21100000000003 151.722 117.13700000000003 151.722 118.31300000000003 L 151.722 119.28600000000003 C 151.722 119.28600000000003 151.592 120.38900000000002 153.34300000000002 120.38900000000002 L 157.299 120.38900000000002 C 158.163 120.38900000000002 157.68800000000002 121.00600000000003 157.68800000000002 121.00600000000003 C 157.68800000000002 121.00600000000003 156.513 123.01300000000003 155.90500000000003 124.89700000000003 C 155.51300000000003 126.27900000000004 154.54300000000003 126.64700000000003 154.54300000000003 126.64700000000003 C 154.54300000000003 126.64700000000003 151.04200000000003 127.97700000000003 147.37800000000004 130.40800000000004 C 147.37800000000004 130.40800000000004 145.30300000000005 131.93100000000004 142.77400000000003 131.93100000000004 C 137.78200000000004 131.93000000000004 135.25200000000004 119.74000000000004 135.25200000000004 119.74000000000004 z M 144.47 97.403 C 144.37 97.53200000000001 142.837 98.552 141.063 99.671 C 139.28799999999998 100.79 137.678 101.762 137.48499999999999 101.83300000000001 C 137.29199999999997 101.903 136.97099999999998 101.95100000000001 136.772 101.93900000000001 C 136.57299999999998 101.92800000000001 136.314 101.846 136.197 101.75800000000001 C 136.08 101.67000000000002 135.92600000000002 101.44900000000001 135.856 101.26800000000001 C 135.78599999999997 101.08700000000002 135.728 100.78500000000001 135.728 100.59700000000001 C 135.728 100.41000000000001 135.805 100.01200000000001 135.898 99.71300000000001 C 135.992 99.415 136.279 98.89200000000001 136.537 98.55300000000001 C 136.794 98.21300000000001 137.249 97.74300000000001 137.548 97.50900000000001 C 137.847 97.27500000000002 138.455 96.95900000000002 138.9 96.80700000000002 C 139.345 96.65500000000002 140.054 96.49600000000001 140.476 96.45500000000001 C 140.898 96.41400000000002 141.731 96.36600000000001 142.329 96.34900000000002 C 142.92600000000002 96.33100000000002 143.554 96.33600000000001 143.72400000000002 96.36000000000001 C 143.894 96.38300000000001 144.15800000000002 96.48900000000002 144.31000000000003 96.59400000000001 C 144.46200000000005 96.699 144.60100000000003 96.87200000000001 144.61900000000003 96.977 C 144.63600000000002 97.083 144.56900000000002 97.274 144.47000000000003 97.403 z M 146.333 100.08600000000001 C 147.024 99.68800000000002 148.169 99.05100000000002 148.878 98.67000000000002 C 149.58599999999998 98.29000000000002 150.516 97.83900000000001 150.944 97.66900000000001 C 151.380634313019 97.49661416540117 151.8247425812677 97.34379554266795 152.27499999999998 97.21100000000001 C 152.57999999999998 97.12900000000002 153.07299999999998 97.028 153.37199999999999 96.98700000000001 C 153.671 96.94600000000001 154.14 96.918 154.415 96.924 C 154.69 96.93 155.15 96.96400000000001 155.43699999999998 96.998 C 155.724 97.033 156.25099999999998 97.182 156.60799999999998 97.328 C 156.96499999999997 97.47500000000001 157.43499999999997 97.74300000000001 157.652 97.925 C 157.868 98.107 158.17999999999998 98.399 158.343 98.574 C 158.50699999999998 98.75 158.72299999999998 99.03699999999999 158.822 99.213 C 158.922 99.389 159.008 99.60499999999999 159.013 99.692 C 159.019 99.77999999999999 159 99.93299999999999 158.971 100.03299999999999 C 158.942 100.13199999999999 158.827 100.23799999999999 158.716 100.26699999999998 C 158.60500000000002 100.29599999999998 158.31300000000002 100.32499999999999 158.067 100.33099999999997 C 157.821 100.33599999999997 157.174 100.32699999999997 156.62900000000002 100.30999999999997 C 156.08400000000003 100.29299999999998 155.294 100.28799999999997 154.872 100.29899999999998 C 154.45000000000002 100.31099999999998 153.71200000000002 100.39699999999998 153.23200000000003 100.49099999999997 C 152.75200000000004 100.58499999999997 152.07100000000003 100.74799999999998 151.72000000000003 100.85299999999997 C 151.36800000000002 100.95799999999997 150.57300000000004 101.25599999999997 149.95200000000003 101.51299999999996 C 149.33100000000002 101.77099999999996 148.42600000000002 102.14399999999996 147.93900000000002 102.34399999999997 C 147.45200000000003 102.54399999999997 146.78700000000003 102.81099999999996 146.45900000000003 102.93999999999997 C 146.13100000000003 103.06899999999997 145.66700000000003 103.21699999999997 145.42600000000004 103.26999999999997 C 145.18500000000006 103.32299999999996 144.82600000000005 103.37999999999997 144.62700000000004 103.39799999999997 C 144.42800000000003 103.41599999999997 144.09700000000004 103.41599999999997 143.89300000000003 103.39799999999997 C 143.68800000000002 103.37999999999997 143.41400000000002 103.30299999999997 143.28600000000003 103.22699999999996 C 143.15800000000004 103.15099999999995 143.01800000000003 102.99799999999996 142.97700000000003 102.88699999999996 C 142.93600000000004 102.77599999999995 142.91300000000004 102.62199999999996 142.92400000000004 102.54699999999995 C 142.93500000000003 102.47099999999996 142.99800000000005 102.34599999999996 143.06200000000004 102.26999999999995 C 143.12600000000003 102.19399999999995 143.60500000000005 101.83499999999995 144.12700000000004 101.47199999999995 C 144.84595841884232 100.98443588189858 145.5817410452972 100.52215359709966 146.33300000000003 100.08599999999997 z M 163.81 126.04100000000001 C 163.81 126.04100000000001 164.16400000000002 126.876 164.195 127.501 C 164.263 128.871 163.26399999999998 128.865 163.26399999999998 128.865 C 160.13799999999998 128.98000000000002 160.21599999999998 124.373 160.21599999999998 124.373 C 160.201 120.293 162.44599999999997 120.31400000000001 162.44599999999997 120.31400000000001 C 162.44599999999997 120.31400000000001 163.69699999999997 120.218 164.25899999999996 121.453 C 164.25899999999996 121.453 163.55299999999997 122.479 163.55299999999997 124.212 C 163.55299999999997 125.433 163.80999999999997 126.041 163.80999999999997 126.041 z M 157.501 173.94 C 149.77700000000002 173.94 143.192 163.239 143.192 163.239 C 143.192 163.239 136.984 154.33100000000002 136.984 146.939 C 136.984 146.939 136.842 142.817 140.30100000000002 140.44799999999998 C 140.30100000000002 140.44799999999998 141.91100000000003 139.35799999999998 143.14300000000003 139.35799999999998 C 143.14300000000003 139.35799999999998 144.94500000000002 139.07399999999998 145.03900000000002 142.15399999999997 C 145.03900000000002 142.15399999999997 146.12900000000002 157.50599999999997 150.63000000000002 163.23899999999998 C 150.63000000000002 163.23899999999998 151.55800000000002 164.42 152.66800000000003 161.76999999999998 C 152.66800000000003 161.76999999999998 153.35800000000003 160.20199999999997 154.18400000000003 159.022 C 154.18400000000003 159.022 154.98400000000004 157.744 155.51100000000002 159.638 C 157.04200000000003 165.142 159.15900000000002 171.246 159.15900000000002 171.246 C 160.26800000000003 174.07600000000002 157.50100000000003 173.94 157.50100000000003 173.94 z M 160.68200000000002 144.163 C 154.12300000000002 144.163 151.53000000000003 142.085 151.53000000000003 142.085 C 151.53000000000003 142.085 150.18600000000004 141.293 152.20400000000004 140.232 C 152.20400000000004 140.232 157.42500000000004 137.369 159.72700000000003 135.853 C 159.72700000000003 135.853 162.71400000000003 133.888 164.56700000000004 133.888 C 166.07300000000004 133.888 168.31700000000004 135.348 168.31700000000004 135.348 C 168.31700000000004 135.348 172.07900000000004 137.762 175.39100000000005 137.762 C 179.85700000000006 137.762 181.28700000000003 136.078 181.28700000000003 136.078 C 181.28700000000003 136.078 183.02500000000003 134.14000000000001 184.95100000000002 133.621 C 185.76300000000003 133.40200000000002 187.42000000000002 132.34 187.42000000000002 132.34 C 189.514 131.371 190.42000000000002 132.90200000000002 190.42000000000002 132.90200000000002 L 193.17000000000002 136.09 C 196.40400000000002 139.871 199.32600000000002 140.59 199.32600000000002 140.59 C 201.15400000000002 141.215 199.63800000000003 142.246 199.63800000000003 142.246 C 199.63800000000003 142.246 197.26300000000003 144.12800000000001 188.47400000000005 144.12800000000001 C 184.25300000000004 144.12800000000001 177.18700000000004 141.805 177.18700000000004 141.805 C 175.20100000000005 141.043 173.25800000000004 141.973 173.25800000000004 141.973 C 173.25800000000004 141.973 168.34200000000004 144.163 160.68200000000004 144.163 z M 208.39600000000002 103.96200000000002 C 208.39600000000002 103.96200000000002 208.64800000000002 104.14600000000002 208.52300000000002 104.41200000000002 C 208.52300000000002 104.41200000000002 208.419 104.81100000000002 207.52100000000002 104.81100000000002 C 205.187 104.81100000000002 200.866 101.31100000000002 200.866 101.31100000000002 C 200.866 101.31100000000002 199.76600000000002 100.42800000000003 197.804 100.42800000000003 C 196.955 100.42800000000003 195.696 100.62200000000003 195.696 100.62200000000003 C 194.57 100.86600000000003 193.203 100.86100000000003 193.203 100.86100000000003 C 191.32 100.86100000000003 192.567 99.85300000000004 192.567 99.85300000000004 C 192.567 99.85300000000004 195.49200000000002 97.45900000000003 198.48000000000002 97.52000000000004 C 200.62800000000001 97.56300000000005 202.484 99.34900000000003 202.484 99.34900000000003 C 202.484 99.34900000000003 206.38 102.68900000000004 208.39600000000002 103.96200000000003 z M 205.186 96.34600000000002 L 207.892 96.34600000000002 C 207.892 96.34600000000002 212.509 95.90500000000002 212.509 99.61100000000002 C 212.509 99.61100000000002 212.65499999999997 101.58200000000002 210.832 101.58200000000002 C 208.42 101.58200000000002 204.509 97.55200000000002 204.509 97.55200000000002 C 203.16299999999998 96.25600000000001 205.18599999999998 96.34600000000002 205.18599999999998 96.34600000000002 z M 186.734 148.293 C 186.691 148.39000000000001 186.508 148.537 186.327 148.62 C 186.146 148.703 185.289 148.941 184.423 149.148 C 183.559 149.356 182.097 149.639 181.175 149.777 C 180.25400000000002 149.915 178.906 150.07399999999998 178.18 150.129 L 175.51500000000001 150.331 C 174.775 150.386 173.72400000000002 150.432 173.18 150.432 C 172.636 150.432 171.745 150.387 171.201 150.331 C 170.656 150.27499999999998 169.891 150.071 169.5 149.878 C 169.109 149.684 168.558 149.34699999999998 168.276 149.129 C 167.99400000000003 148.911 167.68200000000002 148.635 167.583 148.517 C 167.483 148.398 167.385 148.2 167.365 148.075 C 167.34500000000003 147.95 167.394 147.815 167.47400000000002 147.77599999999998 C 167.55400000000003 147.73699999999997 167.70000000000002 147.68399999999997 167.79800000000003 147.659 C 167.89600000000004 147.63400000000001 168.54800000000003 147.569 169.24600000000004 147.513 C 169.94400000000005 147.45700000000002 171.23500000000004 147.36700000000002 172.11400000000003 147.312 C 172.99400000000003 147.257 174.83300000000003 147.211 176.20100000000002 147.211 C 177.56900000000002 147.211 179.61400000000003 147.256 180.74500000000003 147.312 C 181.87600000000003 147.36700000000002 183.41700000000003 147.46900000000002 184.17100000000002 147.53900000000002 C 184.925 147.608 185.758 147.71 186.02500000000003 147.76500000000001 C 186.29000000000002 147.82000000000002 186.57500000000005 147.92200000000003 186.65900000000002 147.99200000000002 C 186.743 148.062 186.77500000000003 148.19600000000003 186.734 148.293 z M 221.57500000000002 134.465 C 220.54500000000002 133.761 219.872 134.604 219.872 134.604 C 218.829 135.751 217.23000000000002 138.601 217.23000000000002 138.601 C 216.638 139.464 216.556 141.278 216.556 141.278 C 216.375 146.721 215.138 173.846 192.281 181.533 C 192.281 181.533 190.071 182.339 188.68200000000002 180.67999999999998 C 187.972 179.85899999999998 187.03900000000002 179.59099999999998 187.03900000000002 179.59099999999998 C 186.84300000000002 180.24599999999998 186.81900000000002 183.14 186.81900000000002 183.14 C 186.81900000000002 186.064 185.38000000000002 187.65599999999998 185.38000000000002 187.65599999999998 C 181.372 191.652 180.79900000000004 196.296 180.79900000000004 196.296 C 180.79900000000004 196.296 180.65300000000005 198.168 178.88200000000003 197.19 C 178.88200000000003 197.19 176.35700000000003 195.903 173.56000000000003 192.771 C 173.56000000000003 192.771 167.05100000000004 185.833 167.05100000000004 179.70499999999998 C 167.05100000000004 176.54799999999997 168.70600000000005 171.843 168.70600000000005 171.843 C 169.81500000000005 168.618 169.24400000000006 164.451 169.24400000000006 164.451 C 169.24400000000006 164.451 168.70600000000005 162.099 169.81500000000005 162.099 C 169.81500000000005 162.099 170.54500000000004 161.94899999999998 171.39400000000006 163.64399999999998 C 171.82700000000006 164.58899999999997 172.53600000000006 165.492 172.53600000000006 165.492 C 172.53600000000006 165.492 173.84700000000007 167.40699999999998 173.84700000000007 162.838 C 173.84700000000007 158.918 171.73000000000008 158.53799999999998 171.73000000000008 158.53799999999998 C 171.73000000000008 158.53799999999998 168.76400000000007 157.82399999999998 168.84200000000007 156.79299999999998 C 168.84200000000007 156.79299999999998 168.46700000000007 154.80899999999997 174.62300000000008 154.80899999999997 L 175.17000000000007 154.80899999999997 C 175.17000000000007 154.80899999999997 177.97100000000006 154.94799999999998 180.47800000000007 154.94799999999998 C 180.47800000000007 154.94799999999998 185.49100000000007 155.18099999999998 190.53500000000005 153.432 C 190.53500000000005 153.432 192.29600000000005 152.762 193.54600000000005 152.71499999999997 C 193.54600000000005 152.71499999999997 197.42100000000005 152.58999999999997 197.64000000000004 156.54299999999998 C 197.64000000000004 156.54299999999998 197.74900000000005 157.777 197.76500000000004 158.48099999999997 L 197.76500000000004 158.74299999999997 C 197.76500000000004 158.74299999999997 197.65600000000003 163.46599999999998 199.10700000000006 163.46599999999998 C 200.98400000000007 163.46599999999998 201.43700000000007 159.52399999999997 201.43700000000007 159.52399999999997 C 201.43700000000007 159.52399999999997 202.18100000000007 154.74699999999999 203.93700000000007 152.62199999999999 C 203.93700000000007 152.62199999999999 207.47600000000006 149.14399999999998 207.47600000000006 142.97099999999998 L 207.47600000000006 140.53599999999997 C 207.47600000000006 140.53599999999997 207.41700000000006 138.68999999999997 206.91400000000004 137.23699999999997 C 206.59500000000006 136.00799999999995 205.31700000000004 135.42199999999997 205.31700000000004 135.42199999999997 C 204.45500000000004 135.01499999999996 202.51900000000003 134.03699999999998 201.73700000000002 133.10799999999998 C 201.73700000000002 133.10799999999998 197.8 128.73899999999998 196.27700000000002 126.10699999999997 C 196.27700000000002 126.10699999999997 194.126 122.56799999999997 189.31900000000002 121.21899999999997 C 189.31900000000002 121.21899999999997 186.412 120.45299999999996 187.79800000000003 123.78199999999997 C 187.79800000000003 123.78199999999997 189.09900000000002 126.69399999999997 186.63300000000004 128.17599999999996 C 186.63300000000004 128.17599999999996 182.62500000000003 131.03799999999995 177.87000000000003 131.03799999999995 C 171.90000000000003 131.03799999999995 168.69600000000003 126.45699999999995 168.69600000000003 126.45699999999995 C 168.69600000000003 126.45699999999995 166.20100000000002 123.29399999999995 168.34900000000002 118.55299999999995 C 168.34900000000002 118.55299999999995 170.67200000000003 113.63899999999995 170.93900000000002 111.42299999999996 C 170.93900000000002 111.42299999999996 171.49900000000002 107.13699999999996 172.06100000000004 104.34699999999997 C 172.06100000000004 104.34699999999997 172.45200000000003 101.14699999999996 174.81100000000004 101.14299999999997 C 178.03000000000003 101.13799999999998 178.17500000000004 103.19899999999997 178.17500000000004 103.19899999999997 C 178.17500000000004 103.19899999999997 178.87300000000005 107.32499999999997 180.81900000000005 109.25999999999996 C 180.81900000000005 109.25999999999996 181.45200000000006 109.88699999999996 182.36800000000005 109.90099999999997 C 182.36800000000005 109.90099999999997 183.28000000000006 109.91899999999997 184.15700000000004 109.01999999999997 C 184.15700000000004 109.01999999999997 185.34300000000005 107.99699999999997 184.69000000000003 106.77699999999997 C 184.69000000000003 106.77699999999997 183.717 104.94999999999997 184.29500000000002 104.65299999999998 C 184.29500000000002 104.65299999999998 184.717 104.43399999999998 185.51000000000002 104.89899999999997 C 185.51000000000002 104.89899999999997 189.42800000000003 107.01499999999997 194.54600000000002 107.01499999999997 C 194.54600000000002 107.01499999999997 196.99800000000002 107.09099999999997 200.639 106.21599999999997 C 200.639 106.21599999999997 204.092 105.48199999999997 204.827 107.74699999999997 C 204.827 107.74699999999997 205.405 109.54399999999997 207.515 109.62199999999997 C 207.515 109.62199999999997 210.39 109.60599999999997 210.421 110.93399999999997 C 210.486 113.69899999999997 207.68699999999998 115.24599999999997 207.68699999999998 115.24599999999997 C 207.68699999999998 115.24599999999997 206.796 116.08999999999996 202.37499999999997 117.22999999999996 C 202.37499999999997 117.22999999999996 200.82799999999997 117.60499999999996 200.85899999999998 118.63599999999997 C 200.85899999999998 118.63599999999997 200.79699999999997 120.53499999999997 203.15599999999998 120.52699999999997 C 207.59399999999997 120.51099999999997 210.09399999999997 118.40199999999997 210.09399999999997 118.40199999999997 C 210.09399999999997 118.40199999999997 214.03199999999995 116.08999999999997 215.95699999999997 106.00699999999998 L 216.81899999999996 101.98299999999998 C 216.81899999999996 101.98299999999998 217.10599999999997 99.58799999999998 219.26199999999997 98.96499999999997 L 221.99199999999996 98.19799999999998 C 221.99199999999996 98.19799999999998 223.82699999999997 97.72899999999998 223.81199999999995 99.77899999999998 C 223.81199999999995 99.77899999999998 224.00299999999996 105.23999999999998 223.71599999999995 109.11999999999998 C 223.71599999999995 109.11999999999998 223.37299999999996 112.11999999999998 225.00999999999996 111.08399999999997 C 225.00999999999996 111.08399999999997 228.21899999999997 109.26399999999998 227.93199999999996 106.72499999999998 C 227.93199999999996 106.72499999999998 227.64499999999995 105.23999999999998 227.64499999999995 104.13799999999998 C 227.64499999999995 104.13799999999998 227.52999999999994 100.00999999999998 230.51899999999995 100.11399999999998 C 230.51899999999995 100.11399999999998 234.74799999999996 99.82299999999998 232.96199999999996 107.06099999999998 C 232.96199999999996 107.06099999999998 230.43899999999996 118.19799999999998 227.48399999999995 128.38299999999998 C 227.48399999999995 128.38299999999998 225.35699999999994 136.82399999999998 221.57499999999996 134.46499999999997 z M 221.388 94.997 C 221.388 95.575 220.06 95.758 220.06 95.758 C 219.466 95.789 218.451 96.152 218.451 96.152 C 218.451 96.152 218.232 96.224 217.92 96.216 C 217.117 96.19399999999999 216.46699999999998 95.592 216.46699999999998 94.871 L 216.46699999999998 94.824 C 216.46699999999998 94.103 217.117 93.53699999999999 217.92 93.559 C 218.232 93.567 218.451 93.651 218.451 93.651 C 218.451 93.651 219.46699999999998 94.07 220.06 94.13199999999999 C 220.06 94.13199999999999 221.388 94.38699999999999 221.388 94.96499999999999 z M 227.951 83.902 C 227.951 83.902 227.67 86.118 226.881 86.118 C 226.208 86.118 225.95 84.911 225.95 84.911 C 222.129 70.01 217.381 62.478 217.381 62.478 C 215.76 59.901 215.799 63.42 215.799 63.42 L 215.69 73.012 C 215.69 73.012 222.185 81.145 222.185 90.26 L 222.174 90.555 C 222.17136401090573 90.8853503389938 222.14058603083507 91.21487545170687 222.082 91.54 C 222.00799999999998 91.899 221.51399999999998 91.748 221.51399999999998 91.748 C 221.034 91.66600000000001 220.54399999999998 91.599 220.54399999999998 91.599 C 209.39399999999998 89.86800000000001 192.80899999999997 90.995 192.80899999999997 90.995 C 186.04499999999996 91.12100000000001 180.45199999999997 96.24000000000001 180.45199999999997 96.24000000000001 C 179.31099999999998 97.30900000000001 177.77499999999998 96.83500000000001 177.77499999999998 96.83500000000001 C 177.77499999999998 96.83500000000001 176.21399999999997 96.43900000000001 175.29699999999997 96.43900000000001 C 174.18199999999996 96.43900000000001 172.91799999999998 96.811 172.91799999999998 96.811 C 172.075 97.08300000000001 171.39499999999998 97.10700000000001 171.39499999999998 97.10700000000001 C 170.16299999999998 97.10700000000001 167.76399999999998 94.96700000000001 167.76399999999998 94.96700000000001 C 162.92 90.87200000000001 157.325 91.07700000000001 157.325 91.07700000000001 L 132.68599999999998 90.88200000000002 C 132.68599999999998 90.88200000000002 132.253 84.71700000000001 136.25099999999998 83.49100000000001 C 136.25099999999998 83.49100000000001 138.771 82.71000000000001 139.117 80.38100000000001 C 139.117 80.38100000000001 139.68599999999998 76.03400000000002 142.08599999999998 68.31900000000002 C 142.08599999999998 68.31900000000002 146.49499999999998 50.423000000000016 161.927 50.423000000000016 C 168.78 50.423000000000016 174.506 53.47100000000002 174.506 53.47100000000002 C 174.506 53.47100000000002 176.118 54.43500000000002 177.16 53.52900000000002 L 180.061 50.88800000000002 C 180.952 50.03900000000002 180.077 49.19500000000002 180.077 49.19500000000002 C 180.077 49.19500000000002 169.91 37.11 157.16 37.11 L 156.827 37.027 C 147.577 37.027 137.755 41.269 137.755 41.269 C 139.536 36.071 152.867 30.872999999999998 152.867 30.872999999999998 C 158.88299999999998 28.467 152.771 28.177999999999997 152.771 28.177999999999997 C 147.875 27.906 151.61599999999999 26.06 151.61599999999999 26.06 C 151.61599999999999 26.06 160.55599999999998 21.276 174.952 21.276 C 197.327 21.276 213.702 36.400999999999996 213.702 36.400999999999996 C 233.576 53.527 227.951 83.90199999999999 227.951 83.90199999999999 z" stroke-linecap="round" />
</g>
</g>
</g>
</svg>