<?xml version="1.0" encoding="UTF-8" standalone="no" ?>
<!DOCTYPE svg PUBLIC "-//W3C//DTD SVG 1.1//EN" "http://www.w3.org/Graphics/SVG/1.1/DTD/svg11.dtd">
<svg xmlns="http://www.w3.org/2000/svg" xmlns:xlink="http://www.w3.org/1999/xlink" version="1.1" width="1080" height="1080" viewBox="0 0 1080 1080" xml:space="preserve">
<desc>Created with Fabric.js 5.2.4</desc>
<defs>
</defs>
<g transform="matrix(1 0 0 1 540 540)" id="baae4115-5746-4de3-8ca2-a5d13b5818ed"  >
<rect style="stroke: none; stroke-width: 1; stroke-dasharray: none; stroke-linecap: butt; stroke-dashoffset: 0; stroke-linejoin: miter; stroke-miterlimit: 4; fill: rgb(255,255,255); fill-rule: nonzero; opacity: 1; visibility: hidden;" vector-effect="non-scaling-stroke"  x="-540" y="-540" rx="0" ry="0" width="1080" height="1080" />
</g>
<g transform="matrix(1 0 0 1 540 540)" id="07d7e790-4956-4a50-90e8-3f33e358f863"  >
</g>
<g transform="matrix(0.84 0 0 0.79 530 540.6)"  >
<g style="" vector-effect="non-scaling-stroke"   >
		<g transform="matrix(1 0 0 1 0 0)"  >
<rect style="stroke: none; stroke-width: 1; stroke-dasharray: none; stroke-linecap: butt; stroke-dashoffset: 0; stroke-linejoin: miter; stroke-miterlimit: 4; fill: rgb(255,255,255); fill-rule: nonzero; opacity: 1; visibility: hidden;" vector-effect="non-scaling-stroke"  x="-540" y="-540" rx="0" ry="0" width="1080" height="1080" />
</g>
		<g transform="matrix(19.21 0 0 22.32 -10.03 -10.07)"  >
<path style="stroke: none; stroke-width: 1; stroke-dasharray: none; stroke-linecap: butt; stroke-dashoffset: 0; stroke-linejoin: miter; stroke-miterlimit: 4; fill: rgb(241,187,0); fill-rule: evenodd; opacity: 1;" vector-effect="non-scaling-stroke"  transform=" translate(-24.08, -20.6)" d="M 48.134 39.985 C 47.922 29.674 46.261 19.75 43.455 12.041999999999998 C 40.627 4.277 37.097 0 33.518 0 C 31.294 0 29.205000000000002 1.618 27.306 4.812 C 26.130000000000003 6.793 25.034000000000002 9.394 24.081 12.455 C 23.125 9.394 22.031 6.793 20.852999999999998 4.812 C 18.956 1.618 16.866 0 14.642 0 C 11.059999999999999 0 7.531999999999999 4.277 4.705 12.042 C 1.9 19.75 0.238 29.674 0.026 39.984 L 0 41.194 L 7.187 41.194 L 7.2010000000000005 40.026 C 7.48 18.484 12.611 4.821000000000005 14.701 4.821000000000005 C 16.109 4.821000000000005 19.707 14.282000000000005 20.253 37.706 L 20.281 38.86 L 27.878999999999998 38.86 L 27.906 37.706 C 28.451 14.282 32.05 4.82 33.458 4.82 C 35.549 4.82 40.678 18.483 40.958 40.025 L 40.973 41.193999999999996 L 48.157 41.193999999999996 z" stroke-linecap="round" />
</g>
		<g transform="matrix(19.21 0 0 22.32 -9.97 -10.11)"  >
<path style="stroke: none; stroke-width: 1; stroke-dasharray: none; stroke-linecap: butt; stroke-dashoffset: 0; stroke-linejoin: miter; stroke-miterlimit: 4; fill: rgb(241,187,0); fill-rule: evenodd; opacity: 1;" vector-effect="non-scaling-stroke"  transform=" translate(-24.08, -20.6)" d="M 47.59 39.998 C 47.38 29.744999999999997 45.728 19.887999999999998 42.943000000000005 12.237999999999996 C 40.243 4.813 36.807 0.555 33.518 0.555 C 29.918 0.555 26.528 5.5569999999999995 24.081000000000003 14.374 C 21.633 5.558 18.242 0.556 14.64 0.556 C 11.353000000000002 0.556 7.916 4.814 5.214 12.236999999999998 C 2.43 19.887 0.78 29.745 0.57 39.998 L 0.5569999999999999 40.637 L 6.65 40.637 L 6.657 40.019 C 6.94 18.188 12.097999999999999 4.263999999999996 14.701 4.263999999999996 C 16.931 4.263999999999996 20.29 15.879999999999995 20.798000000000002 37.690999999999995 L 20.814 38.303999999999995 L 27.347 38.303999999999995 L 27.361 37.690999999999995 C 27.869 15.880999999999997 31.23 4.263999999999996 33.458 4.263999999999996 C 36.062 4.263999999999996 41.22 18.187999999999995 41.501999999999995 40.019 L 41.51 40.637 L 47.602999999999994 40.637 z" stroke-linecap="round" />
</g>
		<g transform="matrix(19.21 0 0 22.32 -297.67 3.79)"  >
<path style="stroke: none; stroke-width: 1; stroke-dasharray: none; stroke-linecap: butt; stroke-dashoffset: 0; stroke-linejoin: miter; stroke-miterlimit: 4; fill: rgb(241,187,0); fill-rule: evenodd; opacity: 1;" vector-effect="non-scaling-stroke"  transform=" translate(-9.1, -21.21)" d="M 14.574 2.414 L 14.574 3.646 C 11.021 4.018 6.304 19.909000000000002 6.045 40.011 L 3.628 37.537000000000006 L 3.628 37.47500000000001 C 4.396 17.765000000000008 9.768 2.57200000000001 14.574 2.4150000000000063 z" stroke-linecap="round" />
</g>
		<g transform="matrix(19.21 0 0 22.32 -22.11 -35.83)"  >
<path style="stroke: none; stroke-width: 1; stroke-dasharray: none; stroke-linecap: butt; stroke-dashoffset: 0; stroke-linejoin: miter; stroke-miterlimit: 4; fill: rgb(241,187,0); fill-rule: evenodd; opacity: 1;" vector-effect="non-scaling-stroke"  transform=" translate(-23.44, -19.43)" d="M 14.45 1.192 L 14.863 1.192 C 18.426 1.432 21.817 7.47 24.075 16.798 L 24.075 34.824 C 23.195 16.205 19.279 2.4110000000000014 14.649 2.4110000000000014 C 13.693999999999999 2.4110000000000014 12.715 3.0110000000000015 11.753 4.125000000000002 L 11.753 2.387 C 12.653 1.654 13.559000000000001 1.244 14.45 1.192 z M 35.135 2.963 L 35.135 4.69 C 34.561 4.003 33.995 3.6370000000000005 33.458 3.6370000000000005 C 30.028 3.6370000000000005 27.195 18.457 26.747999999999998 37.678 L 24.083 34.949 L 24.083 34.906 C 24.953 16.246 28.874 2.4110000000000014 33.510999999999996 2.4110000000000014 C 34.047 2.4110000000000014 34.590999999999994 2.6010000000000013 35.135 2.9630000000000014 z" stroke-linecap="round" />
</g>
		<g transform="matrix(19.21 0 0 22.32 311.32 -7.97)"  >
<path style="stroke: none; stroke-width: 1; stroke-dasharray: none; stroke-linecap: butt; stroke-dashoffset: 0; stroke-linejoin: miter; stroke-miterlimit: 4; fill: rgb(241,187,0); fill-rule: evenodd; opacity: 1;" vector-effect="non-scaling-stroke"  transform=" translate(-40.81, -20.69)" d="M 46.969 39.72 L 46.969 40.003 L 44.546 37.525 L 44.536 37.535 C 43.83 19.239999999999995 39.157000000000004 4.821999999999996 34.648 2.684999999999995 L 34.648 1.3749999999999951 C 40.422 3.29 46.5 19.476 46.968 39.72 z" stroke-linecap="round" />
</g>
</g>
</g>
</svg>