<?xml version="1.0" encoding="UTF-8" standalone="no" ?>
<!DOCTYPE svg PUBLIC "-//W3C//DTD SVG 1.1//EN" "http://www.w3.org/Graphics/SVG/1.1/DTD/svg11.dtd">
<svg xmlns="http://www.w3.org/2000/svg" xmlns:xlink="http://www.w3.org/1999/xlink" version="1.1" width="1080" height="1080" viewBox="0 0 1080 1080" xml:space="preserve">
<desc>Created with Fabric.js 5.2.4</desc>
<defs>
</defs>
<g transform="matrix(1 0 0 1 540 540)" id="a9cd2c32-5da1-4f72-b9d2-93ce04eca364"  >
<rect style="stroke: none; stroke-width: 1; stroke-dasharray: none; stroke-linecap: butt; stroke-dashoffset: 0; stroke-linejoin: miter; stroke-miterlimit: 4; fill: rgb(255,255,255); fill-rule: nonzero; opacity: 1; visibility: hidden;" vector-effect="non-scaling-stroke"  x="-540" y="-540" rx="0" ry="0" width="1080" height="1080" />
</g>
<g transform="matrix(1 0 0 1 540 540)" id="fbc8b651-caca-4f7c-a642-b67d515e11be"  >
</g>
<g transform="matrix(3.47 0 0 3.47 530.61 550)"  >
<g style="" vector-effect="non-scaling-stroke"   >
		<g transform="matrix(0.06 0 0 -0.06 1.84 0)" id="path8"  >
<path style="stroke: none; stroke-width: 1; stroke-dasharray: none; stroke-linecap: butt; stroke-dashoffset: 0; stroke-linejoin: miter; stroke-miterlimit: 4; fill: rgb(238,58,67); fill-rule: nonzero; opacity: 1;" vector-effect="non-scaling-stroke"  transform=" translate(-3149.36, -2288.33)" d="M 3115 4346 C 3060 4339 2993 4328 2965 4322 C 2915 4312 2830 4294 2695 4266 C 2605 4248 2412 4189 2335 4157 C 2302 4144 2264 4129 2250 4125 C 2174 4101 1938 3982 1845 3921 C 1695 3821 1673 3805 1610 3751 C 1324 3506 1128 3208 1033 2875 C 989 2720 979 2641 980 2440 C 980 2235 990 2160 1024 2115 C 1084 2037 1130 2067 1130 2184 C 1130 2402 1178 2668 1256 2880 C 1400 3272 1688 3596 2062 3788 C 2217 3867 2263 3884 2440 3930 C 2496 3945 2532 3943 2528 3925 C 2526 3915 2450 3876 2333 3826 C 2010 3686 1912 3625 1747 3463 C 1517 3238 1385 3018 1299 2716 C 1258 2573 1246 2409 1253 2095 C 1261 1763 1272 1659 1311 1540 C 1345 1437 1431 1256 1482 1181 C 1542 1095 1757 881 1846 820 C 1858 812 1903 780 1946 750 C 2110 636 2267 555 2395 521 C 2489 495 2662 460 2695 460 C 2727 460 2747 435 2730 415 C 2716 398 2626 395 2550 409 C 2328 450 2165 503 1985 591 C 1786 689 1569 879 1392 1112 C 1267 1276 1235 1305 1206 1280 C 1150 1234 1205 1055 1329 880 C 1440 724 1667 521 1825 437 C 2155 261 2563 189 2965 235 C 3285 273 3566 358 3855 507 C 3918 539 3943 555 4043 622 C 4059 633 4091 655 4116 672 C 4185 719 4381 911 4447 997 C 4698 1326 4833 1620 4881 1940 C 4908 2118 4891 2546 4849 2775 C 4804 3014 4764 3123 4657 3297 C 4585 3413 4571 3431 4469 3533 C 4244 3758 3891 3959 3669 3990 C 3475 4017 3452 4022 3431 4041 C 3384 4085 3415 4114 3502 4107 C 3722 4089 3898 4033 4125 3907 C 4374 3770 4568 3620 4686 3473 C 4861 3256 4995 2888 5031 2530 C 5049 2353 5037 1961 5011 1835 C 4955 1569 4918 1455 4829 1276 C 4662 941 4415 691 3982 421 C 3926 385 3905 358 3914 333 C 3919 320 3931 318 3973 323 C 4074 334 4211.8903 407.8408 4378 529 C 4489.2285 610.12922 4489.6745 614.18187 4558 672 C 4612.4134 718.04545 4859 956 4932 1050 C 5079 1241 5159 1392 5219 1592 C 5295 1850 5327 2136 5317 2475 C 5313 2585 5306 2693 5301 2715 C 5296 2737 5283 2800 5271 2855 C 5204 3170 5043 3506 4845 3745 C 4582 4062 4247 4242 3740 4337 C 3634 4356 3242 4362 3115 4346 z M 3576 3532 C 3596 3519 3609 3485 3621 3414 C 3627 3376 3641 3323 3650 3295 L 3667 3245 L 3876 3174 C 4092 3101 4122 3089 4276 3014 C 4388 2960 4415 2934 4405 2891 C 4397 2855 4350 2825 4317 2834 C 4306 2837 4120 2835 3906 2829 C 3542 2820 3119 2794 2955 2770 C 2917 2764 2833 2753 2770 2745 C 2649 2730 2531 2714 2290 2680 C 2210 2669 2111 2655 2070 2650 C 2029 2644 1953 2633 1902 2624 C 1817 2610 1806 2610 1784 2625 C 1757 2642 1758 2642 1766 2664 C 1785 2714 2146 2919 2400 3025 C 2463 3052 2521 3077 2528 3083 C 2535 3088 2584 3157 2636 3236 C 2701 3334 2739 3381 2753 3384 C 2765 3386 2856 3405 2955 3425 C 3054 3445 3149 3463 3165 3466 C 3182 3469 3254 3484 3325 3500 C 3501 3539 3556 3546 3576 3532 z M 2918 2667 C 2920 2657 2911 2632 2898 2612 C 2884 2592 2860 2555 2844 2530 C 2802 2466 2743 2410 2718 2410 C 2689 2410 2660 2438 2660 2467 C 2660 2530 2729 2611 2825 2659 C 2890 2693 2913 2694 2918 2667 z M 4168 2518 C 4185 2501 4183 2462 4160 2396 C 4140 2341 4140 2337 4156 2319 C 4165 2308 4183 2300 4195 2300 C 4225 2300 4265 2267 4255 2251 C 4242 2230 4168 2200 4127 2200 C 4105 2200 4073 2207 4054 2216 C 4023 2231 4019 2231 3991 2211 C 3926 2164 3836 2129 3788 2132 C 3763 2133 3736 2129 3728 2123 C 3665 2072 3577 2050 3426 2049 C 3370 2049 3304 2045 3278 2041 C 3197 2028 3179 2060 3226 2134 C 3248 2168 3376 2286 3470 2359 C 3484 2370 3493 2380 3490 2383 C 3487 2386 3454 2383 3415 2378 C 3377 2373 3331 2371 3312 2375 C 3273 2382 3240 2412 3240 2439 C 3240 2475 3267 2490 3333 2490 C 3367 2490 3426 2497 3465 2505 C 3503 2513 3562 2520 3594 2520 C 3666 2520 3690 2503 3690 2453 C 3690 2422 3676 2404 3569 2295 C 3503 2227 3452 2170 3457 2167 C 3474 2158 3626 2151 3659 2158 L 3694 2166 L 3691 2221 C 3689 2269 3693 2282 3723 2325 C 3767 2390 3859 2464 3930 2492 C 3960 2504 4019 2517 4060 2520 C 4101 2524 4140 2527 4146 2528 C 4151 2529 4161 2525 4168 2518 z M 2362 2499 C 2423 2475 2476 2429 2496 2383 C 2504 2365 2510 2324 2510 2292 C 2510 2176 2421 2067 2281 2012 C 2175 1970 2136 1964 2104 1985 C 2090 1994 2077 2000 2076 1998 C 2074 1996 2064 1970 2052 1940 C 1908 1571 1868 1502 1818 1547 C 1800 1563 1798 1573 1803 1640 C 1814 1789 1916 2079 2021 2258 C 2048 2303 2070 2342 2070 2343 C 2070 2345 2055 2344 2036 2342 C 2009 2339 1999 2342 1990 2359 C 1975 2387 1983 2410 2021 2446 C 2091 2513 2259 2540 2362 2499 z M 3211 2379 C 3237 2353 3231 2322 3187 2261 C 3152 2213 3138 2197 3033 2089 L 2961 2015 L 3073 2014 C 3135 2014 3244 2011 3315 2009 C 3407 2006 3459 2009 3493 2019 C 3581 2044 3580 1990 3492 1947 C 3423 1912 3348 1901 3135 1896 C 3010 1892 2921 1885 2875 1874 C 2728 1839 2700 1844 2700 1905 C 2700 1947 2741 1997 2894 2140 C 3034 2270 3044 2283 2997 2269 C 2952 2256 2856 2258 2825 2272 C 2811 2278 2797 2295 2793 2308 C 2782 2352 2814 2366 2942 2375 C 3004 2379 3075 2386 3100 2390 C 3174 2402 3189 2401 3211 2379 z M 2730 2334 C 2753 2274 2733 2189 2656 2027 C 2625 1962 2600 1902 2600 1892 C 2600 1846 2546 1836 2509 1876 C 2488 1898 2485 1911 2485 1973 C 2485 2038 2489 2052 2524 2115 C 2566 2191 2667 2340 2685 2352 C 2704 2366 2721 2360 2730 2334 z M 3880 1940 C 3880 1924 3872 1895 3863 1875 C 3854 1856 3849 1837 3853 1834 C 3856 1830 3897 1837 3943 1848 C 4052 1876 4135 1886 4144 1872 C 4157 1851 4081 1815 3825 1718 C 3789 1704 3784 1697 3765 1639 C 3753 1604 3736 1557 3726 1535 C 3716 1513 3697 1460 3684 1417 C 3631 1251 3606 1218 3580 1280 C 3562 1323 3573 1452 3603 1570 C 3629 1670 3627 1680 3582 1680 C 3551 1680 3508 1724 3517 1747 C 3530 1785 3542 1790 3614 1790 L 3687 1790 L 3734 1864 C 3792 1957 3833 1994 3861 1980 C 3873 1973 3880 1959 3880 1940 z M 2987 1814 C 2990 1805 2981 1750 2966 1691 C 2934 1564 2933 1545 2958 1555 C 2967 1559 2986 1565 2998 1568 C 3035 1576 3023 1531 2980 1503 C 2919 1462 2912 1452 2905 1403 C 2901 1377 2892 1330 2885 1300 C 2878 1270 2869 1233 2866 1218 C 2855 1171 2813 1130 2774 1130 C 2717 1130 2697 1195 2720 1310 C 2724 1335 2727 1356 2725 1358 C 2724 1359 2678 1346 2624 1327 L 2525 1294 L 2494 1169 C 2459 1029 2442 991 2404 961 C 2370 934 2338 934 2314 961 C 2290 988 2290 1102 2314 1173 C 2341 1252 2337 1266 2288 1273 C 2234 1280 2194 1320 2210 1350 C 2224 1377 2264 1396 2338 1411 C 2392 1422 2402 1428 2407 1450 C 2415 1484 2512 1670 2550 1725 C 2607 1808 2651 1833 2665 1791 C 2673 1766 2639 1626 2606 1541 C 2591 1505 2580 1472 2580 1467 C 2580 1457 2628 1464 2712 1487 C 2768 1502 2768 1502 2791 1564 C 2828 1663 2885 1773 2915 1803 C 2946 1833 2977 1838 2987 1814 z M 3492 1707 C 3495 1694 3490 1634 3483 1574 C 3475 1514 3471 1437 3474 1403 C 3478 1353 3476 1341 3463 1336 C 3437 1326 3388 1362 3363 1409 C 3350 1434 3338 1455 3336 1457 C 3334 1460 3310 1438 3284 1410 C 3199 1319 3103 1287 3050 1331 C 3029 1349 3025 1360 3026 1409 C 3026 1442 3036 1491 3050 1529 L 3074 1593 L 3051 1611 C 3023 1634 3034 1654 3081 1664 C 3127 1673 3159 1661 3175 1629 C 3192 1597 3195 1523 3180 1486 C 3167 1450 3178 1453 3243 1504 C 3304 1551 3357 1610 3398 1675 C 3427 1721 3437 1730 3466 1730 C 3481 1730 3489 1723 3492 1707 z" stroke-linecap="round" />
</g>
		<g transform="matrix(0.06 0 0 -0.06 46.64 -2.95)" id="path10"  >
<path style="stroke: none; stroke-width: 1; stroke-dasharray: none; stroke-linecap: butt; stroke-dashoffset: 0; stroke-linejoin: miter; stroke-miterlimit: 4; fill: rgb(238,58,67); fill-rule: nonzero; opacity: 1;" vector-effect="non-scaling-stroke"  transform=" translate(-3938.48, -2340.3)" d="M 3965 2391 C 3926 2374 3850 2300 3850 2280 C 3850 2264 3868 2268 3936 2300 C 3986 2323 4001 2335 4006 2357 C 4010 2372 4017 2391 4023 2398 C 4037 2416 4013 2413 3965 2391 z" stroke-linecap="round" />
</g>
		<g transform="matrix(0.06 0 0 -0.06 -50.47 5.62)" id="path12"  >
<path style="stroke: none; stroke-width: 1; stroke-dasharray: none; stroke-linecap: butt; stroke-dashoffset: 0; stroke-linejoin: miter; stroke-miterlimit: 4; fill: rgb(238,58,67); fill-rule: nonzero; opacity: 1;" vector-effect="non-scaling-stroke"  transform=" translate(-2227.96, -2189.27)" d="M 2185 2362 C 2182 2359 2180 2343 2180 2327 C 2180 2311 2160 2238 2135 2164 C 2084 2014 2083 2006 2108 2019 C 2117 2024 2154 2040 2189 2056 C 2268 2092 2344 2163 2359 2215 C 2367 2246 2366 2259 2350 2289 C 2340 2310 2319 2332 2303 2340 C 2271 2355 2193 2369 2185 2362 z" stroke-linecap="round" />
</g>
		<g transform="matrix(0.06 0 0 -0.06 -117.83 35.09)" id="path14"  >
<path style="stroke: none; stroke-width: 1; stroke-dasharray: none; stroke-linecap: butt; stroke-dashoffset: 0; stroke-linejoin: miter; stroke-miterlimit: 4; fill: rgb(238,58,67); fill-rule: nonzero; opacity: 1;" vector-effect="non-scaling-stroke"  transform=" translate(-1041.51, -1670.18)" d="M 952 1872 C 918 1836 908 1777 920 1691 C 939 1557 970 1498 1040 1463 C 1094 1435 1131 1434 1155 1460 C 1171 1477 1171 1488 1161 1582 C 1155 1639 1147 1710 1144 1740 C 1133 1845 1100 1889 1026 1897 C 985 1902 978 1900 952 1872 z" stroke-linecap="round" />
</g>
		<g transform="matrix(0.57 0 0 0.56 90.17 94.07)" id="path3791"  >
<path style="stroke: none; stroke-width: 1; stroke-dasharray: none; stroke-linecap: butt; stroke-dashoffset: 0; stroke-linejoin: miter; stroke-miterlimit: 4; fill: rgb(238,58,67); fill-rule: nonzero; opacity: 1;" vector-effect="non-scaling-stroke"  transform=" translate(-464.56, -399.93)" d="M 463.92712 404.63824 L 463.92712 396.34126 L 460.82778 396.34126 L 460.82778 395.23114999999996 L 468.28416000000004 395.23114999999996 L 468.28416000000004 396.34126 L 465.17199000000005 396.34126 L 465.17199000000005 404.63824 z" stroke-linecap="round" />
</g>
		<g transform="matrix(0.57 0 0 0.56 95.61 94.07)" id="path3793"  >
<path style="stroke: none; stroke-width: 1; stroke-dasharray: none; stroke-linecap: butt; stroke-dashoffset: 0; stroke-linejoin: miter; stroke-miterlimit: 4; fill: rgb(238,58,67); fill-rule: nonzero; opacity: 1;" vector-effect="non-scaling-stroke"  transform=" translate(-474.02, -399.93)" d="M 469.52903 404.63824 L 469.52903 395.23115 L 471.40274999999997 395.23115 L 473.62938999999994 401.89183 C 473.8347299999999 402.51213 473.9844499999999 402.97628000000003 474.07856999999996 403.28429000000006 C 474.18551999999994 402.9420600000001 474.35234999999994 402.43941000000007 474.57908999999995 401.77633000000003 L 476.8314 395.23115 L 478.5062 395.23115 L 478.5062 404.63824 L 477.30625 404.63824 L 477.30625 396.76477 L 474.57266999999996 404.63824 L 473.44971999999996 404.63824 L 470.72898 396.63002 L 470.72898 404.63824 z" stroke-linecap="round" />
</g>
</g>
</g>
</svg>