<?xml version="1.0" encoding="UTF-8" standalone="no" ?>
<!DOCTYPE svg PUBLIC "-//W3C//DTD SVG 1.1//EN" "http://www.w3.org/Graphics/SVG/1.1/DTD/svg11.dtd">
<svg xmlns="http://www.w3.org/2000/svg" xmlns:xlink="http://www.w3.org/1999/xlink" version="1.1" width="1080" height="1080" viewBox="0 0 1080 1080" xml:space="preserve">
<desc>Created with Fabric.js 5.2.4</desc>
<defs>
</defs>
<g transform="matrix(1 0 0 1 540 540)" id="468ab4e1-313e-48e3-b71b-b1925a2bf2db"  >
<rect style="stroke: none; stroke-width: 1; stroke-dasharray: none; stroke-linecap: butt; stroke-dashoffset: 0; stroke-linejoin: miter; stroke-miterlimit: 4; fill: rgb(255,255,255); fill-rule: nonzero; opacity: 1; visibility: hidden;" vector-effect="non-scaling-stroke"  x="-540" y="-540" rx="0" ry="0" width="1080" height="1080" />
</g>
<g transform="matrix(1 0 0 1 540 540)" id="f5bd51ce-c84a-4f91-8fb1-1181cfbfbde3"  >
</g>
<g transform="matrix(0.36 0 0 0.36 530 540)"  >
<g style="" vector-effect="non-scaling-stroke"   >
		<g transform="matrix(19.31 0 0 19.31 5.1 -9.55)"  >
<path style="stroke: none; stroke-width: 1; stroke-dasharray: none; stroke-linecap: butt; stroke-dashoffset: 0; stroke-linejoin: miter; stroke-miterlimit: 4; fill: rgb(57,118,87); fill-rule: nonzero; opacity: 1;" vector-effect="non-scaling-stroke"  transform=" translate(-64, -64.24)" d="M 1.621 64.241 C 1.621 29.790999999999997 29.548 1.860999999999997 64.002 1.860999999999997 C 98.453 1.860999999999997 126.381 29.790999999999997 126.381 64.241 C 126.381 98.694 98.453 126.62100000000001 64.00200000000001 126.62100000000001 C 29.54800000000001 126.62100000000001 1.6210000000000093 98.69300000000001 1.6210000000000093 64.24100000000001" stroke-linecap="round" />
</g>
		<g transform="matrix(19.31 0 0 19.31 5.1 -9.53)"  >
<path style="stroke: none; stroke-width: 1; stroke-dasharray: none; stroke-linecap: butt; stroke-dashoffset: 0; stroke-linejoin: miter; stroke-miterlimit: 4; fill: rgb(255,255,255); fill-rule: nonzero; opacity: 1;" vector-effect="non-scaling-stroke"  transform=" translate(-64, -64.24)" d="M 3.46 64.241 C 3.46 30.807000000000002 30.564 3.701999999999998 64.00099999999999 3.701999999999998 C 97.43599999999999 3.701999999999998 124.54199999999999 30.807 124.54199999999999 64.241 C 124.54199999999999 97.676 97.43599999999998 124.782 64.00099999999999 124.782 C 30.564 124.781 3.46 97.676 3.46 64.241" stroke-linecap="round" />
</g>
		<g transform="matrix(19.31 0 0 19.31 5.1 -9.53)"  >
<path style="stroke: none; stroke-width: 1; stroke-dasharray: none; stroke-linecap: butt; stroke-dashoffset: 0; stroke-linejoin: miter; stroke-miterlimit: 4; fill: rgb(57,118,87); fill-rule: nonzero; opacity: 1;" vector-effect="non-scaling-stroke"  transform=" translate(-64, -64.24)" d="M 5.432 64.241 C 5.432 31.896 31.654000000000003 5.674999999999997 64.002 5.674999999999997 C 96.34799999999998 5.674999999999997 122.57 31.895999999999997 122.57 64.241 C 122.57 96.588 96.347 122.809 64.002 122.809 C 31.653 122.809 5.431999999999995 96.588 5.431999999999995 64.241" stroke-linecap="round" />
</g>
		<g transform="matrix(19.31 0 0 19.31 2.46 -188.9)"  >
<path style="stroke: none; stroke-width: 1; stroke-dasharray: none; stroke-linecap: butt; stroke-dashoffset: 0; stroke-linejoin: miter; stroke-miterlimit: 4; fill: rgb(255,255,255); fill-rule: nonzero; opacity: 1;" vector-effect="non-scaling-stroke"  transform=" translate(-63.86, -54.95)" d="M 27.798 63.994 C 27.798 44.073 43.946 27.924999999999997 63.864999999999995 27.924999999999997 C 83.78399999999999 27.924999999999997 99.931 44.07299999999999 99.931 63.994 C 99.931 83.912 83.78399999999999 100.059 63.864999999999995 100.059 C 43.946 100.059 27.798 83.912 27.798 63.994 M 69.568 10.832 C 70.556 11.718 70.836 12.884 70.785 14.177000000000001 C 70.506 15.091000000000001 70 15.977000000000002 69.187 16.612000000000002 C 70.17699999999999 17.346000000000004 71.166 18.108 71.317 19.425 C 71.597 20.718 71.21499999999999 21.883000000000003 70.47999999999999 22.847 C 68.93499999999999 24.595000000000002 66.47599999999998 24.14 64.24399999999999 24.214000000000002 L 58.350999999999985 24.369000000000003 L 58.310999999999986 23.833000000000002 L 57.704999999999984 10.451000000000002 L 57.679999999999986 10.159000000000002 C 61.557999999999986 10.134000000000002 66.11999999999999 9.131000000000002 69.56799999999998 10.832000000000003 M 80.546 12.719 C 79.50500000000001 15.722999999999999 78.138 18.689999999999998 77.4 21.857999999999997 C 77.313805427036 22.704670843968817 77.86660735948047 23.484745286506367 78.694 23.683999999999997 C 79.31700000000001 24.026999999999997 80.203 24.090999999999998 80.671 23.683999999999997 C 82.67500000000001 20.871 83.626 17.371999999999996 84.882 14.214999999999998 C 86.47800000000001 14.773999999999997 87.72200000000001 15.571999999999997 89.269 16.154999999999998 C 87.619 19.653999999999996 86.605 23.773999999999997 84.32300000000001 26.65 C 82.676 28.095 80.06500000000001 27.738999999999997 78.08900000000001 27.256999999999998 C 75.83200000000001 26.447 73.37300000000002 25.002999999999997 72.68900000000001 22.467 C 72.158 20.730999999999998 74.566 14.773 75.88300000000001 11.213 L 80.546 12.719" stroke-linecap="round" />
</g>
		<g transform="matrix(19.31 0 0 19.31 -421.76 -747.15)"  >
<path style="stroke: none; stroke-width: 1; stroke-dasharray: none; stroke-linecap: butt; stroke-dashoffset: 0; stroke-linejoin: miter; stroke-miterlimit: 4; fill: rgb(255,255,255); fill-rule: nonzero; opacity: 1;" vector-effect="non-scaling-stroke"  transform=" translate(-41.89, -26.03)" d="M 44.015 29.39 L 40.668 31.593 C 39.419 30.935 38.69 30.491 37.778 30.073 L 34.073 33.192 C 34.454 34.106 34.94 35.22 35.345 36.234 L 32.036 39.933 L 31.770000000000003 39.35 L 25.913000000000004 25.434 L 31.262000000000004 20.832 L 31.693000000000005 21.099 C 35.89000000000001 23.661 40.203 26.682000000000002 44.45400000000001 29.101 L 44.01500000000001 29.39 M 44.851 28.88 C 43.094 24.595 40.942 19.59 39.35 15.571 C 43.382000000000005 13.948 49.213 9.956 52.811 13.671 C 53.723 14.684999999999999 53.85 16.104 53.875 17.397 C 53.649 18.232 53.443 19.070999999999998 52.887 19.755 C 54.09 21.236 56.324 22.916999999999998 57.869 24.387 L 57.679 24.451 L 53.116 25.458000000000002 C 51.493 24.153000000000002 50.574 23.232000000000003 49.162 22.264000000000003 C 48.553 22.338000000000005 48.134 22.695000000000004 47.562 22.948000000000004 L 49.134 26.549000000000003 L 44.851 28.880000000000003" stroke-linecap="round" />
</g>
		<g transform="matrix(19.31 0 0 19.31 -156.34 -923.41)"  >
<path style="stroke: none; stroke-width: 1; stroke-dasharray: none; stroke-linecap: butt; stroke-dashoffset: 0; stroke-linejoin: miter; stroke-miterlimit: 4; fill: rgb(57,118,87); fill-rule: nonzero; opacity: 1;" vector-effect="non-scaling-stroke"  transform=" translate(-55.64, -16.91)" d="M 65.614 13.189 C 65.968 13.567 65.894 14.355 65.688 14.786 C 65.031 15.548 63.814 15.52 62.800000000000004 15.392999999999999 C 62.874 14.531999999999998 62.556000000000004 13.694999999999999 62.620000000000005 12.809 C 63.482000000000006 12.934999999999999 64.98 12.503 65.614 13.189 M 48.883 16.686 C 49.134 17.32 49.149 18.352 48.609 18.728 L 46.1 19.792 C 45.474000000000004 18.641000000000002 45.208 17.852 44.777 16.916 C 45.942 16.485 47.943 14.736 48.883 16.686 M 66.45 18.968 C 66.651 19.857 66.248 20.769 65.385 20.947 C 64.574 21.072 63.967000000000006 20.997 63.104000000000006 21.022 C 62.977000000000004 20.107999999999997 62.903000000000006 18.892 62.977000000000004 18.131 C 64.14200000000001 18.283 65.894 17.65 66.45 18.968" stroke-linecap="round" />
</g>
		<g transform="matrix(19.31 0 0 19.31 599.45 -703.04)"  >
<path style="stroke: none; stroke-width: 1; stroke-dasharray: none; stroke-linecap: butt; stroke-dashoffset: 0; stroke-linejoin: miter; stroke-miterlimit: 4; fill: rgb(255,255,255); fill-rule: nonzero; opacity: 1;" vector-effect="non-scaling-stroke"  transform=" translate(-94.79, -28.32)" d="M 100.671 23.913 C 101.534 24.977 102.119 26.295 102.498 27.638 C 101.433 28.21 100.622 28.857000000000003 99.607 29.312 C 99.356 27.740000000000002 98.493 26.143 96.947 25.358 C 96.212 24.926000000000002 95.12 24.85 94.285 25.129 C 92.991 25.610000000000003 91.877 26.726000000000003 91.395 28.019000000000002 C 90.964 29.261000000000003 91.445 30.477000000000004 92.157 31.44 C 93.14399999999999 32.556000000000004 94.465 33.141 95.956 33.191 C 95.286 34.293 94.92 34.989000000000004 94.285 35.853 C 91.79899999999999 35.497 89.46799999999999 34.128 88.04899999999999 31.821 C 86.832 29.87 86.75699999999999 26.879 87.82199999999999 24.825000000000003 C 88.93599999999999 22.568 91.14299999999999 21.123000000000005 93.52299999999998 20.793000000000003 C 96.38899999999998 20.692000000000004 98.97399999999998 21.833000000000002 100.67099999999998 23.913000000000004" stroke-linecap="round" />
</g>
		<g transform="matrix(19.31 0 0 19.31 -598.06 -712.54)"  >
<path style="stroke: none; stroke-width: 1; stroke-dasharray: none; stroke-linecap: butt; stroke-dashoffset: 0; stroke-linejoin: miter; stroke-miterlimit: 4; fill: rgb(57,118,87); fill-rule: nonzero; opacity: 1;" vector-effect="non-scaling-stroke"  transform=" translate(-32.76, -27.83)" d="M 34.812 28.171 C 34.095538904969246 28.831510962700037 33.33367288690923 29.441003777148055 32.532 29.995000000000005 C 31.922999999999995 28.55 31.338999999999995 27.257 30.705999999999996 25.66 C 32.162 26.435 33.440999999999995 27.333 34.812 28.171" stroke-linecap="round" />
</g>
		<g transform="matrix(19.31 0 0 19.31 1.72 -499.92)"  >
<path style="stroke: none; stroke-width: 1; stroke-dasharray: none; stroke-linecap: butt; stroke-dashoffset: 0; stroke-linejoin: miter; stroke-miterlimit: 4; fill: rgb(255,255,255); fill-rule: nonzero; opacity: 1;" vector-effect="non-scaling-stroke"  transform=" translate(-63.83, -38.84)" d="M 108.279 32.886 C 107.11399999999999 34.052 105.568 35.042 104.323 36.157000000000004 C 106.30199999999999 36.587 108.53099999999999 36.511 110.55999999999999 36.841 C 111.47299999999998 38.161 111.954 39.428000000000004 112.84199999999998 41.024 L 105.38899999999998 40.493 C 103.74099999999999 43.078 102.24599999999998 45.714 100.82499999999999 48.401 C 99.939 47.108000000000004 99.25599999999999 45.437000000000005 98.392 43.992000000000004 C 99.357 42.039 100.61 39.973000000000006 101.576 38.02 C 99.916 39.048 98.458 40.378 96.768 41.442 L 94.135 37.905 C 97.683 34.863 101.51100000000001 32.151 105.238 29.39 L 105.54 29.281 L 108.27900000000001 32.885999999999996 M 24.596 31.949 C 23.923000000000002 33.343 23.036 34.293 22.417 35.624 L 31.086000000000002 41.327000000000005 C 30.629 42.61900000000001 29.641000000000002 43.889 28.803 45.129000000000005 L 19.906 39.577000000000005 C 19.107999999999997 40.629000000000005 18.535999999999998 41.70700000000001 17.737 43.051 C 16.570999999999998 42.279 15.746999999999998 41.771 14.809999999999999 41.101 C 17.017 37.422 19.107999999999997 33.976 21.540999999999997 30.159 L 24.595999999999997 31.948999999999998" stroke-linecap="round" />
</g>
		<g transform="matrix(19.31 0 0 19.31 -463.02 176.86)"  >
<path style="stroke: none; stroke-width: 1; stroke-dasharray: none; stroke-linecap: butt; stroke-dashoffset: 0; stroke-linejoin: miter; stroke-miterlimit: 4; fill: rgb(0,0,0); fill-rule: nonzero; opacity: 1;" vector-effect="non-scaling-stroke"  transform=" translate(-39.75, -73.9)" d="M 48.986 65.855 C 49.001448171292935 66.4559778391279 48.94028941985911 67.05647612930505 48.803999999999995 67.64200000000001 C 47.461 70.355 45.282 72.736 44.928 75.85700000000001 C 43.382 76.84300000000002 42.111999999999995 78.56800000000001 39.908 77.98600000000002 C 39.831 78.56800000000001 40.009 79.45300000000002 40.211 80.11300000000001 C 38.463 80.03900000000002 37.269999999999996 81.33000000000001 35.799 81.93900000000001 C 35.014 81.68700000000001 34.811 80.671 34.508 79.962 C 36.230000000000004 79.38000000000001 37.472 77.655 39.45 77.683 C 39.679 77.046 39.322 76.46400000000001 39.221000000000004 75.85700000000001 C 36.761 74.76500000000001 32.858000000000004 81.25500000000001 32.53 75.62800000000001 C 34.988 75.47600000000001 36.56 73.19400000000002 38.995000000000005 72.96600000000001 L 39.069 71.14000000000001 C 36.306000000000004 70.86100000000002 34.531000000000006 73.70100000000002 31.769000000000002 73.42100000000002 L 31.159000000000002 70.98900000000002 C 34.353 71.19000000000001 36.256 68.32700000000001 39.298 68.17300000000002 C 39.702000000000005 67.64200000000001 39.753 66.85500000000002 39.831 66.12000000000002 C 36.510000000000005 65.68800000000002 34.229 69.36600000000001 30.705000000000005 68.24900000000002 C 30.705000000000005 68.24900000000002 30.585000000000004 66.71800000000002 30.519000000000005 65.85400000000003 L 48.986000000000004 65.85400000000003" stroke-linecap="round" />
</g>
		<g transform="matrix(19.31 0 0 19.31 -360.05 300.21)"  >
<path style="stroke: none; stroke-width: 1; stroke-dasharray: none; stroke-linecap: butt; stroke-dashoffset: 0; stroke-linejoin: miter; stroke-miterlimit: 4; fill: rgb(0,0,0); fill-rule: nonzero; opacity: 1;" vector-effect="non-scaling-stroke"  transform=" translate(-45.09, -80.29)" d="M 52.882 65.855 C 52.994 67.205 52.663999999999994 68.552 51.391999999999996 69.92500000000001 C 49.565999999999995 72.07700000000001 47.717 74.79 49.035 77.683 C 50.43 80.87400000000001 54.815 83.35900000000001 52.913 87.33900000000001 C 51.875 89.84900000000002 49.388999999999996 91.75100000000002 49.491 94.71600000000001 C 48.833 94.43700000000001 48.15 94.15700000000001 47.591 93.65200000000002 C 47.591 89.87500000000001 52.963 87.51700000000001 50.403 83.53700000000002 C 50.177 84.32200000000002 50.126 85.38700000000001 49.948 86.27500000000002 C 49.059 88.58200000000002 47.159 90.43100000000003 46.448 92.81800000000003 C 45.259 92.35900000000002 44.015 91.39600000000003 43.026 90.38200000000003 L 44.397000000000006 89.54400000000004 C 44.245000000000005 89.03600000000004 43.83800000000001 88.60600000000004 43.483000000000004 88.17500000000004 C 42.594 88.05000000000004 42.012 88.63200000000003 41.278000000000006 88.86100000000005 C 40.644000000000005 88.30200000000005 40.034000000000006 87.79500000000004 39.529 87.11100000000005 C 39.984 85.81600000000005 43.534000000000006 86.88400000000004 41.733000000000004 84.75400000000005 C 40.517 83.99400000000004 39.301 85.08400000000005 38.236000000000004 85.59200000000004 L 36.791000000000004 83.76600000000005 C 38.033 83.00600000000004 39.274 81.94000000000005 40.819 82.24500000000005 C 41.2 82.93100000000005 41.227000000000004 83.94200000000005 41.961000000000006 84.30000000000005 C 44.572 84.24900000000005 46.423 82.27100000000006 48.425000000000004 80.72400000000006 C 47.029 78.64800000000007 45.891000000000005 75.78100000000006 47.13100000000001 73.27100000000006 C 48.12400000000001 70.75500000000005 50.714000000000006 68.63800000000006 50.83100000000001 65.85700000000006 L 52.88200000000001 65.85700000000006" stroke-linecap="round" />
</g>
		<g transform="matrix(19.31 0 0 19.31 -190.68 316.37)"  >
<path style="stroke: none; stroke-width: 1; stroke-dasharray: none; stroke-linecap: butt; stroke-dashoffset: 0; stroke-linejoin: miter; stroke-miterlimit: 4; fill: rgb(0,0,0); fill-rule: nonzero; opacity: 1;" vector-effect="non-scaling-stroke"  transform=" translate(-53.86, -81.12)" d="M 56.597 65.855 C 56.727000000000004 67.015 56.536 68.205 55.726 69.46600000000001 C 54.08 71.7 51.925 74.054 52.912 76.995 C 53.85 79.962 57.552 81.76100000000001 57.324 85.21000000000001 C 57.299 89.29 52.556999999999995 91.82700000000001 53.900999999999996 96.39000000000001 L 51.544 95.62800000000001 C 50.607 91.57300000000001 54.916 89.49500000000002 54.965999999999994 85.74300000000001 C 55.574999999999996 81.43100000000001 50.071 79.83300000000001 50.400999999999996 75.62800000000001 C 50.37799999999999 72.43300000000002 53.190999999999995 70.40500000000002 54.43299999999999 67.71800000000002 C 54.63235188753998 67.11806836237935 54.71914197981485 66.48646702680095 54.68899999999999 65.85500000000002 L 56.596999999999994 65.85500000000002" stroke-linecap="round" />
</g>
		<g transform="matrix(19.31 0 0 19.31 5.24 326.63)"  >
<path style="stroke: none; stroke-width: 1; stroke-dasharray: none; stroke-linecap: butt; stroke-dashoffset: 0; stroke-linejoin: miter; stroke-miterlimit: 4; fill: rgb(0,0,0); fill-rule: nonzero; opacity: 1;" vector-effect="non-scaling-stroke"  transform=" translate(-64.01, -81.65)" d="M 69.629 65.855 C 69.47104028857224 66.91395388289622 69.66347445383832 67.99551816942814 70.177 68.935 C 71.82400000000001 71.544 74.715 74.31 72.912 77.683 C 71.013 80.468 67.84400000000001 83.183 69.11 86.80600000000001 C 70.505 89.97600000000001 73.42 92.99200000000002 71.847 96.92300000000002 L 69.491 97.45400000000002 C 71.366 93.62400000000002 68.554 89.82500000000002 66.907 86.50300000000001 C 64.90299999999999 81.73700000000001 71.215 79.45200000000001 71.316 75.09500000000001 C 71.292 72.28300000000002 68.3 70.68500000000002 67.668 68.09900000000002 C 66.37400000000001 67.00700000000002 65.03 68.53100000000002 63.483000000000004 68.24900000000002 C 62.342000000000006 68.47900000000003 60.593 66.67700000000002 59.910000000000004 68.63000000000002 C 59.098000000000006 71.49300000000002 55.395 73.59900000000002 57.02 76.99500000000002 C 58.567 80.01300000000002 62.291000000000004 82.21800000000002 61.048 86.12400000000002 C 59.934000000000005 89.77200000000002 56.258 93.24700000000003 58.539 97.45400000000002 C 57.601 97.15100000000002 55.851 97.73300000000002 55.877 96.23700000000002 C 54.432 91.14100000000002 60.593 88.17500000000003 58.690000000000005 83.08100000000002 C 57.804 79.96200000000002 53.772000000000006 78.23700000000002 54.660000000000004 74.48500000000001 C 55.316 71.39700000000002 58.777 69.23700000000001 58.291000000000004 65.85400000000001 L 69.629 65.85400000000001" stroke-linecap="round" />
</g>
		<g transform="matrix(19.31 0 0 19.31 199.78 314.9)"  >
<path style="stroke: none; stroke-width: 1; stroke-dasharray: none; stroke-linecap: butt; stroke-dashoffset: 0; stroke-linejoin: miter; stroke-miterlimit: 4; fill: rgb(0,0,0); fill-rule: nonzero; opacity: 1;" vector-effect="non-scaling-stroke"  transform=" translate(-74.09, -81.05)" d="M 73.294 65.855 C 73.24499999999999 66.72200000000001 73.42 67.584 73.979 68.402 C 75.729 71.242 78.771 74.361 77.022 78.062 C 75.045 81.027 71.59700000000001 84.044 73.522 87.949 C 74.917 90.28099999999999 77.07300000000001 92.611 76.491 95.478 L 74.208 96.238 C 75.729 90.89 68.275 87.744 71.395 82.396 C 73.322 79.531 76.768 76.843 74.818 73.041 C 73.652 70.68599999999999 71.243 69.291 71.318 66.348 L 71.39999999999999 65.856 L 73.294 65.856" stroke-linecap="round" />
</g>
		<g transform="matrix(19.31 0 0 19.31 368.23 298.71)"  >
<path style="stroke: none; stroke-width: 1; stroke-dasharray: none; stroke-linecap: butt; stroke-dashoffset: 0; stroke-linejoin: miter; stroke-miterlimit: 4; fill: rgb(0,0,0); fill-rule: nonzero; opacity: 1;" vector-effect="non-scaling-stroke"  transform=" translate(-82.81, -80.21)" d="M 77.07 65.855 C 77.05769756650398 66.61418718190947 77.25084295431321 67.36258236973559 77.62899999999999 68.021 C 79.27699999999999 70.99 82.24399999999999 73.802 81.12899999999999 77.527 C 80.82199999999999 78.67 79.913 79.558 79.684 80.722 C 81.613 82.32 83.437 84.118 85.996 84.22 C 86.908 83.638 86.401 81.05199999999999 88.277 82.243 L 91.014 83.61399999999999 C 90.814 84.34799999999998 90.20299999999999 85.00899999999999 89.64699999999999 85.514 C 88.60799999999999 85.008 87.594 84.399 86.29899999999999 84.448 C 85.91699999999999 84.854 85.58699999999999 85.31099999999999 85.61599999999999 85.89299999999999 C 86.52799999999999 86.04299999999999 87.36199999999998 86.42399999999999 88.12399999999998 86.957 C 87.76999999999998 87.719 87.08399999999997 88.199 86.44999999999997 88.78299999999999 L 84.32099999999997 88.02099999999999 C 83.96699999999997 88.52899999999998 83.22899999999997 89.06199999999998 83.48699999999997 89.61899999999999 C 83.96699999999997 89.82399999999998 84.50099999999996 90.10099999999998 84.85399999999997 90.45699999999998 C 83.91599999999997 91.47099999999998 82.72599999999997 92.12699999999998 81.58299999999997 92.81599999999997 C 80.59699999999997 89.59499999999997 77.34899999999998 87.33699999999997 77.62799999999997 83.61299999999997 L 77.47799999999997 83.46099999999997 C 76.71599999999997 84.31999999999996 76.97199999999997 85.69099999999997 77.02199999999996 86.80499999999996 C 77.93499999999996 89.13699999999996 80.11499999999997 90.93999999999997 80.44499999999996 93.49799999999996 C 80.06399999999996 94.15599999999996 79.20199999999997 94.28299999999996 78.54199999999996 94.56199999999995 C 78.61899999999996 89.94899999999996 71.62299999999996 86.45299999999996 76.10999999999996 81.78699999999995 C 77.60599999999995 79.50199999999995 80.11499999999995 77.32399999999996 79.22599999999996 74.17999999999995 C 78.31399999999995 71.14299999999994 75.08399999999996 69.25799999999995 75.11199999999995 65.85399999999996 L 77.06999999999995 65.85399999999996" stroke-linecap="round" />
</g>
		<g transform="matrix(19.31 0 0 19.31 469.63 176.85)"  >
<path style="stroke: none; stroke-width: 1; stroke-dasharray: none; stroke-linecap: butt; stroke-dashoffset: 0; stroke-linejoin: miter; stroke-miterlimit: 4; fill: rgb(0,0,0); fill-rule: nonzero; opacity: 1;" vector-effect="non-scaling-stroke"  transform=" translate(-88.06, -73.9)" d="M 97.33 65.855 C 97.355 66.712 97.434 67.449 97.099 68.328 C 93.626 69.316 91.345 65.64 87.97500000000001 66.19500000000001 L 88.35400000000001 68.099 C 91.47200000000001 68.20100000000001 93.424 71.191 96.644 71.062 C 96.18700000000001 71.976 96.84700000000001 74.384 94.82000000000001 73.42099999999999 C 92.71600000000001 72.91499999999999 91.194 71.062 88.887 71.062 C 88.609 71.572 88.785 72.283 88.736 72.88799999999999 C 91.16900000000001 73.26899999999999 92.918 75.32399999999998 95.35000000000001 75.704 C 95.12100000000001 76.53999999999999 94.89300000000001 77.475 94.209 77.985 C 92.23 77.503 90.685 75.727 88.57900000000001 75.778 L 88.20200000000001 77.52600000000001 C 90.20400000000001 77.57700000000001 91.49800000000002 79.352 93.29700000000001 79.88300000000001 C 93.34600000000002 80.62100000000001 92.68900000000001 81.27900000000001 92.30900000000001 81.93800000000002 C 90.71300000000001 81.45800000000001 89.495 80.08800000000002 87.67000000000002 80.19000000000001 C 87.64400000000002 79.50200000000001 88.05000000000001 78.71900000000001 87.89600000000002 77.98500000000001 C 85.84600000000002 78.59400000000001 84.47400000000002 76.69200000000001 82.95600000000002 75.549 C 82.91200000000002 71.811 78.97700000000002 69.35600000000001 78.76900000000002 65.85400000000001 L 97.33 65.85400000000001" stroke-linecap="round" />
</g>
		<g transform="matrix(19.31 0 0 19.31 3.16 -320.01)"  >
<path style="stroke: none; stroke-width: 1; stroke-dasharray: none; stroke-linecap: butt; stroke-dashoffset: 0; stroke-linejoin: miter; stroke-miterlimit: 4; fill: rgb(0,0,0); fill-rule: nonzero; opacity: 1;" vector-effect="non-scaling-stroke"  transform=" translate(-63.9, -48.16)" d="M 30.52 65.855 C 30.496 65.51700000000001 30.477 65.283 30.477 65.283 C 33.621 66.502 36.382 64.245 39.07 63.08 C 39.754 62.875 40.818 63.231 41.125 62.471 C 41.098 61.888 42.163 61.202999999999996 41.277 60.797 C 37.346000000000004 60.263999999999996 34.736000000000004 65.006 30.706000000000003 62.851 L 30.400000000000002 62.242 C 31.238000000000003 50.785 37.702 39.706999999999994 48.42400000000001 34.256 C 58.007000000000005 28.779 72.71100000000001 29.237000000000002 81.73500000000001 35.625 C 86.52800000000002 38.565 91.11500000000001 43.408 93.60200000000002 48.327 C 95.98200000000001 52.635999999999996 97.07400000000001 57.476 97.40100000000002 62.623 C 93.24300000000002 65.76599999999999 90.45500000000003 59.659 86.22000000000003 61.025999999999996 C 86.44900000000003 61.68599999999999 86.57600000000002 62.37 87.06000000000003 62.928 C 90.81300000000003 62.901999999999994 93.39700000000003 66.832 97.32600000000004 65.283 L 97.32900000000004 65.855 L 78.768 65.855 C 78.72849274807707 65.08813239750893 78.85964499101311 64.32205302015075 79.152 63.612 C 80.44500000000001 60.621 80.038 56.74 78.619 53.951 C 78.188 53.217 77.428 52.635 76.717 52.203 C 77.758 54.410000000000004 79.024 57.02 78.391 59.732 C 78.31800000000001 61.826 77.08500000000001 63.836 77.07100000000001 65.855 L 75.11300000000001 65.855 L 75.12100000000001 65.589 C 75.855 62.039 78.08900000000001 58.260999999999996 76.263 54.483999999999995 C 75.75500000000001 52.96399999999999 74.617 51.239999999999995 73.07000000000001 50.605999999999995 C 75.376 53.24399999999999 76.28800000000001 57.55199999999999 74.96900000000001 61.102999999999994 C 74.304 62.51499999999999 73.38700000000001 64.19399999999999 73.296 65.854 L 71.4 65.854 C 72.185 61.679 75.36200000000001 57.729 73.143 53.266999999999996 C 72.56 51.949 71.395 50.605999999999995 70.102 49.843999999999994 L 70.024 49.922 C 72.611 52.431999999999995 73.396 56.565 72.002 59.884 C 71.35 61.831 69.92099999999999 63.767 69.631 65.854 L 58.292 65.854 C 58.24955252181379 65.55668312286457 58.18026963173682 65.26382066480974 58.085 64.979 C 56.792 61.328 54.154 57.679 55.726 53.418 C 56.158 52.201 57.021 51.161 57.778999999999996 50.073 C 55.269 51.416 54.001999999999995 54.256 54.053 57.146 C 53.943999999999996 60.287 56.266999999999996 62.979 56.596999999999994 65.854 L 54.69 65.854 C 54.538 62.882 51.861 60.563 52.305 57.222 C 52.455 54.763 53.291 52.607 54.888 50.758 C 52.684 51.644000000000005 51.772 54.18 51.163 56.309000000000005 C 50.105999999999995 59.724000000000004 52.629 62.794000000000004 52.882 65.854 L 50.830999999999996 65.854 C 50.85554073765747 65.16457312203033 50.7359944856542 64.47760790752722 50.48 63.836999999999996 C 49.111999999999995 60.31399999999999 48.629 55.55 51.239999999999995 52.431 C 49.81999999999999 52.812 48.983999999999995 54.583999999999996 48.501999999999995 55.928 C 46.931999999999995 59.367999999999995 48.91799999999999 62.556 48.986 65.854 L 30.52 65.854" stroke-linecap="round" />
</g>
		<g transform="matrix(19.31 0 0 19.31 3.2 -444.54)"  >
<path style="stroke: none; stroke-width: 1; stroke-dasharray: none; stroke-linecap: butt; stroke-dashoffset: 0; stroke-linejoin: miter; stroke-miterlimit: 4; fill: rgb(255,255,255); fill-rule: nonzero; opacity: 1;" vector-effect="non-scaling-stroke"  transform=" translate(-63.9, -41.71)" d="M 65.688 36.46 L 69.796 36.689 L 69.72000000000001 37.07 L 66.67800000000001 39.96 C 67.20900000000002 41.254 67.74200000000002 42.547000000000004 68.275 43.837 C 70.58200000000001 42.496 72.789 40.822 75.577 40.643 C 75.323 42.115 74.208 43.662 74.358 45.13 C 76.083 44.649 77.65700000000001 43.585 79.533 43.685 C 78.365 45.841 76.666 47.997 76.56400000000001 50.683 C 74.004 49.722 71.367 48.553 68.504 48.098 C 62.394000000000005 47.057 56.511 48.400999999999996 51.465 50.836 C 51.035000000000004 48.275999999999996 49.794000000000004 46.044 48.272000000000006 43.915 C 49.184000000000005 43.611 50.29900000000001 44.116 51.239000000000004 44.373 C 52.025000000000006 44.599 52.684000000000005 45.131 53.521 45.285 C 53.671 43.763999999999996 52.786 42.267999999999994 52.153 40.873 C 52.583999999999996 40.543 53.268 40.794999999999995 53.75 40.949999999999996 C 55.751 41.708999999999996 57.552 42.9 59.378 43.992 C 60.315 42.9 60.668 41.327999999999996 61.049 39.882999999999996 L 57.933 37.06999999999999 L 57.933 36.766999999999996 L 62.039 36.537 C 62.722 35.245 63.179 33.876 63.864000000000004 32.583 C 64.70100000000001 33.724 64.98 35.22 65.688 36.46" stroke-linecap="round" />
</g>
		<g transform="matrix(19.31 0 0 19.31 3.13 -405.66)"  >
<path style="stroke: none; stroke-width: 1; stroke-dasharray: none; stroke-linecap: butt; stroke-dashoffset: 0; stroke-linejoin: miter; stroke-miterlimit: 4; fill: rgb(0,0,0); fill-rule: nonzero; opacity: 1;" vector-effect="non-scaling-stroke"  transform=" translate(-63.9, -43.72)" d="M 67.133 44.75 L 66.755 45.13 C 64.853 44.928000000000004 62.851 45.18 61.04899999999999 45.208000000000006 C 60.846999999999994 45.005 60.44299999999999 44.7 60.81999999999999 44.446000000000005 L 63.71099999999999 42.239000000000004 C 64.904 42.92700000000001 66.16999999999999 43.813 67.133 44.75000000000001" stroke-linecap="round" />
</g>
		<g transform="matrix(19.31 0 0 19.31 5.2 -181.71)"  >
<path style="stroke: none; stroke-width: 1; stroke-dasharray: none; stroke-linecap: butt; stroke-dashoffset: 0; stroke-linejoin: miter; stroke-miterlimit: 4; fill: rgb(255,255,255); fill-rule: nonzero; opacity: 1;" vector-effect="non-scaling-stroke"  transform=" translate(-64.01, -55.32)" d="M 16.407 45.814 C 14.834 47.033 13.719 48.808 14.05 50.835 C 14.228000000000002 51.139 14.404 51.594 14.81 51.67 C 16.077 51.67 16.508 50.303000000000004 17.09 49.465 C 17.775 47.944 19.095 46.295 20.894 46.119 C 22.439999999999998 46.019 23.761 46.423 24.773999999999997 47.64 C 26.319999999999997 49.492 26.040999999999997 52.483000000000004 25.307 54.639 C 24.619999999999997 56.236000000000004 23.555999999999997 57.856 22.035999999999998 58.897000000000006 L 19.296999999999997 57.223000000000006 C 20.792999999999996 56.18600000000001 22.365999999999996 54.48500000000001 22.567999999999998 52.584 C 22.567999999999998 51.900000000000006 22.418 50.987 21.578 50.910000000000004 C 19.83 51.418000000000006 19.653 53.521 18.462 54.713 C 17.55 55.652 16.408 56.36 14.962 56.157000000000004 C 13.618 56.080000000000005 12.475999999999999 55.245000000000005 11.690999999999999 54.18000000000001 C 10.194999999999999 51.900000000000006 10.93 48.55100000000001 11.842999999999998 46.80400000000001 C 12.401999999999997 45.81400000000001 13.061999999999998 44.82600000000001 13.973999999999998 44.06400000000001 C 14.732999999999999 44.49700000000001 15.621999999999998 45.15700000000001 16.406999999999996 45.81400000000001 M 115.732 47.795 C 117.04899999999999 49.923 117.559 52.736000000000004 116.873 55.323 L 114.059 55.171 C 114.441 53.472 114.719 51.342999999999996 113.527 49.923 C 113.173 49.492000000000004 112.539 49.237 112.08200000000001 49.466 C 110.536 51.19 112.212 53.676 111.248 55.627 C 110.79 56.516000000000005 110.10600000000001 57.580000000000005 109.117 57.983000000000004 C 107.518 58.592000000000006 105.54100000000001 58.288000000000004 104.324 57.071000000000005 C 101.943 54.586000000000006 100.826 50.732000000000006 102.349 47.48800000000001 L 105.31400000000001 47.48800000000001 C 104.807 48.75800000000001 104.45500000000001 50.556000000000004 104.935 52.05200000000001 C 105.187 52.68600000000001 105.492 53.49700000000001 106.229 53.72500000000001 C 108.662 53.81300000000001 107.013 50.32800000000001 107.596 48.70400000000001 C 107.825 47.48800000000001 108.483 46.22100000000001 109.724 45.662000000000006 C 112.00500000000001 44.547000000000004 114.66900000000001 45.81400000000001 115.732 47.79500000000001 M 41.125 52.584 C 43.583 51.645 46.929 50.024 49.566 51.748000000000005 C 49.007000000000005 52.533 47.92 52.965 47.131 53.648 C 45.84 54.915000000000006 44.268 56.46 43.331 58.05800000000001 C 40.162000000000006 57.42300000000001 37.625 59.27700000000001 34.964 60.34100000000001 C 33.949999999999996 60.54200000000001 32.606 60.644000000000005 31.77 59.96000000000001 C 34.28 55.82600000000001 37.827 52.02400000000001 36.941 46.57400000000001 C 37.220000000000006 46.09200000000001 37.701 46.49900000000001 38.005 46.65100000000001 C 39.959 48.17200000000001 40.896 50.27700000000001 41.125 52.58400000000001 M 91.167 47.184 C 90.18 52.355 93.727 56.007 96.11 59.961 C 93.374 61.787 90.785 58.971 88.201 58.287 C 87.05999999999999 58.111 85.71799999999999 57.957 84.625 58.135 C 83.056 55.702999999999996 80.951 53.42 78.39 52.052 C 78.541 51.217 79.707 51.163 80.52 51.062 C 82.776 50.836 84.753 51.772999999999996 86.604 52.736999999999995 C 86.959 51.901999999999994 87.111 50.961999999999996 87.363 50.07599999999999 C 87.974 48.57999999999999 89.167 47.056999999999995 90.713 46.425 C 91.041 46.474999999999994 91.26899999999999 46.830999999999996 91.16699999999999 47.184 M 70.023 51.901 C 70.101 52.331 70.53099999999999 52.712 70.252 53.194 C 68.756 52.736000000000004 67.059 52.989000000000004 65.613 53.572 C 64.319 54.535000000000004 64.522 56.515 64.852 57.907000000000004 L 65.233 58.213 C 65.866 58.06 65.893 57.25 66.449 57.071 C 67.38799999999999 57.3 68.67999999999999 57.631 69.567 57.071 C 70.35199999999999 57.097 70.329 58.186 70.40299999999999 58.745 C 69.84599999999999 61.686 68.60399999999998 64.88 65.61299999999999 66.274 C 64.36999999999999 66.883 62.771999999999984 66.475 61.58099999999999 66.045 C 58.64099999999999 64.296 56.99299999999999 60.823 57.322999999999986 57.681 C 57.551999999999985 57.199 57.90699999999999 56.818 58.46599999999999 57.147999999999996 C 59.65399999999999 57.958 60.94699999999999 56.51499999999999 62.03899999999999 57.525999999999996 C 63.35599999999999 56.943 62.570999999999984 55.32299999999999 62.570999999999984 54.105999999999995 C 61.506999999999984 52.736 59.68099999999998 52.937999999999995 58.08499999999999 53.03999999999999 C 57.37399999999999 52.60799999999999 58.13599999999999 51.92499999999999 58.310999999999986 51.44299999999999 C 60.03599999999999 49.00999999999999 63.332999999999984 48.959999999999994 66.21999999999998 49.31399999999999 C 67.69199999999998 49.693999999999996 69.31499999999998 50.327999999999996 70.02299999999998 51.900999999999996" stroke-linecap="round" />
</g>
		<g transform="matrix(19.31 0 0 19.31 3.67 -185.8)"  >
<path style="stroke: none; stroke-width: 1; stroke-dasharray: none; stroke-linecap: butt; stroke-dashoffset: 0; stroke-linejoin: miter; stroke-miterlimit: 4; fill: rgb(255,255,255); fill-rule: nonzero; opacity: 1;" vector-effect="non-scaling-stroke"  transform=" translate(-63.93, -55.11)" d="M 61.201 55.398 L 61.201 55.704 C 60.34 55.627 58.947 54.765 58.160000000000004 55.855000000000004 C 57.654 56.081 57.578 55.498000000000005 57.629000000000005 55.17 C 57.579058798791905 55.00826045740398 57.600371853460466 54.832905581513494 57.687603095216645 54.68783830857106 C 57.774834336972816 54.542771035628625 57.919725233606265 54.44172546734071 58.086000000000006 54.410000000000004 C 59.275000000000006 54.131 60.61900000000001 54.48500000000001 61.20100000000001 55.398 M 70.252 55.017 C 70.228 55.323 70.303 55.677 69.948 55.855000000000004 C 68.984 55.475 67.63999999999999 54.94200000000001 66.67699999999999 55.704 C 66.118 54.512 67.66699999999999 54.765 68.198 54.411 C 68.985 54.383 69.898 54.36 70.252 55.017" stroke-linecap="round" />
</g>
		<g transform="matrix(19.31 0 0 19.31 2.44 -58.87)"  >
<path style="stroke: none; stroke-width: 1; stroke-dasharray: none; stroke-linecap: butt; stroke-dashoffset: 0; stroke-linejoin: miter; stroke-miterlimit: 4; fill: rgb(0,0,0); fill-rule: nonzero; opacity: 1;" vector-effect="non-scaling-stroke"  transform=" translate(-63.86, -61.69)" d="M 65.384 59.885 C 64.929 60.848 63.458 60.239999999999995 62.646 60.416 C 62.37 60.314 62.544000000000004 60.01199999999999 62.494 59.809 C 63.306 59.25 64.751 59.175999999999995 65.384 59.885 M 66.6 62.016 C 65.99499999999999 62.928 65.08099999999999 64.067 63.864999999999995 63.994 C 62.49399999999999 64.095 62.190999999999995 62.979 61.20099999999999 62.32 L 61.126999999999995 61.861 C 62.952999999999996 62.141 64.955 61.788 66.6 62.016" stroke-linecap="round" />
</g>
		<g transform="matrix(19.31 0 0 19.31 -111.97 518.17)"  >
<path style="stroke: none; stroke-width: 1; stroke-dasharray: none; stroke-linecap: butt; stroke-dashoffset: 0; stroke-linejoin: miter; stroke-miterlimit: 4; fill: rgb(255,255,255); fill-rule: nonzero; opacity: 1;" vector-effect="non-scaling-stroke"  transform=" translate(-57.94, -91.58)" d="M 19.22 73.879 C 20.756 73.87100000000001 22.229999999999997 73.93 23.816 73.893 L 20.287 76.844 C 20.627 78.086 20.921 79.514 21.351 81.17999999999999 L 17.852 78.746 C 16.381 79.41799999999999 15.495000000000001 80.24199999999999 13.975000000000001 81.027 L 15.191 76.843 C 14.036000000000001 75.89800000000001 12.745000000000001 75.001 11.653 74.038 C 13.245000000000001 73.997 14.639000000000001 74.06099999999999 16.178 74.03 C 16.889 72.7 17.206 71.176 17.852 69.846 L 19.22 73.879 M 37.245 93.881 C 37.550999999999995 94.615 37.992 95.197 38.18 96.299 C 37.37 96.80900000000001 36.346 97.227 35.42 97.68400000000001 C 35.194 96.01 33.722 94.38700000000001 32.075 93.95500000000001 C 30.707000000000004 93.61500000000001 29.211000000000002 94.26200000000001 28.198000000000004 95.47800000000001 C 27.360000000000003 96.46400000000001 27.106000000000005 97.88600000000001 27.360000000000003 99.12800000000001 C 28.020000000000003 100.84900000000002 29.845000000000002 102.14900000000002 31.695000000000004 102.14900000000002 L 32.227000000000004 102.16500000000002 C 31.8440117858136 103.11410622235655 31.38693442761836 104.0316045916965 30.86 104.90900000000002 C 27.791000000000004 104.80500000000002 24.699000000000005 103.00500000000002 23.557000000000002 100.03800000000003 C 22.569000000000003 97.63200000000002 23.001 94.51300000000002 24.547 92.50900000000003 C 26.423000000000002 90.12800000000003 29.415 89.46800000000003 32.305 90.07700000000003 C 34.253 90.61100000000003 36.079 92.08000000000003 37.245 93.88100000000003 M 96.336 92.285 L 96.52799999999999 92.473 L 91.96499999999999 96.721 L 93.48599999999999 98.557 C 94.77799999999999 97.543 96.17399999999999 96.465 97.55499999999999 95.174 C 98.26499999999999 95.77000000000001 98.83699999999999 96.465 99.50699999999999 97.254 C 98.13999999999999 98.557 96.71799999999999 99.44500000000001 95.52799999999999 100.688 C 96.035 101.32300000000001 96.42599999999999 102.043 97.199 102.805 L 102.119 98.748 L 104.221 100.91600000000001 C 101.433 103.56400000000001 98.39200000000001 106.29100000000001 95.50200000000001 108.406 L 86.90700000000001 97.302 C 89.64600000000002 95.019 91.95200000000001 92.941 94.361 90.53200000000001 C 95.09700000000001 91.016 95.63000000000001 91.64800000000001 96.336 92.28500000000001 M 47.969 101.639 C 49.515 103.616 49.54 106.682 48.576 108.938 C 47.501 111.233 45.434 112.69200000000001 43.177 113.19800000000001 C 40.442 113.62800000000001 37.855 112.74300000000001 35.877 110.843 C 34.129000000000005 108.915 33.165 106.152 34.051 103.46600000000001 C 34.837 100.55000000000001 37.676 98.421 40.593 98.066 C 43.608000000000004 97.887 46.397000000000006 99.281 47.969 101.639" stroke-linecap="round" />
</g>
		<g transform="matrix(19.31 0 0 19.31 -428.06 790.83)"  >
<path style="stroke: none; stroke-width: 1; stroke-dasharray: none; stroke-linecap: butt; stroke-dashoffset: 0; stroke-linejoin: miter; stroke-miterlimit: 4; fill: rgb(57,118,87); fill-rule: nonzero; opacity: 1;" vector-effect="non-scaling-stroke"  transform=" translate(-41.56, -105.7)" d="M 44.776 103.465 C 45.635000000000005 105.467 44.647000000000006 107.444 43.253 108.863 C 42.367 109.572 41.206 110.019 40.041 109.588 C 39.306999999999995 109.23299999999999 38.4 108.58399999999999 38.196999999999996 107.797 C 37.638 105.77 38.565 103.869 39.983 102.475 C 40.845 101.764 42.087999999999994 101.36 43.175999999999995 101.866 C 43.83599999999999 102.068 44.571 102.80499999999999 44.775999999999996 103.465" stroke-linecap="round" />
</g>
		<g transform="matrix(19.31 0 0 19.31 361.44 570)"  >
<path style="stroke: none; stroke-width: 1; stroke-dasharray: none; stroke-linecap: butt; stroke-dashoffset: 0; stroke-linejoin: miter; stroke-miterlimit: 4; fill: rgb(255,255,255); fill-rule: nonzero; opacity: 1;" vector-effect="non-scaling-stroke"  transform=" translate(-82.46, -94.26)" d="M 75.045 106.682 C 72.912 106.989 70.875 107.24300000000001 68.84400000000001 107.57300000000001 C 69.049 108.57300000000001 68.95800000000001 109.24300000000001 69.111 110.00500000000001 C 71.013 109.968 72.674 109.63000000000001 74.449 109.40100000000001 L 74.968 112.653 C 73.16204890662048 112.98890359406347 71.34322205091844 113.25145251839169 69.516 113.44 C 69.56700000000001 114.909 69.762 116.70800000000001 69.739 118.33100000000002 C 68.244 118.56000000000002 66.63000000000001 118.72400000000002 65.083 118.62200000000001 L 64.17099999999999 104.75700000000002 L 64.15899999999999 104.46600000000002 C 67.57219894690769 104.14038965366517 70.97397649676756 103.70449521663902 74.35900000000001 103.15900000000003 C 74.5 104.19900000000003 74.817 105.40000000000002 75.045 106.68200000000002 M 86.676 100.449 L 86.804 100.687 L 81.235 103.48 L 82.178 105.66900000000001 C 83.877 105.02100000000002 85.344 104.41700000000002 87.032 103.56400000000001 C 87.547 104.337 87.89999999999999 105.164 88.324 106.10700000000001 C 86.79299999999999 106.92300000000002 85.208 107.55600000000001 83.539 108.28900000000002 C 83.849 109.03900000000002 84.005 109.58600000000001 84.55 110.78900000000002 L 90.411 108.27500000000002 L 91.822 110.94900000000003 C 88.402 112.70700000000002 84.718 114.46900000000002 81.348 115.68900000000002 L 76.215 102.62100000000002 C 79.48400000000001 101.19900000000003 82.283 99.85000000000002 85.269 98.21700000000003 C 85.842 98.88500000000003 86.17500000000001 99.64300000000003 86.676 100.44900000000003 M 62.08 108.258 C 59.958999999999996 107.90299999999999 57.935 107.524 55.903999999999996 107.219 C 55.791 108.235 55.504 108.848 55.419 109.61699999999999 C 57.242 110.16 58.925999999999995 110.344 60.686 110.666 L 60.191 113.926 C 58.367769835993236 113.69545903705566 56.55461891451478 113.39120997718658 54.756 113.01399999999998 C 54.358 114.428 54 116.203 53.485 117.743 C 51.989 117.505 50.4 117.169 48.958 116.6 L 52.304 103.116 L 52.383 102.837 C 55.755 103.566 59.209 104.202 62.498000000000005 104.694 C 62.31400000000001 105.727 62.25000000000001 106.971 62.080000000000005 108.25800000000001 M 111.366 73.9 C 112.899 73.894 114.269 73.935 115.959 73.91600000000001 L 112.433 76.867 C 112.77600000000001 78.107 113.06700000000001 79.53500000000001 113.495 81.203 L 109.99900000000001 78.767 C 108.525 79.437 107.64000000000001 80.26299999999999 106.11900000000001 81.048 L 107.33600000000001 76.866 C 106.18200000000002 75.923 104.88800000000002 75.022 103.802 74.059 C 105.39 74.018 106.78500000000001 74.082 108.32300000000001 74.051 C 108.944 72.666 109.388 71.336 109.99900000000001 69.867 L 111.36600000000001 73.9" stroke-linecap="round" />
</g>
		<g transform="matrix(19.31 0 0 19.31 0 0)"  >
<path style="stroke: none; stroke-width: 1; stroke-dasharray: none; stroke-linecap: butt; stroke-dashoffset: 0; stroke-linejoin: miter; stroke-miterlimit: 4; fill: none; fill-rule: nonzero; opacity: 1;" vector-effect="non-scaling-stroke"  transform=" translate(-63.74, -64.74)" d="M 127.474 64.735 C 127.474 100.469 98.92 129.471 63.73800000000001 129.471 C 28.55600000000001 129.471 0 100.469 0 64.735 C 0 29.002 28.555 0 63.738 0 C 98.92099999999999 0 127.47399999999999 29.002 127.47399999999999 64.735 z" stroke-linecap="round" />
</g>
		<g transform="matrix(19.31 0 0 19.31 799.39 1072.8)"  >
<path style="stroke: none; stroke-width: 1; stroke-dasharray: none; stroke-linecap: butt; stroke-dashoffset: 0; stroke-linejoin: miter; stroke-miterlimit: 4; fill: rgb(0,0,0); fill-rule: nonzero; opacity: 1;" vector-effect="non-scaling-stroke"  transform=" translate(-105.14, -120.3)" d="M 105.153 116.663 C 107.135 116.663 108.834 118.204 108.834 120.295 C 108.834 122.405 107.13600000000001 123.94500000000001 105.153 123.94500000000001 C 103.15100000000001 123.94500000000001 101.453 122.405 101.453 120.295 C 101.453 118.20400000000001 103.151 116.663 105.153 116.663 z M 105.153 117.252 C 103.465 117.252 102.16000000000001 118.55799999999999 102.16000000000001 120.295 C 102.16000000000001 122.071 103.46600000000001 123.357 105.153 123.357 C 106.822 123.357 108.12700000000001 122.072 108.12700000000001 120.295 C 108.126 118.558 106.822 117.252 105.153 117.252 z M 104.37700000000001 122.405 L 103.73 122.405 L 103.73 118.20400000000001 L 105.339 118.20400000000001 C 106.34 118.20400000000001 106.831 118.57700000000001 106.831 119.40100000000001 C 106.831 120.15700000000001 106.35900000000001 120.48100000000001 105.73100000000001 120.55900000000001 L 106.92800000000001 122.40500000000002 L 106.22200000000001 122.40500000000002 L 105.10300000000001 120.57900000000002 L 104.376 120.57900000000002 L 104.376 122.40500000000002 z M 104.37700000000001 120.05 L 105.14300000000001 120.05 C 105.92800000000001 120.05 106.18300000000002 119.823 106.18300000000002 119.362 C 106.18300000000002 118.96 105.98700000000002 118.734 105.25100000000002 118.734 L 104.37700000000002 118.734 L 104.37700000000002 120.05 z" stroke-linecap="round" />
</g>
</g>
</g>
</svg>